<svg width="18" height="35" viewBox="0 0 18 35" fill="none" xmlns="http://www.w3.org/2000/svg">
<path d="M5.59812 34.0665C5.17504 34.0678 4.7477 34.045 4.3289 34.0738C0.922915 34.3033 0.918646 34.3063 0.914372 30.8965C0.910099 26.496 0.910099 22.0955 1.02121 17.3559C1.05967 14.9603 0.987022 12.9038 0.914372 10.8473C1.08959 7.50494 1.26907 4.16256 1.44428 0.820176C1.64086 0.804274 1.8375 0.788363 2.03408 0.772461C2.29904 1.83358 2.56821 2.89255 2.82462 3.95582C5.30752 14.2739 10.0725 23.4334 16.6878 31.6598C17.2263 32.3298 18.2862 33.0359 16.3418 33.5087C15.5854 33.4885 15.081 33.5598 14.581 33.6312C12.1451 33.7717 9.70927 33.9127 6.91867 34.0523C6.24345 34.0562 5.91863 34.0614 5.59812 34.0665Z" fill="#1A1A1A"/>
</svg>
