<svg width="20" height="20" viewBox="0 0 20 20" fill="none" xmlns="http://www.w3.org/2000/svg">
<g clip-path="url(#clip0_3_167)">
<path d="M10.001 0.40625C4.68848 0.40625 0.407227 4.6875 0.407227 10C0.407227 15.3125 4.68848 19.625 10.001 19.625C15.3135 19.625 19.626 15.3125 19.626 10C19.626 4.6875 15.3135 0.40625 10.001 0.40625ZM10.001 18.5312C5.31348 18.5312 1.50098 14.6875 1.50098 10C1.50098 5.3125 5.31348 1.5 10.001 1.5C14.6885 1.5 18.5322 5.3125 18.5322 10C18.5322 14.6875 14.6885 18.5312 10.001 18.5312Z" fill="#DC2626"/>
<path d="M12.8755 7.125C12.6567 6.90625 12.313 6.90625 12.0942 7.125L10.0005 9.21875L7.90674 7.125C7.68799 6.90625 7.34424 6.90625 7.12549 7.125C6.90674 7.34375 6.90674 7.6875 7.12549 7.90625L9.21924 10L7.12549 12.0937C6.90674 12.3125 6.90674 12.6562 7.12549 12.875C7.21924 12.9687 7.37549 13.0312 7.50049 13.0312C7.62549 13.0312 7.78174 12.9687 7.87549 12.875L9.96924 10.7812L12.063 12.875C12.1567 12.9687 12.313 13.0312 12.438 13.0312C12.563 13.0312 12.7192 12.9687 12.813 12.875C13.0317 12.6562 13.0317 12.3125 12.813 12.0937L10.7817 10L12.8755 7.90625C13.063 7.6875 13.063 7.34375 12.8755 7.125Z" fill="#DC2626"/>
</g>
<defs>
<clipPath id="clip0_3_167">
<rect width="20" height="20" fill="white"/>
</clipPath>
</defs>
</svg>
