<svg width="50" height="50" viewBox="0 0 50 50" fill="none" xmlns="http://www.w3.org/2000/svg">
<circle cx="47.7119" cy="47.9617" r="1.74121" transform="rotate(180 47.7119 47.9617)" fill="white"/>
<circle cx="47.7119" cy="32.6385" r="1.74121" transform="rotate(180 47.7119 32.6385)" fill="white"/>
<circle cx="47.7119" cy="17.3163" r="1.74121" transform="rotate(180 47.7119 17.3163)" fill="white"/>
<circle cx="47.7119" cy="2.34216" r="1.74121" transform="rotate(180 47.7119 2.34216)" fill="white"/>
<circle cx="32.3896" cy="47.9617" r="1.74121" transform="rotate(180 32.3896 47.9617)" fill="white"/>
<circle cx="32.3896" cy="32.6384" r="1.74121" transform="rotate(180 32.3896 32.6384)" fill="white"/>
<circle cx="32.3896" cy="17.3162" r="1.74121" transform="rotate(180 32.3896 17.3162)" fill="white"/>
<circle cx="32.3896" cy="2.34204" r="1.74121" transform="rotate(180 32.3896 2.34204)" fill="white"/>
<circle cx="17.0674" cy="47.9617" r="1.74121" transform="rotate(180 17.0674 47.9617)" fill="white"/>
<circle cx="17.0674" cy="32.6384" r="1.74121" transform="rotate(180 17.0674 32.6384)" fill="white"/>
<circle cx="17.0674" cy="17.3162" r="1.74121" transform="rotate(180 17.0674 17.3162)" fill="white"/>
<circle cx="17.0674" cy="2.34204" r="1.74121" transform="rotate(180 17.0674 2.34204)" fill="white"/>
<circle cx="1.74316" cy="47.9617" r="1.74121" transform="rotate(180 1.74316 47.9617)" fill="white"/>
<circle cx="1.74316" cy="32.6384" r="1.74121" transform="rotate(180 1.74316 32.6384)" fill="white"/>
<circle cx="1.74316" cy="17.3162" r="1.74121" transform="rotate(180 1.74316 17.3162)" fill="white"/>
<circle cx="1.74316" cy="2.34204" r="1.74121" transform="rotate(180 1.74316 2.34204)" fill="white"/>
</svg>
