<svg width="20" height="20" viewBox="0 0 20 20" fill="none" xmlns="http://www.w3.org/2000/svg">
<g clip-path="url(#clip0_3_288)">
<path d="M4.84301 19.5938C4.59301 19.5938 4.34301 19.5313 4.12426 19.375C3.71801 19.0938 3.49926 18.5938 3.59301 18.0938L4.43676 12.7813L0.780514 9C0.436764 8.65625 0.311764 8.125 0.468014 7.65625C0.624264 7.1875 0.999264 6.875 1.46801 6.78125L6.56176 5.96875L8.84301 1.125C9.06176 0.6875 9.49926 0.40625 9.96801 0.40625C10.468 0.40625 10.8743 0.6875 11.093 1.125L13.4368 5.9375L18.5305 6.75C18.9993 6.8125 19.3743 7.15625 19.5305 7.625C19.6868 8.09375 19.5618 8.625 19.218 8.96875L15.5305 12.75L16.4055 18.0938C16.4993 18.5938 16.2805 19.0938 15.8743 19.375C15.4993 19.6563 14.9993 19.6875 14.5618 19.4688L9.99926 16.9688L5.43676 19.4688C5.24926 19.5625 5.06176 19.5938 4.84301 19.5938ZM1.56176 8.25L5.34301 12.125C5.53051 12.3125 5.62426 12.5938 5.56176 12.875L4.68676 18.2813C4.65551 18.4063 4.74926 18.4688 4.78051 18.5C4.84301 18.5625 4.90551 18.5313 4.93676 18.5L9.62426 15.9375C9.87426 15.8125 10.1555 15.8125 10.4055 15.9375L15.093 18.4687C15.1243 18.4687 15.1555 18.5 15.2493 18.4687C15.2805 18.4375 15.343 18.375 15.343 18.25L14.468 12.8125C14.4368 12.5313 14.4993 12.2812 14.6868 12.0625L18.4368 8.1875C18.5305 8.09375 18.4993 8 18.4993 7.9375C18.4993 7.90625 18.4368 7.8125 18.3743 7.8125L13.1243 7C12.843 6.96875 12.6243 6.78125 12.4993 6.53125L10.1555 1.59375C10.1243 1.5 10.0618 1.5 9.99926 1.5C9.96801 1.5 9.90551 1.53125 9.84301 1.59375L7.49926 6.5625C7.37426 6.8125 7.15551 7 6.87426 7.03125L1.65551 7.875C1.56176 7.875 1.53051 7.96875 1.53051 8C1.49926 8.03125 1.46801 8.15625 1.56176 8.25Z" fill="#3056D3"/>
</g>
<defs>
<clipPath id="clip0_3_288">
<rect width="20" height="20" fill="white"/>
</clipPath>
</defs>
</svg>
