<svg width="132" height="144" viewBox="0 0 132 144" fill="none" xmlns="http://www.w3.org/2000/svg">
<path d="M115.367 52.7589L115.304 53.5277L115.774 54.1392L129.477 71.9656L115.774 89.792L115.304 90.4035L115.367 91.1723L117.271 114.684L97.2396 119.861L96.3774 120.084L95.9661 120.873L85.5265 140.92L66.8779 131.81L65.997 131.379L65.1172 131.812L46.4711 140.984L36.0339 120.942L35.6226 120.152L34.7604 119.929L14.7289 114.752L16.6335 91.1719L16.6956 90.4033L16.2257 89.792L2.52094 71.9634L16.2278 54.0682L16.6954 53.4577L16.6335 52.6911L14.7293 29.1155L34.7547 24.0035L35.6209 23.7824L36.0339 22.9894L46.4735 2.94259L65.1221 12.0533L66 12.4822L66.8779 12.0533L85.5242 2.94369L95.965 23.0554L96.376 23.8471L97.2396 24.0703L117.271 29.2469L115.367 52.7589Z" stroke="#F8F200" stroke-width="4"/>
<path d="M53.1986 97.7721L47.6102 91.7031C45.3748 89.2755 43.1395 89.2755 40.9041 91.7031L35.7221 97.3307L37.9575 99.7583L43.1395 94.1307C43.8846 93.3215 44.6229 93.3142 45.3545 94.1087L45.3748 94.1307L41.4731 98.368C39.6035 100.398 39.5832 102.407 41.4121 104.393C43.3088 106.453 45.1919 106.467 47.0615 104.437L53.1986 97.7721ZM43.6881 102.009C43.3224 101.612 43.3291 101.208 43.7085 100.796L47.6102 96.5583L48.7279 97.7721L44.8261 102.009C44.4468 102.421 44.0675 102.421 43.6881 102.009ZM64.477 85.5238L61.2865 88.9886L54.4179 89.1652L53.3002 90.379L56.6532 94.0204L54.4179 96.448L45.4764 86.7376L47.7118 84.31L51.0648 87.9514L52.1825 86.7376L52.3654 79.2562L55.5355 75.8135L55.4339 85.6342L64.477 85.5238ZM62.8592 67.86L69.5653 75.1428L66.2122 78.7842C65.4671 79.5934 64.722 79.5934 63.9769 78.7842L58.3885 72.7152L56.1531 75.1428L61.7415 81.2118C63.9769 83.6393 66.2122 83.6393 68.4476 81.2118L72.9183 76.3566L75.1537 78.7842L77.4906 76.2462L73.0199 71.3911L71.8006 72.7152L65.0945 65.4324L62.8592 67.86ZM84.8119 63.4402L82.5765 65.8678L81.6214 64.8305C81.2421 66.9197 80.5105 68.5528 79.4267 69.7299C77.1914 72.1574 74.956 72.1574 72.7206 69.7299L66.929 63.4402L69.1644 61.0126L74.956 67.3023C75.6876 68.0967 76.4327 68.0967 77.1914 67.3023C78.4919 65.4779 78.8984 63.4917 78.4106 61.3436L73.6351 56.1574L75.8705 53.7298L84.8119 63.4402ZM79.9347 55.4954C78.0381 53.4356 78.0245 51.3905 79.8941 49.3602L86.0312 42.6954L94.9726 52.4057L92.7372 54.8333L89.3842 51.1919L88.3885 52.2733L88.9371 58.9602L86.0312 62.1161L85.4825 55.4292C83.6129 57.4595 81.7637 57.4816 79.9347 55.4954ZM86.0312 47.5505L82.1295 51.7878C81.7501 52.1997 81.7637 52.6264 82.1701 53.0678C82.5088 53.4356 82.8678 53.4135 83.2471 53.0016L87.1489 48.7643L86.0312 47.5505Z" fill="#F8F200"/>
</svg>
