<svg width="153" height="65" viewBox="0 0 153 65" fill="none" xmlns="http://www.w3.org/2000/svg">
<path d="M26.7176 2.8364C26.7176 4.26068 25.568 5.41507 24.1535 5.41507C22.7389 5.41507 21.5894 4.26068 21.5894 2.8364C21.5894 1.41233 22.7389 0.257812 24.1535 0.257812C25.568 0.257812 26.7176 1.41233 26.7176 2.8364Z" fill="black"/>
<path d="M26.2901 2.83631C26.2901 4.02335 25.3328 4.9852 24.1534 4.9852C22.9739 4.9852 22.0166 4.02335 22.0166 2.83631C22.0166 1.6496 22.9739 0.6875 24.1534 0.6875C25.3328 0.6875 26.2901 1.6496 26.2901 2.83631Z" fill="#454545"/>
<path d="M25.8627 2.83622C25.8627 3.7856 25.0977 4.55533 24.1532 4.55533C23.2088 4.55533 22.4438 3.7856 22.4438 2.83622C22.4438 1.88688 23.2088 1.11719 24.1532 1.11719C25.0977 1.11719 25.8627 1.88688 25.8627 2.83622Z" fill="black"/>
<path d="M25.4357 2.83612C25.4357 3.54827 24.863 4.12546 24.1536 4.12546C23.4442 4.12546 22.8716 3.54827 22.8716 2.83612C22.8716 2.12398 23.4442 1.54688 24.1536 1.54688C24.863 1.54688 25.4357 2.12398 25.4357 2.83612Z" fill="#5A5A5A"/>
<path d="M152.359 34.2105C152.359 35.6348 151.209 36.7892 149.795 36.7892C148.38 36.7892 147.23 35.6348 147.23 34.2105C147.23 32.7867 148.38 31.6318 149.795 31.6318C151.209 31.6318 152.359 32.7867 152.359 34.2105Z" fill="black"/>
<path d="M151.931 34.2104C151.931 35.3975 150.974 36.3593 149.794 36.3593C148.615 36.3593 147.658 35.3975 147.658 34.2104C147.658 33.0238 148.615 32.0615 149.794 32.0615C150.974 32.0615 151.931 33.0238 151.931 34.2104Z" fill="#454545"/>
<path d="M151.504 34.2103C151.504 35.1597 150.739 35.9294 149.794 35.9294C148.85 35.9294 148.085 35.1597 148.085 34.2103C148.085 33.2609 148.85 32.4912 149.794 32.4912C150.739 32.4912 151.504 33.2609 151.504 34.2103Z" fill="black"/>
<path d="M151.077 34.2102C151.077 34.9224 150.504 35.4996 149.795 35.4996C149.085 35.4996 148.513 34.9224 148.513 34.2102C148.513 33.4981 149.085 32.9209 149.795 32.9209C150.504 32.9209 151.077 33.4981 151.077 34.2102Z" fill="#5A5A5A"/>
<path d="M135.265 50.9712C135.265 52.3955 134.115 53.5499 132.701 53.5499C131.286 53.5499 130.137 52.3955 130.137 50.9712C130.137 49.5474 131.286 48.3926 132.701 48.3926C134.115 48.3926 135.265 49.5474 135.265 50.9712Z" fill="black"/>
<path d="M134.837 50.9712C134.837 52.1582 133.88 53.12 132.701 53.12C131.521 53.12 130.564 52.1582 130.564 50.9712C130.564 49.7845 131.521 48.8223 132.701 48.8223C133.88 48.8223 134.837 49.7845 134.837 50.9712Z" fill="#454545"/>
<path d="M134.41 50.9711C134.41 51.9204 133.645 52.6902 132.701 52.6902C131.756 52.6902 130.991 51.9204 130.991 50.9711C130.991 50.0217 131.756 49.252 132.701 49.252C133.645 49.252 134.41 50.0217 134.41 50.9711Z" fill="black"/>
<path d="M133.983 50.971C133.983 51.6831 133.41 52.2603 132.701 52.2603C131.992 52.2603 131.419 51.6831 131.419 50.971C131.419 50.2588 131.992 49.6816 132.701 49.6816C133.41 49.6816 133.983 50.2588 133.983 50.971Z" fill="#5A5A5A"/>
<path d="M5.77762 61.7164C5.77762 63.1406 4.62805 64.295 3.21352 64.295C1.79899 64.295 0.649414 63.1406 0.649414 61.7164C0.649414 60.2925 1.79899 59.1377 3.21352 59.1377C4.62805 59.1377 5.77762 60.2925 5.77762 61.7164Z" fill="black"/>
<path d="M5.35016 61.7163C5.35016 62.9033 4.3929 63.8652 3.21341 63.8652C2.03393 63.8652 1.07666 62.9033 1.07666 61.7163C1.07666 60.5297 2.03393 59.5674 3.21341 59.5674C4.3929 59.5674 5.35016 60.5297 5.35016 61.7163Z" fill="#454545"/>
<path d="M4.92271 61.7162C4.92271 62.6656 4.15775 63.4353 3.21331 63.4353C2.26886 63.4353 1.50391 62.6656 1.50391 61.7162C1.50391 60.7668 2.26886 59.9971 3.21331 59.9971C4.15775 59.9971 4.92271 60.7668 4.92271 61.7162Z" fill="black"/>
<path d="M4.49574 61.7161C4.49574 62.4282 3.92309 63.0054 3.21369 63.0054C2.50429 63.0054 1.93164 62.4282 1.93164 61.7161C1.93164 61.0039 2.50429 60.4268 3.21369 60.4268C3.92309 60.4268 4.49574 61.0039 4.49574 61.7161Z" fill="#5A5A5A"/>
</svg>
