<svg width="439" height="217" viewBox="0 0 439 217" fill="none" xmlns="http://www.w3.org/2000/svg">
<path d="M12.5387 177.073C18.8379 176.345 25.0131 175.657 31.2909 175.121C32.8422 174.988 34.3934 174.85 35.9447 174.703C40.808 174.241 45.6627 173.682 50.5345 173.327C61.0644 172.559 71.5985 171.886 82.1327 171.199C83.4789 171.111 84.8379 171.204 86.1883 171.153C97.4661 170.726 108.744 170.304 120.017 169.842C125.829 169.604 131.633 169.213 137.445 169.022C151.928 168.544 166.41 168.172 180.889 167.696C186.915 167.498 192.932 167.075 198.958 166.876C205.616 166.654 212.278 166.579 218.936 166.426C224.693 166.293 230.445 166.132 236.197 165.998C248.769 165.707 261.342 165.423 273.915 165.139C286.688 164.85 299.458 164.597 312.227 164.266C321.03 164.038 329.825 163.698 338.628 163.422C343.594 163.266 348.581 162.827 353.53 163.058C364.218 163.556 374.893 164.326 385.56 165.145C390.487 165.524 395.466 166.328 400.573 166.926C398.56 171.482 396.265 176.928 393.735 181.538C389.505 181.731 385.616 181.784 381.71 181.886C370.274 182.185 358.834 182.455 347.393 182.761C337.59 183.023 327.791 183.327 317.987 183.599C307.334 183.895 296.675 184.193 286.022 184.459C278.91 184.636 271.804 184.732 264.697 184.91C254.252 185.173 243.812 185.476 233.368 185.763C222.996 186.047 212.624 186.338 202.252 186.614C191.244 186.908 180.231 187.202 169.218 187.472C156.851 187.776 144.487 188.047 132.124 188.342C126.581 188.474 121.039 188.627 115.5 188.772C104.628 189.058 93.7609 189.338 82.8892 189.635C72.8763 189.908 62.8592 190.227 52.8464 190.476C40.0515 190.795 27.261 191.064 14.4661 191.359C13.7567 191.375 13.0473 191.438 12.3379 191.48C12.3635 186.977 12.4917 181.768 12.5387 177.073Z" fill="#738C76"/>
<path d="M413.214 53.6988C421.402 53.7427 429.483 54.0108 437.752 53.8939C439.449 49.453 438.41 45.0573 437.269 40.928L437.261 40.8884C433.569 27.524 428.073 14.9174 421.423 2.79073C420.56 1.2186 419.509 0.619917 417.684 0.738106C410.017 1.23493 402.346 1.65955 394.671 1.97544C376.398 2.72712 358.124 3.46376 339.846 4.08952C323.628 4.64436 307.406 5.09047 291.188 5.49747C267.851 6.08283 244.513 6.66776 221.171 7.10699C199.607 7.51227 178.039 7.78991 156.47 8.00394C138.248 8.18488 120.026 8.19218 101.799 8.28157C99.3334 8.29361 99.0471 8.66365 99.4702 11.2733C102.039 11.9012 105.974 9.68953 106.128 14.7841C110.436 16.3623 114.906 18.1596 119.201 19.767C121.12 20.4843 123.064 21.1766 124.872 22.1222C125.863 22.6405 127.03 23.5417 127.291 24.4993C127.474 25.1573 126.385 26.374 125.615 27.0556C122.829 29.5191 119.265 29.9287 115.799 30.5793C110.004 31.6671 104.752 29.6923 99.5172 27.6783C96.4788 26.5098 93.4788 25.2355 90.4916 23.9487C89.9446 23.7132 89.7352 23.075 89.0343 22.5201C85.0044 22.203 84.3377 21.8505 84.3249 18.038C84.3206 16.8217 84.2864 15.6041 84.3249 14.3892C84.3762 12.6765 85.3078 11.7568 86.9916 11.6734C88.2693 11.6098 89.5514 11.6463 90.8334 11.6235C93.2266 11.5806 93.4275 11.3382 93.1582 8.62067C92.5001 8.58801 91.8121 8.5244 91.1198 8.52483C76.6796 8.53644 62.2351 8.58501 47.7907 8.54375C45.3975 8.5373 43.3548 8.99931 41.5898 10.7605C40.1839 12.1629 38.3975 13.1888 37.0386 14.626C33.9189 17.9146 30.2053 19.1399 25.748 18.8395C24.5642 18.7596 23.0471 19.3978 22.1454 20.2191C19.7779 22.3676 17.5001 24.6609 15.4873 27.1437C9.22234 34.8784 5.04714 43.7903 1.60697 53.0688C1.17107 54.2451 1.21805 55.433 0.987277 56.6875C8.30779 56.5285 15.53 56.5044 22.8505 56.345C29.389 56.2027 35.9232 56.0463 42.4617 55.9195C50.5642 55.7622 58.6668 55.6423 66.7694 55.4815C72.9488 55.3591 79.1283 55.1871 85.3078 55.0574C92.6283 54.9039 99.9488 54.7698 107.269 54.6306C115.086 54.4823 122.902 54.3491 130.722 54.1871C136.547 54.0667 142.368 53.8944 148.192 53.7758C156.154 53.6142 164.116 53.4865 172.073 53.3348C179.18 53.1994 186.286 53.0443 193.393 52.9097C201.355 52.7589 209.312 52.6295 217.274 52.4748C223.953 52.345 230.633 52.189 237.308 52.0493C244.342 51.9019 251.38 51.7614 258.415 51.6157C265.162 51.4756 271.915 51.3277 278.662 51.1919C286.124 51.0419 293.586 50.9065 301.047 50.7553C307.727 50.6199 314.406 50.4944 321.086 50.319C323.919 50.2447 326.752 50.0191 329.59 49.9447C330.239 49.9275 330.902 50.2481 331.56 50.4136L331.492 50.9302C331.184 51.0196 330.88 51.1739 330.568 51.1876C326.88 51.3462 323.192 51.5555 319.504 51.6135C307.769 51.7983 296.039 51.9088 284.308 52.0798C276.492 52.1937 268.671 52.3635 260.855 52.5058C252.825 52.6519 244.791 52.783 236.761 52.9549C235.778 52.9759 234.616 53.2119 233.449 53.3494C232.714 53.3486 231.983 53.3477 231.068 53.3498C219.432 53.3395 204.718 53.6228 193.124 53.7981C187.231 53.8871 181.333 54.102 175.44 54.2077C165.983 54.377 156.53 54.4836 147.073 54.6538C141.18 54.7599 135.282 54.9482 129.389 55.0745C122.069 55.2318 114.748 55.3582 107.432 55.5078C100.752 55.644 94.0728 55.788 87.3933 55.938C81.3548 56.0738 75.3206 56.25 69.2822 56.3591C60.0386 56.5263 50.7993 56.6402 41.5557 56.7967C33.9531 56.9256 26.3463 57.0743 18.7437 57.2316C12.9189 57.3519 7.10695 57.4865 1.00011 57.7619C0.713785 58.9516 0.816349 60.1451 1.00011 61.2002C10.8463 60.9298 20.389 60.5228 30.0471 60.2473L30.4616 60.2353C35.5556 60.0901 40.6539 59.9267 45.748 59.8043C52.5001 59.6422 59.248 59.4609 66.0001 59.3835C72.2394 59.3117 78.4873 59.4763 84.7266 59.3324C90.436 59.2004 96.1411 58.658 101.855 58.5355C118.628 58.1771 135.406 57.9343 152.184 57.6524C161.141 57.5019 170.103 57.3747 179.06 57.2166C186.167 57.0915 193.274 56.9359 200.38 56.7924C207.415 56.6497 214.449 56.4425 221.487 56.3738C239.915 56.1933 258.346 56.0703 276.778 55.9302C279.239 55.9113 281.705 55.9668 284.167 55.9156C289.658 55.8013 295.15 55.5851 300.641 55.5159C306.308 55.4446 311.974 55.5542 317.641 55.4824C323.68 55.4063 329.718 55.2267 335.757 55.0457C336.517 55.023 337.269 54.7191 338.026 54.5455L337.966 54.3237C337.141 53.5738 336.453 52.7047 335.402 51.9599C334.21 47.7378 335.466 44.9408 339.658 43.9429C342.487 43.2707 345.389 42.9294 348.257 42.4373C353.833 41.4807 359.393 40.4066 364.987 39.5914C372.782 38.4555 380.513 38.8655 388.282 40.3882C392.838 41.2808 397.607 41.0453 402.265 41.4652C404.581 41.6736 406.872 42.1627 409.158 42.6166C413.214 43.4215 414.419 47.7541 412.62 52.2616C412.543 52.4593 412.509 52.6747 412.543 53.1685C412.829 53.5398 413.022 53.6975 413.214 53.6988Z" fill="#738C76"/>
<path d="M106.128 14.7842C110.47 16.1844 114.94 18.1721 119.239 19.7795C121.154 20.4968 123.103 21.1892 124.91 22.1347C125.902 22.653 127.064 23.5538 127.329 24.5118C127.509 25.1698 126.423 26.3865 125.65 27.0681C122.863 29.5316 119.299 29.9412 115.833 30.5919C110.038 31.6796 104.786 29.7048 99.5513 27.6909C96.5128 26.5223 93.5171 25.248 90.5256 23.9612C89.9786 23.7257 89.5513 23.0535 89.0342 22.5202C93.0427 22.3191 97.0855 22.4016 101.132 22.3547C105.927 22.2993 106.88 21.239 106.393 16.4504C106.359 16.0963 106.141 15.315 106.128 14.7842Z" fill="#526454"/>
<path d="M437.752 53.8937C436.235 60.1027 434.991 66.1502 433.312 72.3153C430.184 83.8287 427.299 95.4352 423.547 106.748C418.316 122.521 412.444 138.083 406.701 153.683C405.064 158.135 402.782 162.491 400.573 166.928C395.355 166.429 390.602 165.593 385.675 165.217C375.008 164.402 364.333 163.637 353.649 163.141C348.696 162.912 343.714 163.348 338.743 163.503C329.944 163.778 321.145 164.116 312.346 164.342C299.577 164.671 286.808 164.924 274.034 165.211C261.461 165.493 248.889 165.775 236.316 166.065C230.564 166.198 224.812 166.359 219.06 166.49C212.402 166.643 205.739 166.717 199.081 166.937C193.055 167.136 187.038 167.555 181.013 167.753C166.534 168.226 152.051 168.597 137.572 169.071C131.761 169.262 125.957 169.65 120.145 169.887C108.872 170.346 97.5939 170.766 86.3204 171.191C84.97 171.241 83.611 171.149 82.2606 171.237C71.7264 171.92 61.1922 172.589 50.6622 173.352C45.7947 173.705 40.94 174.261 36.0768 174.72C34.5255 174.866 32.9742 175.004 31.4229 175.135C25.1451 175.67 18.8161 176.925 12.5383 177.458C12.4999 168.471 9.7392 159.219 8.28193 150.467C6.55116 140.096 4.94005 129.692 3.74347 119.248C1.70501 101.49 0.81611 83.6494 0.90158 65.7672C0.910127 64.275 0.828922 62.877 0.999862 61.2026C11.0255 60.7427 20.7947 60.3696 30.5939 60.0916C35.6879 59.9467 40.7819 59.7843 45.8802 59.6627C52.6281 59.5015 59.3802 59.3214 66.1281 59.244C72.3717 59.1731 78.6152 59.3364 84.8546 59.1933C90.5682 59.0622 96.2691 58.5229 101.983 58.4013C118.756 58.0445 135.534 57.8034 152.312 57.5232C161.269 57.3732 170.226 57.2469 179.184 57.0896C186.29 56.9649 193.397 56.8106 200.504 56.6675C207.538 56.5261 214.572 56.3203 221.607 56.2515C240.038 56.0718 258.466 55.9498 276.897 55.8105C279.359 55.7921 281.825 55.8466 284.286 55.7959C289.778 55.6825 295.269 55.4672 300.761 55.3988C306.427 55.3279 312.094 55.4366 317.761 55.3653C323.799 55.2897 329.837 55.1109 335.872 54.9312C336.632 54.9084 337.286 54.4567 338.179 54.3235C341.376 54.9239 344.521 55.737 347.602 56.166C350.543 56.576 353.645 56.3014 356.461 57.0964C365.329 59.6016 374.269 59.7731 383.265 58.4653C388.735 57.6706 394.115 56.5867 399.701 56.3955C404.055 56.2463 408.624 55.8325 412.538 53.0342C412.872 53.2495 413.137 53.5907 413.329 53.592C421.517 53.6354 429.564 53.8624 437.752 53.8937Z" fill="#5C715F"/>
<path d="M19.0086 216.078C17.0427 210.106 14.9829 204.165 13.1709 198.146C12.594 196.22 12.2991 193.642 12.3248 191.426C16.6111 191.108 21.1026 191.119 25.1453 190.996C34.7991 190.704 44.3846 190.693 54.0385 190.435C65.5385 190.127 77.0427 189.426 88.547 189.146C100.406 188.856 112.269 188.576 124.128 188.289C129.876 188.15 135.628 188.01 141.38 187.859C146.423 187.726 151.462 187.571 156.5 187.438C167.436 187.148 178.368 186.866 189.303 186.58C194.628 186.44 199.953 186.284 205.278 186.156C217.491 185.863 229.705 185.596 241.923 185.293C252.641 185.027 263.363 184.735 274.081 184.441C284.09 184.166 294.098 184.301 304.107 184.019C314.329 183.731 324.551 183.004 334.774 182.74C341.38 182.569 347.987 182.455 354.594 182.305C360.487 182.171 366.38 182.013 372.274 181.884C379.308 181.73 386.701 181.684 393.735 181.541C391.081 186.055 388.41 191.165 385.316 195.357C381.816 200.107 377.611 204.341 373.385 208.792C372.081 208.648 371.103 208.379 370.124 208.397C364.872 208.492 359.615 208.676 354.363 208.794C341.077 209.092 327.791 209.425 314.504 209.636C306.632 209.76 298.756 209.581 290.889 209.722C285.645 209.817 280.41 210.323 275.171 210.49C268.064 210.717 260.957 210.786 253.855 210.939C247.744 211.069 241.637 211.27 235.526 211.356C222.94 211.531 210.35 211.653 197.761 211.792C194.944 211.823 192.124 211.737 189.312 211.879C186.56 212.019 183.821 212.556 181.068 212.618C165.821 212.963 150.568 213.213 135.321 213.505C128.5 213.635 121.68 213.779 114.859 213.931C109.034 214.062 103.209 214.211 97.3846 214.358C91.9915 214.495 86.594 214.649 81.1966 214.78C74.9615 214.933 68.7308 215.078 62.4957 215.21C55.3205 215.362 48.141 215.496 40.9658 215.638C33.6453 215.784 26.3291 215.931 19.0086 216.078Z" fill="#5C705F"/>
<path d="M227.923 53.4672C216.334 53.6103 204.898 53.7229 193.308 53.897C187.41 53.9855 181.47 54.2219 175.573 54.3267C166.12 54.4952 156.607 54.5872 147.154 54.7565C141.257 54.8622 135.316 55.0604 129.419 55.1863C122.098 55.3427 114.731 55.4674 107.41 55.6161C100.731 55.7514 94.2181 55.8967 87.5386 56.0458C81.5002 56.1808 75.4147 56.3673 69.3762 56.4756C60.1369 56.6415 50.8378 56.7498 41.5985 56.9054C33.9959 57.0335 26.5514 57.1792 18.9489 57.3352C13.1241 57.4547 7.03863 57.6468 1.00017 57.765C1.00017 57.3326 0.974525 56.9914 1.00017 56.6905C8.34632 56.4051 15.6668 56.3824 22.983 56.2238C29.5215 56.0824 36.0557 55.9268 42.5899 55.8009C50.6924 55.6449 58.795 55.5254 66.8976 55.3655C73.0771 55.2439 79.2566 55.0728 85.4403 54.9439C92.7566 54.7909 100.077 54.6577 107.398 54.5193C115.214 54.3719 123.03 54.2395 130.846 54.0783C136.671 53.9588 142.496 53.7873 148.321 53.6696C156.282 53.5084 164.239 53.3816 172.201 53.2308C179.308 53.0963 186.41 52.942 193.517 52.8083C201.475 52.6583 209.436 52.5298 217.398 52.376C224.077 52.2466 230.752 52.0919 237.432 51.9526C244.466 51.8061 251.5 51.6664 258.534 51.5216C265.282 51.3823 272.034 51.2353 278.782 51.1004C286.244 50.9508 293.705 50.8163 301.167 50.6659C307.846 50.5314 314.526 50.4063 321.201 50.2322C324.039 50.1583 326.872 49.934 329.705 49.86C330.359 49.8429 331.017 50.1617 331.675 50.3263C331.654 50.4974 331.697 50.7746 331.675 50.9461C331.368 51.0346 331.013 51.305 330.701 51.3183C327.013 51.476 323.278 51.69 319.59 51.7481C307.859 51.932 296.064 52.0076 284.334 52.1778C276.517 52.2913 268.859 52.4662 261.043 52.6076C253.013 52.7529 244.928 52.8663 236.898 53.0374C235.915 53.0585 235.073 53.3305 233.906 53.4672C232.992 53.4685 232.017 53.4659 230.915 53.4672C229.675 53.471 228.795 53.465 227.923 53.4672Z" fill="#5C715F"/>
</svg>
