<svg width="484" height="35" viewBox="0 0 484 35" fill="none" xmlns="http://www.w3.org/2000/svg">
<path d="M83.0985 7.32736C75.7779 7.47392 68.2523 7.47004 60.9489 7.77991H59.0258L58.6326 7.8547C51.2779 9.24976 44.0856 10.6147 36.9403 12.0927C36.1113 12.2651 35.4147 13.1152 34.8591 13.6838L34.2395 14.8713H27.8292L27.4276 15.6083C26.9361 16.2934 26.5515 17.03 25.9574 17.2991C18.4019 20.7244 10.9489 24.3474 4.14976 29.1575C2.41899 30.3807 0.436077 31.5673 0.265137 34.0355C3.44462 33.5417 6.66257 33.2017 9.66685 32.707C12.4318 32.4552 14.9831 32.0482 17.5728 31.7534C17.8207 31.5815 18.0643 31.41 18.5173 31.3098C18.9147 31.3631 19.3121 31.4353 19.4959 31.4177C21.9916 31.18 24.4318 30.978 26.7609 30.5582C31.4959 30.541 36.3036 30.2986 40.8634 30.1284C46.5215 29.8658 51.9788 29.485 57.4404 29.292C67.0985 28.9512 76.7566 28.6684 86.419 28.423C94.0985 28.2275 101.778 28.1535 109.457 27.973C120.47 27.7143 131.483 27.4031 142.5 27.1225C148.47 26.9708 154.44 26.8371 160.41 26.6945C166.381 26.5518 172.346 26.3872 178.316 26.269C186.564 26.1061 194.816 25.9853 203.064 25.8319C209.381 25.7146 215.692 25.5839 222.009 25.4533L224.393 25.4038C231.218 25.2624 238.043 25.1193 244.868 24.968C250.979 24.8331 257.094 24.6844 263.205 24.5451C269.603 24.3994 276 24.2477 282.398 24.1167C289.863 23.9632 297.329 23.8356 304.795 23.6843C311.406 23.5506 318.017 23.3938 324.628 23.2584C332.022 23.1071 339.415 22.9816 346.812 22.8209C359.462 22.5458 372.116 22.2484 384.765 21.9669C391.517 21.8165 398.274 21.6583 405.026 21.5406C414.628 21.3729 424.466 21.406 434.026 21.103C438.269 21.2401 442.419 21.1245 446.419 21.103C450.043 21.1262 453.68 21.094 457.103 21.103C460.859 21.2801 464.65 21.5724 468.214 21.5328C473.445 22.2041 478.41 22.5939 483.402 22.9455C482.278 22.0399 481.269 21.1095 480.09 20.522C467.957 14.4625 455.363 9.63569 442.158 6.49057C441.137 6.24689 430.838 3.35147 429.838 3.01324C426.436 2.9737 423.026 2.81725 419.633 2.53574C418.893 2.47429 416.24 0.898294 415.398 0.478401C414.231 0.297034 413.248 0.0271455 412.274 0.0447664C407.017 0.139747 401.765 0.325848 396.509 0.444037C383.222 0.743593 369.94 1.07924 356.65 1.29069C348.778 1.41575 340.902 1.23483 333.03 1.37751C327.791 1.4725 322.556 1.98178 317.312 2.14982C310.21 2.37761 303.103 2.44764 295.996 2.60064C289.885 2.73258 283.778 2.93415 277.667 3.02011C265.081 3.19718 252.492 3.31966 239.902 3.45891C237.086 3.49029 234.261 3.40349 231.453 3.5466C228.697 3.68714 225.957 4.22694 223.205 4.28969C207.957 4.63738 192.705 4.88835 177.457 5.18146C170.637 5.31254 163.816 5.45697 156.996 5.6104C151.577 5.73289 146.163 5.87085 140.748 6.00881H140.744L139.522 6.04018C134.124 6.17771 128.727 6.332 123.329 6.46437C117.098 6.61737 110.863 6.76347 104.628 6.89627C97.4532 7.04927 90.2737 7.18339 83.0985 7.32736Z" fill="#5C715F"/>
<path d="M83.0985 7.32736C75.7779 7.47392 68.2523 7.47004 60.9489 7.77991H59.0258L58.6326 7.8547C51.2779 9.24976 44.0856 10.6147 36.9403 12.0927C36.1113 12.2651 35.4147 13.1152 34.8591 13.6838L34.2395 14.8713H27.8292L27.4276 15.6083C26.9361 16.2934 26.5515 17.03 25.9574 17.2991C18.4019 20.7244 10.9489 24.3474 4.14976 29.1575C2.41899 30.3807 0.436077 31.5673 0.265137 34.0355C3.44462 33.5417 6.66257 33.2017 9.66685 32.707C12.4318 32.4552 14.9831 32.0482 17.5728 31.7534C17.8207 31.5815 18.0643 31.41 18.5173 31.3098C18.9147 31.3631 19.3121 31.4353 19.4959 31.4177C21.9916 31.18 24.4318 30.978 26.7609 30.5582C31.4959 30.541 36.3036 30.2986 40.8634 30.1284C46.5215 29.8658 51.9788 29.485 57.4404 29.292C67.0985 28.9512 76.7566 28.6684 86.419 28.423C94.0985 28.2275 101.778 28.1535 109.457 27.973C120.47 27.7143 131.483 27.4031 142.5 27.1225C148.47 26.9708 154.44 26.8371 160.41 26.6945C166.381 26.5518 172.346 26.3872 178.316 26.269C186.564 26.1061 194.816 25.9853 203.064 25.8319C209.381 25.7146 215.692 25.5839 222.009 25.4533L224.393 25.4038C231.218 25.2624 238.043 25.1193 244.868 24.968C250.979 24.8331 257.094 24.6844 263.205 24.5451C269.603 24.3994 276 24.2477 282.398 24.1167C289.863 23.9632 297.329 23.8356 304.795 23.6843C311.406 23.5506 318.017 23.3938 324.628 23.2584C332.022 23.1071 339.415 22.9816 346.812 22.8209C359.462 22.5458 372.116 22.2484 384.765 21.9669C391.517 21.8165 398.274 21.6583 405.026 21.5406C414.628 21.3729 424.466 21.406 434.026 21.103C438.269 21.2401 442.419 21.1245 446.419 21.103C450.043 21.1262 453.68 21.094 457.103 21.103C460.859 21.2801 464.65 21.5724 468.214 21.5328C473.445 22.2041 478.41 22.5939 483.402 22.9455C482.278 22.0399 481.269 21.1095 480.09 20.522C467.957 14.4625 455.363 9.63569 442.158 6.49057C441.137 6.24689 430.838 3.35147 429.838 3.01324C426.436 2.9737 423.026 2.81725 419.633 2.53574C418.893 2.47429 416.24 0.898294 415.398 0.478401C414.231 0.297034 413.248 0.0271455 412.274 0.0447664C407.017 0.139747 401.765 0.325848 396.509 0.444037C383.222 0.743593 369.94 1.07924 356.65 1.29069C348.778 1.41575 340.902 1.23483 333.03 1.37751C327.791 1.4725 322.556 1.98178 317.312 2.14982C310.21 2.37761 303.103 2.44764 295.996 2.60064C289.885 2.73258 283.778 2.93415 277.667 3.02011C265.081 3.19718 252.492 3.31966 239.902 3.45891C237.086 3.49029 234.261 3.40349 231.453 3.5466C228.697 3.68714 225.957 4.22694 223.205 4.28969C207.957 4.63738 192.705 4.88835 177.457 5.18146C170.637 5.31254 163.816 5.45697 156.996 5.6104C151.577 5.73289 146.163 5.87085 140.748 6.00881H140.744L139.522 6.04018C134.124 6.17771 128.727 6.332 123.329 6.46437C117.098 6.61737 110.863 6.76347 104.628 6.89627C97.4532 7.04927 90.2737 7.18339 83.0985 7.32736Z" fill="url(#paint0_radial_53_153)"/>
<defs>
<radialGradient id="paint0_radial_53_153" cx="0" cy="0" r="1" gradientUnits="userSpaceOnUse" gradientTransform="translate(237.872 33.9964) rotate(-91.6044) scale(30.5262 281.682)">
<stop/>
<stop offset="1" stop-opacity="0"/>
</radialGradient>
</defs>
</svg>
