<svg width="80" height="22" viewBox="0 0 80 22" fill="none" xmlns="http://www.w3.org/2000/svg">
<path d="M4.06856 16.4906C3.08138 15.6792 2.23095 14.9078 1.28651 14.04C-0.145116 9.81619 1.37198 6.84642 5.56429 5.84847C8.39335 5.1763 11.2951 4.83549 14.1626 4.34297C19.7395 3.38628 25.2993 2.31226 30.8934 1.49697C38.6882 0.361066 46.419 0.771076 54.1882 2.29378C58.7438 3.18643 63.513 2.9509 68.1711 3.3708C70.4874 3.57924 72.778 4.06833 75.0643 4.52218C79.1199 5.32715 80.5472 9.66319 78.7523 14.1707C78.6754 14.3684 78.6284 14.8837 78.5301 15.2452C74.7096 18.3464 69.8506 18.2742 65.4959 18.4238C59.9104 18.6163 54.5258 19.7062 49.0558 20.5056C40.06 21.8208 31.1199 21.6484 22.2481 19.1286C19.4361 18.3292 16.3335 18.6056 13.3934 18.193C10.3122 17.7615 7.26514 17.094 4.06856 16.4906ZM4.05573 8.16499C3.85915 8.41297 3.67967 8.40007 3.21386 8.83114C1.40617 11.2783 1.80359 12.8723 4.69676 14.8265C5.08137 15.0083 5.44036 15.5314 5.8378 15.5821C9.6925 16.0725 13.5472 16.617 17.419 16.9286C18.6626 17.0283 19.9831 16.5796 21.2139 16.2079C22.9233 15.6921 24.5686 14.539 26.2652 14.4853C33.137 14.267 40.0215 14.3783 46.9019 14.3306C47.7181 14.325 48.5386 14.0895 49.7309 13.9623C50.6027 13.9618 51.2566 13.7547 52.3463 13.967C53.6839 14.7096 55.2224 15.6844 56.5728 16.3892C57.107 16.666 57.7224 17.0051 58.278 16.9707C63.0771 16.6746 67.8891 16.4644 72.6498 15.8541C74.2224 15.6526 75.4233 14.4118 77.1327 13.3223C77.2139 11.8392 77.4745 10.5515 77.56 8.80965C77.3506 8.45165 77.2352 8.18991 76.919 7.52032C75.0985 6.82236 73.278 5.44276 71.3934 5.15567C68.1711 4.66487 64.8506 4.82818 61.6241 4.3696C58.3293 3.90158 56.4062 5.09723 54.0557 7.52032C51.9275 7.60756 49.1882 7.50827 47.06 7.53535C39.1668 7.63506 31.1968 8.03777 23.0728 7.9501C21.8421 7.18767 20.7224 5.80121 19.4403 5.58632C14.3079 5.64777 9.16257 6.18156 4.05573 8.16499ZM48.637 2.79576C39.778 1.86615 31.0258 2.03462 22.4489 5.27214C23.3934 5.9701 24.4019 6.56836 25.4019 6.56062C34.1412 6.49573 42.8805 6.36894 51.6199 6.12267C52.7523 6.09044 53.8634 5.27301 54.9874 4.81916C54.919 4.52519 54.8549 4.23122 54.7865 3.93725C52.8635 3.5685 50.9404 3.19975 48.637 2.79576ZM28.2395 15.7239C26.2908 15.8756 24.1198 15.209 22.2694 17.5724C33.4916 20.4072 44.2951 20.4614 55.1968 17.2002C53.8677 16.3587 52.4618 15.6917 51.0515 15.6775C43.59 15.6019 36.1241 15.6904 28.2395 15.7239Z" fill="#1A1A1A"/>
<path d="M52.3462 13.9671C53.0556 13.7234 53.9787 13.5751 54.7949 13.5713C62.1154 13.5394 69.6111 13.3155 77.1325 13.3224C75.8376 14.1252 74.265 15.6798 72.6496 15.8542C67.8889 16.4645 63.077 16.6747 58.2778 16.9708C57.7223 17.0052 57.1069 16.6661 56.5727 16.3893C55.2223 15.6845 53.7906 14.8159 52.3462 13.9671Z" fill="#445446"/>
<path d="M77.5596 8.80957C77.4826 10.2927 77.5211 11.6998 77.1322 13.3222C69.5083 13.4623 62.1151 13.5393 54.7946 13.5711C53.9783 13.5749 53.1621 13.8294 52.3459 13.9669C51.4741 13.9669 50.551 14.0864 49.3544 13.9712C48.8288 13.8006 48.675 13.5745 48.4698 13.5767C36.0382 13.7159 23.6066 13.8285 11.1792 14.043C8.94419 14.0816 6.7134 14.5656 4.48263 14.8308C1.79459 13.1284 1.12365 11.2163 3.20058 8.81386C5.86724 8.9501 8.54676 9.10783 11.1322 9.1998C12.8929 9.19894 14.4613 9.19722 16.1579 9.31971C17.0553 9.51956 17.8245 9.67213 18.5937 9.66052C26.8288 9.5389 35.0639 9.37215 43.2989 9.25568C54.7348 9.09451 66.1237 8.95226 77.5596 8.80957Z" fill="#708873"/>
<path d="M48.8248 2.81782C50.9402 3.20419 52.8633 3.56865 54.7864 3.9374C54.8547 4.23137 54.9188 4.52534 54.9872 4.81931C53.8633 5.27315 52.7522 6.09059 51.6197 6.12282C42.8804 6.36908 34.1411 6.49587 25.4017 6.56077C24.4017 6.5685 23.3932 5.97025 22.4487 5.27229C31.0257 2.03477 39.7778 1.87016 48.8248 2.81782Z" fill="#6B826E"/>
<path d="M28.4491 15.7272C36.1243 15.6946 43.5901 15.6017 51.0516 15.6774C52.4619 15.6916 53.8678 16.3586 55.1969 17.2001C44.2952 20.4612 33.4918 20.4071 22.2695 17.5723C24.12 15.2089 26.2909 15.8798 28.4491 15.7272Z" fill="#5B705E"/>
<path d="M77.56 8.80976C66.1241 9.08181 54.7352 9.0947 43.2993 9.25587C35.0643 9.37234 26.8292 9.53909 18.5942 9.66071C17.8249 9.67232 15.7138 9.55026 14.9531 9.24383C16.7224 8.95287 19.8292 8.94471 21.5685 8.75732C22.201 8.68899 22.6839 8.08042 23.2865 7.73961C31.1796 7.66267 39.1668 7.63517 47.06 7.53546C49.1882 7.50838 51.3164 7.37387 53.8036 7.44564C55.06 7.72457 55.9617 7.9631 56.8634 7.94634C63.5685 7.82256 70.2138 7.67859 76.9189 7.52043C77.1326 7.878 77.3506 8.32239 77.56 8.80976Z" fill="#819284"/>
<path d="M4.48291 14.8313C6.61112 14.4402 8.94447 14.0821 11.1795 14.0435C23.6069 13.829 36.0385 13.7164 48.4701 13.5772C48.6752 13.575 49.0171 13.8015 49.3547 13.9717C48.6752 14.2154 47.718 14.3254 46.9017 14.331C40.0214 14.3787 33.1368 14.2674 26.265 14.4857C24.5684 14.5394 22.9231 15.6925 21.2137 16.2083C19.9829 16.58 18.6624 17.0287 17.4188 16.929C13.547 16.6174 9.69233 16.0729 5.83763 15.5825C5.44019 15.5318 4.97009 15.139 4.48291 14.8313Z" fill="#445446"/>
<path d="M76.9185 7.52029C70.2647 7.83445 63.5681 7.82242 56.863 7.94619C55.9613 7.96296 55.0596 7.72485 53.9741 7.52501C55.7946 4.86382 58.3288 3.90154 61.6237 4.36957C64.8502 4.82814 68.1707 4.66483 71.3929 5.15564C73.2775 5.44273 75.0467 6.66632 76.9185 7.52029Z" fill="#A2A2A2"/>
<path d="M23.0597 7.88712C22.5725 8.31002 21.9742 8.8365 21.3417 8.9044C19.5981 9.09222 17.8332 9.06986 15.94 9.23705C14.2349 9.34449 13.1366 9.54606 11.3075 9.39134C10.2605 9.06772 9.01691 8.65814 8.22203 8.54253C6.85024 8.34225 5.64938 8.12049 4.26904 7.95373C9.12802 5.99222 14.0938 5.65141 19.2263 5.58995C20.4528 5.57534 21.7093 7.04217 23.0597 7.88712Z" fill="#A2A2A2"/>
<path d="M4.26955 7.9541C5.76955 8.10968 7.07725 8.19478 8.44905 8.39505C9.24392 8.51066 10.0431 8.92024 10.8935 9.24344C8.56869 9.3079 5.73536 9.04144 3.20117 8.81366C3.261 8.42901 3.94904 8.21326 4.26955 7.9541Z" fill="#819284"/>
</svg>
