<svg width="79" height="61" viewBox="0 0 79 61" fill="none" xmlns="http://www.w3.org/2000/svg">
<path d="M65.8277 49.0587C56.8606 48.7437 48.0649 48.457 39.2705 48.1356C37.1474 48.0578 35.0286 47.8601 32.9072 47.723C29.6452 47.5128 26.2884 43.8172 26.0542 39.8275C25.6572 33.0633 25.4884 26.2852 25.114 19.5192C24.9914 17.3076 25.8324 16.6878 27.9499 16.742C33.07 16.8726 38.1978 16.8645 43.3183 16.7437C45.1957 16.6994 46.3858 17.4056 47.385 18.8934C52.1799 26.0333 57.0209 33.1419 61.8316 40.2715C63.4991 42.7431 65.1358 45.2359 66.7628 47.735C67.0187 48.1283 67.1474 48.6053 67.4294 49.265C66.794 49.1804 66.397 49.1279 65.8277 49.0587Z" fill="#292929"/>
<path d="M34.041 4.76692C39.2623 6.56813 41.935 10.8199 45.0213 15.2088C44.1658 15.293 43.5871 15.4044 43.0098 15.3983C35.5525 15.3188 28.0957 15.1555 20.6388 15.1688C18.2316 15.1731 16.7645 14.0342 16.2346 11.9421C15.491 9.0054 15.12 5.97288 14.5213 2.59482C21.4632 2.28022 27.7559 2.64812 34.041 4.76692Z" fill="#B3C0C0"/>
<path d="M5.11953 1.20668C1.27347 1.20668 -0.00854395 1.63646 0.632524 2.9258C0.723465 3.06376 3.58731 2.94084 7.04274 2.71091C10.5436 2.48098 12.6756 2.57295 12.812 2.71091C12.903 2.80288 13.4394 4.66339 13.6667 7.00869C13.8804 11.5214 14.0941 14.9596 17.6632 16.0727C18.0726 16.2566 19.7094 16.5326 21.2551 16.7165L23.0683 16.8936L23.4957 25.704C23.632 30.487 23.6047 34.7638 23.923 37.5229C24.6504 43.4096 25.4414 46.0291 28.6239 48.0525C30.4427 49.2486 33.1243 49.8799 41.4444 50.2018C55.6299 50.7996 67.9401 50.8465 68.5812 51.706C69.2222 52.1358 71.3589 56.4332 73.282 58.3676C76.0598 61.1612 77.9829 60.731 78.6239 60.5165C78.6239 60.3785 76.9145 58.5825 75.2051 56.8634C52.4722 21.8657 44.3064 9.63418 40.5782 6.50712C37.8957 4.20737 34.0936 2.03486 28.4102 1.2071C25.0004 0.701255 12.1709 0.776906 5.11953 1.20668ZM27.9829 3.356C34.6662 4.32171 38.2619 6.4461 41.4444 10.4473C42.5354 11.8269 43.2038 12.9349 43.7948 13.6707C44.4359 15.6047 47.4273 15.6047 33.3247 15.1745C20.5491 14.9905 20.5042 14.9596 18.5812 14.7447C17.8538 14.2389 16.8991 13.5155 16.4444 12.5958C16.0171 10.6618 14.2804 3.49267 14.735 2.71091C15.3124 2.53212 24.2094 2.80416 27.9829 3.356ZM49.9914 22.9109C54.9017 30.0852 61.6252 40.2108 62.1709 41.1765C62.4436 41.6363 63.0529 42.4693 64.735 45.0445C66.4171 47.6657 66.4444 47.6232 66.6581 48.0529C66.7538 48.245 67.2991 48.9125 67.2991 49.1274C66.0713 48.9894 60.4756 48.7586 53.8376 48.4827C35.6512 47.7929 35.4615 47.6232 32.6837 47.4078C30.2743 46.2122 26.9837 44.9538 26.62 41.8727C25.7564 34.1006 25.2106 19.3382 25.7564 17.9581C25.9837 17.3143 27.4551 16.8936 36.9572 16.8936L45.2906 17.1089L49.9914 22.9109Z" fill="black"/>
</svg>
