<svg width="1400" height="368" viewBox="0 0 1400 368" fill="none" xmlns="http://www.w3.org/2000/svg">
<path d="M567.351 109.195C564.637 109.308 562.227 109.188 560.962 106.48C560.727 105.979 560.5 105.417 560.488 104.877C560.436 102.588 560.394 100.293 560.483 98.0048C560.607 95.0299 562.458 93.3696 565.436 93.2734C567.846 93.1952 570.248 92.9562 572.658 92.8849C574.988 92.8157 577.325 92.8698 579.637 92.8698C577.846 98.3022 577.8 103.554 579.667 109.195C575.693 109.195 571.624 109.195 567.351 109.195Z" fill="#24242C"/>
<path d="M592.513 103.596C592.432 110.008 593.316 109.157 587.24 109.193C580.923 109.23 579.667 107.959 579.722 101.585C579.74 99.8113 579.923 98.0303 580.154 96.2695C580.406 94.3429 581.987 92.9388 583.962 92.8764C586.235 92.8051 588.513 92.8988 590.786 92.8339C592.073 92.7974 592.56 93.2951 592.534 94.5913C592.475 97.5211 592.513 100.453 592.513 103.596Z" fill="#24242C"/>
<path d="M560.047 128.865C560.043 128.027 560.039 127.382 560.052 126.738C560.073 125.377 560.624 124.55 562.124 124.666C562.547 124.699 562.979 124.67 563.406 124.669C566.701 124.666 566.761 124.664 566.846 127.884C566.885 129.324 567.564 130.05 568.842 130.184C570.154 130.32 571.646 130.643 572.346 128.965C572.675 128.176 573.073 127.35 573.124 126.521C573.227 124.872 574.098 124.406 575.509 124.683C576.692 124.916 578.74 125.116 578.855 125.661C579.265 127.625 579.081 129.731 578.953 131.773C578.94 132.015 577.893 132.347 577.312 132.373C572.983 132.562 568.654 132.69 564.325 132.823C560.735 132.933 560.735 132.924 560.047 128.865Z" fill="#1B1B1D"/>
<path d="M570.74 113.969C570.868 113.374 570.859 112.847 571.12 112.572C571.573 112.091 572.188 111.764 572.735 111.373C573.047 111.975 573.701 112.624 573.624 113.171C573.112 116.836 572.441 120.479 571.825 124.131C571.697 124.904 571.582 125.679 571.475 126.456C571.214 128.377 570.24 129.029 568.086 128.108C568.962 123.476 569.842 118.813 570.74 113.969Z" fill="#1A1A1A"/>
<path d="M562.607 126.355C562.607 126.83 562.222 127.214 561.752 127.214C561.282 127.214 560.898 126.83 560.898 126.355C560.898 125.88 561.282 125.495 561.752 125.495C562.222 125.495 562.607 125.88 562.607 126.355Z" fill="#D9D9D9"/>
<path d="M577.564 126.785C577.564 127.259 577.18 127.644 576.71 127.644C576.24 127.644 575.855 127.259 575.855 126.785C575.855 126.31 576.24 125.925 576.71 125.925C577.18 125.925 577.564 126.31 577.564 126.785Z" fill="#D9D9D9"/>
<path d="M562.607 130.653C562.607 131.127 562.222 131.512 561.752 131.512C561.282 131.512 560.898 131.127 560.898 130.653C560.898 130.178 561.282 129.793 561.752 129.793C562.222 129.793 562.607 130.178 562.607 130.653Z" fill="#D9D9D9"/>
<path d="M577.564 131.082C577.564 131.557 577.18 131.942 576.71 131.942C576.24 131.942 575.855 131.557 575.855 131.082C575.855 130.607 576.24 130.223 576.71 130.223C577.18 130.223 577.564 130.607 577.564 131.082Z" fill="#D9D9D9"/>
<path d="M1009.67 59.1051C1014.43 60.4138 1019.04 61.5969 1023.61 62.9357C1031.57 65.2707 1039.53 67.6486 1047.44 70.1461C1048.74 70.5557 1049.92 71.5583 1050.98 72.4875C1052.28 73.6273 1052.14 75.759 1050.62 77.7471C1049.08 79.7843 1047.42 81.7484 1045.7 83.6428C1043.54 86.0126 1041.47 88.5084 1039.02 90.5438C1033.61 95.0543 1027.04 97.0055 1020.22 97.9033C1012.01 98.9851 1003.75 99.7621 995.504 100.542C987.038 101.342 978.564 102.025 970.089 102.689C960.406 103.448 950.722 104.157 941.034 104.837C934.243 105.313 927.448 105.721 920.654 106.126C913.081 106.578 905.5 106.979 897.927 107.431C896.474 107.518 895.03 107.738 893.166 107.942C894.713 103.763 896.098 100.044 897.461 96.3174C900.055 89.2291 902.602 82.1231 905.23 75.0486C907.893 67.8906 910.632 60.7619 913.337 53.6203C914.953 49.3538 916.619 45.1046 918.162 40.8122C918.658 39.4358 919.521 39.388 920.671 39.5991C923.025 40.033 925.393 40.4222 927.752 40.8529C935.551 42.2775 943.388 43.5308 951.141 45.185C963.269 47.774 975.363 50.5628 987.436 53.4101C994.824 55.1516 1002.15 57.1603 1009.67 59.1051Z" fill="#292929"/>
<path fill-rule="evenodd" clip-rule="evenodd" d="M614.564 61.6931C611.337 63.3099 608.158 65.023 604.931 66.7602C603.457 67.5535 601.978 68.3516 600.478 69.1484C587.538 76.2084 574.872 83.4265 562.098 91.5416C548.803 99.5978 534.872 109.244 522.008 118.8C529.948 118.8 539.525 118.851 548.991 118.902C558.239 118.952 567.376 119.001 574.773 119.001C575.008 119.001 575.239 119.001 575.47 119.003C575.97 119.005 576.47 119.007 576.97 118.999C579.56 118.955 582.145 118.906 584.731 118.857C590.034 118.757 595.342 118.657 600.645 118.598C613.154 118.458 625.662 118.349 638.171 118.24H638.184C641.111 118.215 644.038 118.189 646.966 118.163C648.128 118.153 649.295 118.158 650.461 118.163C651.906 118.169 653.346 118.175 654.79 118.152C659.966 118.07 665.141 117.975 670.316 117.88H670.325C673.111 117.829 675.893 117.777 678.679 117.728C681.919 117.671 685.162 117.615 688.401 117.56H688.414C693.419 117.475 698.419 117.39 703.423 117.297C710.53 117.165 717.637 117.026 724.743 116.864C728.008 116.79 731.273 116.698 734.534 116.606H734.538C736.53 116.55 738.521 116.494 740.513 116.442C744.624 116.335 748.735 116.229 752.846 116.124C759.816 115.946 766.786 115.767 773.76 115.578C778.256 115.456 782.756 115.325 787.256 115.194H787.26C792.773 115.034 798.286 114.873 803.799 114.729C806.756 114.652 809.709 114.596 812.666 114.54C816.748 114.462 820.829 114.384 824.91 114.252C828.192 114.145 831.47 113.971 834.748 113.797C837.068 113.674 839.389 113.551 841.705 113.452C852.419 112.994 863.128 112.562 873.842 112.142C875.876 112.062 877.91 112 879.944 111.938C882.525 111.86 885.107 111.782 887.688 111.666C887.807 111.661 887.961 111.655 888.141 111.647C888.329 111.64 888.543 111.631 888.782 111.621C891.047 111.53 895.376 111.355 896.56 111.191C898.632 111.108 900.701 110.946 902.773 110.784C904.376 110.659 905.978 110.533 907.585 110.445C913.765 110.103 919.94 109.792 926.12 109.48C928.517 109.359 930.914 109.238 933.312 109.116C934.29 109.065 935.269 109.022 936.248 108.978C938.32 108.885 940.389 108.792 942.457 108.641C945.97 108.384 949.478 108.106 952.991 107.827C956.615 107.54 960.239 107.252 963.867 106.989C966.543 106.794 969.222 106.628 971.897 106.461C975.876 106.214 979.854 105.966 983.825 105.628C990.098 105.092 996.367 104.465 1002.64 103.839L1002.64 103.839C1005.04 103.599 1007.44 103.359 1009.85 103.125C1012 102.914 1014.15 102.72 1016.29 102.525C1021.48 102.056 1026.68 101.587 1031.83 100.899C1038.52 100.007 1045.14 98.1464 1050.26 93.6333C1055.45 89.0467 1060.13 83.7918 1064.59 78.4493C1068.49 73.7776 1067.37 70.4279 1061.68 68.4079C1056.13 66.4365 1050.51 64.6456 1044.88 62.9188C1037.5 60.656 1030.11 58.422 1022.67 56.381C1014.26 54.074 1005.8 51.9139 997.333 49.8389C988.713 47.727 980.081 45.6348 971.397 43.8225C959.705 41.384 947.987 39.0882 936.269 36.7923L936.252 36.7892C933.645 36.2783 931.038 35.7674 928.427 35.2549C924.329 34.4491 920.213 33.7031 916.081 33.0845C912.696 32.5778 909.303 32.1333 905.91 31.6888C903.684 31.3969 901.457 31.105 899.231 30.7955C895.948 30.3392 892.671 29.8608 889.389 29.3825C882.782 28.4186 876.175 27.4547 869.547 26.6704C860.329 25.5802 851.077 24.7709 841.82 24.0851C831.846 23.346 821.859 22.7571 811.863 22.3584C803.269 22.0155 794.658 21.9618 786.051 21.9193C782.713 21.9028 779.372 22.0393 776.03 22.1757C774.825 22.2249 773.624 22.274 772.419 22.316C771.525 22.3471 770.637 22.3746 769.743 22.402C766.872 22.4903 764 22.5787 761.141 22.7894C752.517 23.4244 743.897 24.1152 735.286 24.89C729.641 25.3978 723.991 25.9367 718.384 26.7437C711.936 27.6713 705.495 28.7289 699.124 30.0649C692.825 31.3861 686.508 32.8097 680.376 34.7544C671.239 37.6534 662.179 40.8551 653.226 44.2939C646.286 46.9603 639.487 50.0138 632.696 53.064C632.226 53.275 631.756 53.486 631.286 53.6966C625.649 56.2254 620.089 58.9262 614.564 61.6931ZM905.923 35.3136C896.402 33.8558 886.855 32.5004 877.286 31.4074C869.051 30.467 860.79 29.7717 852.53 29.0766L852.521 29.0757C851.179 28.963 849.837 28.8501 848.5 28.7363C840.944 28.0944 833.38 27.4546 825.807 27.0635C817.226 26.6203 808.632 26.3295 800.038 26.2032C790.453 26.0623 780.859 25.9673 771.278 26.2516C764.004 26.4675 756.735 27.0614 749.474 27.6548C748.538 27.7313 747.602 27.808 746.662 27.8837C745.162 28.0051 743.658 28.1205 742.154 28.2359C735.739 28.7283 729.32 29.2213 722.97 30.1854C710.927 32.0152 698.876 33.894 687.166 37.5418C675.419 41.2006 663.803 45.1642 652.517 50.0839C650.47 50.977 648.406 51.8417 646.346 52.706L646.342 52.7064C642.829 54.1805 639.316 55.6547 635.863 57.2689C629.188 60.3913 622.581 63.6735 616.051 67.0911C607.872 71.3704 599.748 75.7627 591.701 80.2866C588.329 82.1827 585.021 84.195 581.713 86.2072C579.431 87.5958 577.145 88.9848 574.842 90.3356C571.414 92.7248 563.252 98.057 555.162 103.345C547.303 108.481 539.508 113.576 536.171 115.891C535.666 116.241 535.222 116.678 534.782 117.713C535.585 117.858 536.384 118.003 537.384 118.147C542.521 118.147 549.384 118.2 556.209 118.253H556.213C562.966 118.305 569.688 118.357 574.675 118.357C574.859 118.297 575.042 118.234 575.226 118.17C575.658 118.021 576.089 117.871 576.53 117.771C576.829 117.705 577.141 117.714 577.453 117.723C577.572 117.727 577.692 117.73 577.807 117.729C584.564 117.686 591.325 117.645 598.081 117.604L598.154 117.604C615.354 117.499 632.56 117.395 649.765 117.26C654.547 117.223 659.325 117.099 664.107 116.975C665.936 116.928 667.76 116.88 669.589 116.838C671.807 116.787 674.021 116.728 676.239 116.669C679.564 116.581 682.889 116.493 686.213 116.429C689.923 116.358 693.628 116.302 697.337 116.245C702.449 116.167 707.555 116.089 712.662 115.973C719.859 115.81 727.055 115.607 734.316 115.403C737.662 115.308 741.021 115.214 744.401 115.123C745.068 115.075 745.709 115.016 746.337 114.959C747.491 114.853 748.59 114.753 749.692 114.732C753.731 114.659 757.765 114.604 761.803 114.547C767.722 114.465 773.645 114.383 779.56 114.247C786.171 114.094 792.778 113.855 799.384 113.616L799.389 113.615H799.393C801.372 113.544 803.35 113.472 805.329 113.403C813.064 113.132 820.799 112.844 828.534 112.543C835.487 112.272 842.436 111.992 849.389 111.684C858.675 111.271 867.961 110.855 877.248 110.384C878.718 110.31 880.188 110.182 881.654 110.055C883.577 109.889 885.496 109.722 887.423 109.674C887.572 109.657 887.782 109.64 888.034 109.622L888.248 109.135C888.902 107.375 889.649 105.377 890.419 103.315L890.423 103.298C891.662 99.9824 892.961 96.5038 894.038 93.5929C895.889 88.6187 897.731 83.6762 899.564 78.7505C901.931 72.4113 904.282 66.0996 906.628 59.7844C907.97 56.161 909.29 52.5285 910.615 48.8964V48.8904C911.414 46.7003 912.209 44.5101 913.013 42.3216C913.38 41.3161 914.987 37.7974 915.598 36.9616L915.666 36.8348C912.423 36.3128 909.171 35.811 905.923 35.3136ZM946.457 106.515C939.743 107.015 933.017 107.432 926.29 107.795C921.26 108.065 916.226 108.304 911.192 108.543C907.149 108.735 903.111 108.927 899.073 109.135C898.573 109.16 897.483 109.202 896.154 109.253C894.483 109.317 892.431 109.396 890.709 109.475L890.812 109.164C890.919 108.753 891.773 106.583 892.239 105.406C892.367 105.074 892.47 104.821 892.513 104.709C892.572 104.552 892.632 104.395 892.692 104.239L894.923 98.2208C899.367 86.245 903.808 74.2692 908.256 62.2956C909.496 58.9588 911.03 54.9829 912.585 50.9525C914.423 46.1867 916.286 41.3441 917.735 37.3913L917.837 37.187C923.171 38.0615 928.496 39.0001 933.79 40.073C949.56 43.2689 965.286 46.6977 980.991 50.2214C990.184 52.2848 999.32 54.6327 1008.44 57.0175C1016.2 59.0486 1023.96 61.1679 1031.63 63.5252C1037.99 65.479 1044.29 67.682 1050.5 70.0815C1053.59 71.2784 1054.42 74.5314 1052.65 77.4109C1051.36 79.5259 1049.94 81.6202 1048.25 83.4214C1047.42 84.3041 1046.62 85.2191 1045.81 86.1359C1042.88 89.4705 1039.93 92.8254 1035.85 94.725C1031.71 96.6564 1027.26 98.143 1022.8 99.1152C1018.68 100.012 1014.47 100.485 1010.26 100.957C1009.05 101.094 1007.82 101.231 1006.61 101.378C1001.34 102.017 996.055 102.608 990.765 103.07C987.184 103.382 983.598 103.628 980.017 103.875C977.444 104.051 974.876 104.227 972.312 104.428C968.615 104.717 964.923 105.024 961.226 105.331L961.222 105.331C956.303 105.74 951.384 106.148 946.457 106.515Z" fill="#292929"/>
<path fill-rule="evenodd" clip-rule="evenodd" d="M768.12 0.771203C769.547 0.745563 770.462 0.729106 770.513 0.653719C789.047 -0.697788 822.65 0.223939 836.923 1.8029C845.727 2.15794 866.667 3.44728 868.209 4.23779C868.44 4.26496 869.098 4.31059 870.064 4.37776C872.188 4.52561 875.816 4.77772 879.701 5.16641C885.351 5.73161 890.59 6.45527 891.026 6.58571C891.278 6.68671 892.923 6.85612 895.286 7.09968C896.996 7.27546 899.077 7.48987 901.282 7.74508C908.312 8.59041 910.35 8.97974 912.718 9.4314C914.124 9.69992 915.645 9.99045 918.398 10.4119C921.615 10.9337 926.133 11.6294 928.393 11.9772C930.654 12.3251 933.521 12.8034 934.692 13.0642C935.91 13.2816 939.038 13.8034 941.645 14.1947C946.124 14.8469 950.641 15.673 954.684 16.6296C955.637 16.847 958.594 17.4123 961.201 17.8905C963.851 18.3253 966.457 18.847 967.068 18.9775C968.675 19.3688 980.757 21.7602 983.795 22.2819C985.231 22.5428 986.795 22.8907 987.274 23.1081C987.752 23.3255 990.705 23.9777 993.791 24.5864C996.919 25.2386 1002.96 26.4995 1007.26 27.4995C1008.64 27.8056 1010.21 28.1517 1011.81 28.505L1011.88 28.5214L1011.91 28.5273L1011.92 28.5303L1011.94 28.5358C1015.31 29.2776 1018.79 30.0473 1020.95 30.5432C1024.17 31.2389 1027.12 31.9345 1027.47 32.0649C1028.16 32.3693 1038.2 34.8042 1049.85 37.5434C1053.93 38.5 1057.84 39.5435 1058.62 39.8914C1059.36 40.2392 1060.23 40.5001 1060.58 40.5001C1060.88 40.5001 1063.01 40.9784 1065.27 41.5871C1072.88 43.5438 1080.66 45.6308 1086.56 47.2395C1089.78 48.1089 1093.3 49.0222 1094.39 49.2397C1095.47 49.4572 1096.74 49.8049 1097.21 50.0657C1097.69 50.3266 1100.25 51.0658 1102.86 51.7612C1105.51 52.457 1110.77 53.9355 1114.59 55.0658C1118.42 56.1965 1123.98 57.7618 1126.98 58.5878C1129.97 59.4138 1132.8 60.2833 1133.28 60.5007C1133.76 60.7182 1136.88 61.6749 1140.23 62.6312C1143.58 63.5878 1148.18 64.9795 1150.44 65.6748C1152.7 66.4141 1157.22 67.8057 1160.44 68.7619C1163.65 69.762 1166.7 70.7187 1167.18 70.9362C1167.65 71.1537 1169.82 71.849 1171.95 72.5014C1174.12 73.11 1176.95 74.0233 1178.25 74.5016C1179.56 74.9361 1182.43 75.8928 1184.56 76.5886C1186.73 77.2406 1193.55 79.5017 1199.77 81.6321C1218.49 87.9369 1222.32 89.1975 1222.84 89.1975C1223.14 89.1975 1223.44 89.3715 1223.53 89.5456C1223.62 89.7192 1225.92 90.5018 1228.66 91.2411C1235.22 93.0238 1257.3 99.5895 1258.43 100.068C1258.91 100.285 1261.86 101.155 1264.94 102.024C1265.97 102.307 1266.99 102.591 1267.94 102.853C1269.91 103.396 1271.56 103.849 1272.12 104.024C1272.94 104.242 1280.28 104.633 1288.41 104.85C1325.3 105.894 1347.59 106.633 1348.81 106.851C1352.03 107.546 1357.11 112.764 1360.11 118.503C1362.54 123.199 1361.98 125.503 1357.68 128.765C1354.42 131.199 1351.64 134.156 1351.64 135.156C1351.64 135.512 1353.15 137.376 1355.08 139.758C1355.5 140.286 1355.95 140.839 1356.41 141.406C1361.71 147.928 1371.88 161.896 1376.01 167.896C1377.18 169.589 1378.82 171.965 1380.13 173.873L1381.32 175.592C1382.66 177.549 1383.79 179.505 1383.79 179.984C1383.79 180.419 1383.31 181.245 1382.71 181.81C1382.1 182.375 1381.84 183.177 1381.84 183.524C1381.84 184.264 1383.23 185.723 1385.75 187.376C1388.62 189.245 1395.48 196.245 1396.48 198.246C1397.22 199.854 1397.35 200.637 1397.09 203.115C1396.96 204.767 1396.61 207.028 1396.39 208.202C1396.23 208.911 1395.91 210.511 1395.55 212.345L1395.54 212.398C1395.32 213.472 1395.09 214.624 1394.87 215.724C1393.31 223.855 1392.92 225.725 1392.35 228.333C1392.05 229.638 1391.83 233.638 1391.88 237.247C1391.88 242.421 1392.09 244.552 1392.83 247.639C1393.83 251.682 1394.13 252.422 1396.91 258.204C1398.44 261.422 1398.65 262.248 1398.82 265.813C1398.91 268.031 1399.22 271.466 1399.52 273.379C1399.78 275.335 1399.87 277.422 1399.7 278.031C1399.56 278.64 1398.3 280.509 1396.91 282.118C1393.83 285.683 1388.27 293.119 1386.83 295.51C1386.27 296.467 1385.66 297.336 1385.53 297.467C1384.92 297.988 1383.79 300.075 1384.09 300.119C1384.31 300.119 1385.44 300.119 1386.62 300.075C1388.4 300.032 1388.96 300.206 1389.7 301.032C1392.53 304.206 1393.53 307.815 1393.27 313.946C1393.05 318.641 1392.48 320.642 1391.22 321.207C1390.83 321.381 1389.66 321.685 1388.57 321.903C1388.19 321.979 1387.79 322.056 1387.43 322.127L1387.41 322.131C1387.14 322.182 1386.89 322.231 1386.68 322.274C1386.35 322.339 1386.1 322.391 1385.97 322.424C1385.68 322.495 1384.71 322.624 1383.65 322.763C1383.41 322.795 1383.16 322.827 1382.92 322.859C1382.27 322.924 1381.49 323.021 1380.74 323.113C1379.99 323.206 1379.27 323.293 1378.79 323.337C1377.84 323.468 1375.19 323.816 1372.93 324.076L1368.8 324.598L1365.76 327.685C1361.98 331.468 1357.11 334.425 1352.64 335.686C1350.77 336.207 1348.68 336.816 1347.94 337.033C1346.25 337.555 1334.73 339.164 1318.83 341.121C1316.75 341.382 1314.36 341.683 1311.89 341.995C1306.15 342.72 1299.93 343.504 1296.01 343.99C1276.11 346.556 1245.44 350.164 1237.91 350.773C1234.05 351.078 1232.01 350.599 1231.27 349.164C1231.01 348.73 1230.83 347.121 1230.83 345.555V342.686H1228.62C1226.27 342.686 1215.77 343.098 1213.03 343.402C1211.91 343.533 1207.69 343.526 1207.69 343.178C1208.12 341.889 1208.33 341.674 1208.33 341.674C1209.5 341.599 1211.38 341.575 1213.49 341.547C1216.31 341.511 1219.54 341.469 1222.06 341.295L1230.01 340.816L1229.83 327.729C1229.71 316.728 1229.53 313.25 1228.53 305.728C1227.27 296.076 1225.23 285.162 1224.14 282.596C1223.75 281.684 1223.44 280.466 1223.44 279.857C1223.44 279.248 1223.27 278.422 1223.01 277.988C1222.79 277.596 1221.79 274.814 1220.79 271.814C1218.36 264.596 1214.84 256.769 1211.24 250.595C1210.06 248.639 1209.11 246.899 1209.11 246.769C1209.11 246.378 1202.5 237.29 1199.94 234.203C1195.2 228.464 1186.03 219.594 1181.73 216.551C1180.91 215.985 1180.12 215.42 1179.99 215.29C1179.69 214.942 1172.78 210.42 1170.87 209.289C1169.3 208.376 1162.13 204.767 1158.66 203.159C1155.18 201.55 1146.01 198.332 1142.84 197.593C1141.19 197.245 1139.62 196.767 1139.36 196.593C1138.88 196.202 1130.5 194.767 1123.72 193.897C1118.5 193.245 1097.65 193.245 1093.52 193.897C1082.7 195.68 1070.97 198.289 1068.58 199.463C1067.88 199.811 1066.88 200.072 1066.4 200.072C1065.88 200.072 1065.1 200.333 1064.62 200.68C1064.15 200.985 1063.27 201.419 1062.67 201.594C1059.84 202.42 1054.19 204.854 1048.54 207.724C1034.64 214.768 1022.51 224.159 1012.87 235.29C1011.96 236.377 1010.96 237.421 1010.7 237.682C1009.3 238.899 998.355 255.943 998.355 256.9C998.355 256.987 997.312 259.248 996.009 261.943C994.705 264.639 993.312 267.77 992.923 268.987C992.53 270.161 992.009 271.379 991.748 271.683C991.487 272.031 991.402 272.379 991.487 272.509C991.62 272.64 992.141 272.161 992.662 271.509C992.987 271.101 993.436 270.504 993.863 269.933C994.017 269.724 994.171 269.518 994.316 269.326C994.406 269.207 994.492 269.093 994.573 268.987C996.312 266.683 1002.7 260.552 1005.65 258.335C1007.26 257.161 1008.78 256.03 1009 255.813C1010.26 254.813 1013.25 253.694 1013.25 253.999C1013.25 254.433 1011.34 258.913 1010.26 261.305C1009.34 263.348 1006.55 272.393 1005.77 276.133C1002.94 289.785 1002.39 303.51 1004.7 316.163C1005.74 321.815 1008.52 331.816 1010.09 335.512C1010.3 335.99 1011 337.642 1011.61 339.208C1012 340.162 1012.49 341.461 1013.03 342.89V342.891L1013.03 342.898V342.899C1014.4 346.545 1016.09 351.037 1017.31 352.848C1018 353.848 1018.59 354.736 1018.59 354.997C1018.59 355.258 1019.1 355.983 1019.23 356.071C1019.32 356.198 1019.48 356.45 1019.87 357.146L1020.73 358.382L1019.38 357.991C1017.82 357.904 1014.56 358.078 1012.13 358.382C1009.7 358.73 1004.79 358.991 1001.18 359.078C993.791 359.165 988.662 359.426 982.799 359.904C979.162 360.19 979.026 360.566 978.701 361.477C978.679 361.535 978.658 361.596 978.633 361.658C978.389 362.224 977.795 362.773 977.257 363.266L977.137 363.378L977.133 363.381C976.18 364.292 975.654 364.792 944.017 365.097C926.504 365.27 891.568 365.439 866.453 365.526C853.812 365.592 836.504 365.613 818.876 365.634H818.85C801.521 365.655 783.889 365.676 770.086 365.741C756.692 365.804 741.479 365.824 727.513 365.842C712.436 365.862 698.808 365.88 690.483 365.948C658.064 366.165 535.308 366.817 528.18 366.817C525.662 366.817 492.722 366.948 455.004 367.122L386.347 367.469L385.391 366.557C384.826 366.035 384.261 364.861 384.131 363.904L383.827 362.209L369.878 362.295C362.735 362.322 353.961 363.285 348.064 363.933C344.238 364.353 341.197 364.425 341.026 364.237C340.939 364.15 341.739 363.431 342.521 362.518C343.164 361.686 343.666 361.07 344.658 359.724L344.815 359.641L344.872 359.509L345.086 359.08C346.103 357.775 347.583 355.62 348.257 354.472L348.258 354.47C348.367 354.284 348.461 354.125 348.535 354C348.629 353.842 348.692 353.74 348.718 353.707C350.5 351.533 354.918 342.123 357.265 336.731C365 318.904 366.036 293.928 362.821 275.058C361.951 269.927 359.003 260.327 357.265 255.718C356.731 254.242 356.046 252.919 355.595 252.049C355.276 251.433 355.074 251.044 355.129 250.99C355.346 250.773 361.795 254.117 363.229 255.247C363.968 255.856 363.968 255.77 363.142 254.552C362.621 253.813 362.186 252.987 362.186 252.769C362.186 252.508 361.926 252.03 361.578 251.726C361.274 251.378 360.665 250.421 360.231 249.639C359.101 247.421 354.234 240.421 350.497 235.725C344.327 227.942 329.9 214.246 322.209 208.898C306.218 197.767 286.316 190.897 266.37 189.636C243.904 188.202 220.526 193.811 201.624 205.202C191.803 211.116 178.506 222.725 170.424 232.464C168.034 235.334 165.731 238.116 165.296 238.682C164.818 239.203 164.471 239.725 164.471 239.812C164.471 239.943 163.341 241.639 161.95 243.595C158.821 248.16 157.431 250.552 153.694 258.118C150.087 265.335 149.131 267.552 147.654 271.596C147.045 273.248 146.394 274.814 146.176 275.031C145.959 275.292 145.785 275.944 145.785 276.553C145.785 277.205 145.524 278.205 145.22 278.814C144.873 279.422 144.177 281.77 143.656 284.031C143.599 284.261 143.542 284.489 143.485 284.713C142.989 286.706 142.552 288.458 142.396 288.771C142.265 289.119 141.918 290.684 141.614 292.249C138.05 310.076 137.572 320.728 139.093 348.469L139.354 353.556H156.866C162.18 353.278 167.094 353.278 167.735 353.707C167.949 353.707 168.376 354.352 168.803 355.212C168.35 355.198 167.866 355.194 167.003 355.186C165.421 355.172 162.568 355.147 156.301 355.034L138.746 354.773L138.876 357.947L139.05 361.165L104.286 361.252C85.1667 361.295 66.612 361.165 63.0051 360.948C59.4419 360.73 51.1423 360.339 44.5808 360.078C30.2408 359.513 11.3817 357.251 7.81846 355.73C7.34043 355.513 5.90645 354.904 4.64628 354.382C2.86468 353.643 1.4668 352.993 0.64118 351.559C0.0328208 350.558 0 349.33 0 348.765C0 347.2 2.13675 343.608 4.95047 342.121C7.68808 340.034 14.2497 337.033 19.9856 335.251C22.3756 334.511 24.5482 333.859 24.8524 333.773C25.5912 333.512 26.7855 329.759 27.3504 326.846C27.3705 326.746 27.3914 326.642 27.4129 326.536C27.7177 325.024 28.1435 322.913 27.9812 321.207C27.6335 317.424 27.7638 312.293 28.3722 307.685C29.4151 299.206 31.1098 295.641 34.76 293.945C35.5421 293.597 36.1071 292.945 36.194 292.379C36.3243 291.379 36.194 291.293 32.6742 290.727C28.9371 290.119 25.8084 286.64 24.9828 282.162C24.4179 279.292 24.4179 259.117 24.9828 256.204C25.2001 254.987 26.4603 251.508 27.7638 248.465C32.6307 236.899 33.5867 229.594 31.4575 219.855C31.1968 218.638 30.8056 216.116 30.5884 214.202C30.3711 212.289 30.0235 210.202 29.8062 209.55C29.5889 208.941 29.0675 204.767 28.6329 200.333C27.9377 192.811 27.9377 192.158 28.6329 190.375C29.4586 188.114 30.9795 186.636 35.6291 183.375C37.541 182.027 39.3227 180.766 39.5399 180.592C39.7787 180.393 41.147 179.538 42.7106 178.561L43.1466 178.288C44.2248 177.641 45.3863 176.927 46.2688 176.384C46.809 176.052 47.2444 175.784 47.4919 175.636C53.5321 171.766 72.956 161.983 82.7769 157.896C84.5586 157.157 86.644 156.287 87.3393 155.939C90.1205 154.722 95.335 152.635 98.6376 151.461C100.55 150.765 105.069 149.113 108.632 147.765C112.238 146.417 117.714 144.548 120.799 143.548C123.928 142.548 128.708 140.982 131.445 140.069C138.094 137.852 155.867 133.199 164.688 131.417C169.902 130.373 184.025 127.808 191.195 126.59C197.322 125.59 231.129 121.329 239.646 120.46C242.611 120.179 245.096 119.944 247.157 119.748L247.197 119.744L247.271 119.738C251.843 119.304 254.304 119.071 255.289 118.982C256.115 118.894 261.33 118.416 266.891 117.938C287.228 116.155 331.812 113.459 351.54 112.894C356.103 112.764 360.883 112.546 362.186 112.459C365.359 112.242 380.654 111.894 413.462 111.329C431.974 111.025 441.449 111.025 443.227 111.329C444.662 111.59 447.487 111.981 449.53 112.198C450.111 112.273 450.919 112.375 451.876 112.495L451.88 112.495C454.286 112.798 457.607 113.216 460.436 113.59L467.521 114.33L472.167 112.025C474.645 110.633 477.688 108.938 478.859 108.285C480.077 107.633 482.945 106.025 485.333 104.676C487.684 103.329 489.68 102.242 489.769 102.242C489.829 102.242 490.727 101.723 491.983 100.995L492.004 100.984C492.487 100.703 493.026 100.392 493.59 100.068C495.633 98.8503 497.372 97.8936 497.504 97.8936C497.633 97.8936 499.372 96.9369 501.325 95.8066C503.325 94.6324 507.107 92.5454 509.714 91.1542C512.363 89.7631 515.363 88.154 516.449 87.5454C517.786 86.804 521.987 84.5468 526.474 82.1366C528.829 80.8727 531.256 79.5661 533.397 78.4148C553.56 67.675 586.714 50.9786 605.53 42.1088C607.312 41.2827 611.047 39.5435 613.786 38.2391C616.521 36.9347 621.043 34.8912 623.782 33.7607C626.496 32.4573 628.846 31.3829 629.214 31.3693C629.863 30.891 643.115 25.2821 650.068 22.5429C654.222 20.6266 658.496 19.278 665.859 16.9561C667.462 16.4496 669.214 15.8968 671.145 15.2817C672.449 14.8469 676.577 13.8034 680.269 12.8903C682.727 12.1854 685.274 11.5928 687.021 11.1849C687.91 10.9781 688.594 10.8187 688.962 10.7163C692.957 9.54237 707.816 6.56276 720.94 4.73663C722.568 4.51211 724.231 4.40587 725.333 4.33535C725.94 4.29658 726.38 4.26863 726.547 4.23779C728.94 3.84647 731.547 3.49861 733.718 3.3247C734.812 3.25186 737 3.02647 738.936 2.82743L738.949 2.82603L739.017 2.81889C739.363 2.7833 739.701 2.74865 740.021 2.71597C745.192 2.15073 756.539 1.12949 764.316 0.868608C765.765 0.813553 767.081 0.789929 768.12 0.771203ZM837.791 2.6725C835.184 2.41162 827.449 2.06378 820.628 1.8029C788.688 0.715899 765.44 1.15068 741.325 3.36816C732.675 4.1508 714.427 6.41178 711.863 7.02047C710.863 7.28139 705.735 8.23795 700.432 9.1945C691.308 10.8467 685.18 12.1946 679.838 13.7164C678.534 14.1077 675.88 14.8034 673.97 15.2817C672.056 15.8035 668.06 16.9774 665.15 17.9775L661.325 19.1342L662.821 20.2086C663.175 20.7411 663.671 21.1636 664.167 21.5821C664.868 22.177 665.56 22.7638 665.812 23.6469C665.885 23.8714 665.932 24.0699 665.966 24.2333C666.03 24.5384 666.068 24.7213 666.239 24.7213C666.5 24.7213 667.325 24.6419 668.803 24.0767C679.885 19.6852 695.658 15.9339 712.607 13.3251C714.077 13.1017 715.47 12.8891 716.799 12.6859L716.829 12.6813C733.863 10.081 740.539 9.06196 761.325 7.53019C781.009 6.09533 827.513 7.16475 848.718 9.03441C850.885 9.23164 854.252 9.49393 857.611 9.75541C860.175 9.95508 862.731 10.1543 864.744 10.3237C869.393 10.6716 874.205 11.1808 875.641 11.3982C877.077 11.6156 881.141 12.1248 884.615 12.4726C888.09 12.8205 892.154 13.3297 893.803 13.5471C894.987 13.7292 897.466 14.0575 900.073 14.4018C901.197 14.5507 902.342 14.7025 903.419 14.8469C908.231 15.4942 911.94 15.9544 914.774 16.3054C918.026 16.7087 920.111 16.9677 921.368 17.2002C921.658 17.2522 922.133 17.3403 922.744 17.4533L922.756 17.4559C924.697 17.8156 927.983 18.4243 930.983 18.9193C943.983 21.0107 953.376 22.8312 965.056 25.0955L966.453 25.366L974.269 26.543L976.923 25.366C978.184 24.0616 978.633 23.2171 978.846 22.7873C978.628 22.0916 973.325 20.8037 964.244 19.1949C960.201 18.4558 956.115 17.6731 955.205 17.4123C952.423 16.6731 927.739 12.4555 919.701 11.3685C919.355 11.3201 918.876 11.2545 918.304 11.1759L918.218 11.1639L918.214 11.1636L918.205 11.1621C916.205 10.8873 913.115 10.463 910.359 10.0641C894.197 7.84663 887.808 7.02051 882.765 6.58571C879.769 6.32483 876.855 6.02042 876.248 5.93348C873.902 5.49867 862.474 4.45521 852.782 3.75951C847.18 3.36819 840.44 2.8899 837.791 2.6725ZM843.513 10.7641L843.509 10.7639L843.5 10.7632C841.474 10.6163 839.171 10.4489 836.923 10.2815C827.927 9.67276 782.611 8.64306 774.573 9.03441C759.756 9.73009 731.675 12.4555 727.201 13.3251C726.594 13.4555 723.769 13.8469 720.902 14.1947C718.03 14.5425 714.816 15.0208 713.731 15.2817C712.645 15.4991 709.252 16.1078 706.124 16.6296C699.218 17.7166 689.308 19.8471 685.483 21.0211C684.65 21.277 683.286 21.7072 681.799 22.1784C680.504 22.5879 679.111 23.0284 677.88 23.4124C669.321 26.1082 653.286 32.1954 643.987 36.3695C643.684 36.502 643.056 36.7252 642.312 36.9888C641.35 37.3306 640.201 37.7405 639.316 38.1087C631.714 41.2827 607.44 53.6312 595.97 59.9356C588.974 63.7619 584.368 66.3272 579.675 68.9794C572.632 72.9359 556.556 82.5015 550.039 86.5453C547.086 88.3714 544.261 90.1107 543.739 90.415C543.171 90.7193 541.607 91.7194 540.261 92.5893C538.872 93.4587 534.872 96.0241 531.355 98.2851C518.359 106.546 501.325 118.106 501.282 118.628C501.282 119.216 506.662 119.069 514.154 118.865L514.957 118.843H518.376L522.863 115.834C537.987 104.747 566.406 86.3669 582.051 77.584C582.393 77.3915 582.953 77.0898 583.633 76.7249C585.09 75.9367 587.103 74.8523 588.675 73.9309C589.846 73.2454 590.897 72.59 591.667 72.1116L591.671 72.1091V72.1078L591.675 72.1073C592.41 71.6475 592.885 71.3522 592.949 71.3522C593.051 71.2504 593.368 71.0931 593.821 70.8679C594.321 70.6173 594.996 70.2829 595.727 69.848C602.35 65.7651 619.868 56.9615 629.214 52.6569C634.556 50.2222 647.457 44.6308 651.282 43.1089C651.53 42.9972 652.509 42.5945 653.5 42.1881C654.436 41.8036 655.38 41.4157 655.718 41.2678C659.761 39.6155 673.188 34.5433 676.709 33.5433C678.97 32.8911 681.786 31.8152 682.265 31.5978C684.654 30.5542 698.868 27.9547 705.342 27.0851C707.252 26.8242 710.124 26.3585 711.774 26.0107C718.38 24.7062 737.526 22.3266 752.778 21.2831C768.637 20.2395 802.808 20.0272 819.017 20.8533C852.65 22.636 877.65 25.456 911.325 30.6736C928.316 33.3259 957.321 38.9508 972.009 42.3422C974.103 42.8223 976.581 43.4252 978.876 43.9835L978.88 43.9844C981.158 44.5379 983.252 45.0476 984.615 45.3506C985.731 45.5986 987.06 45.8646 988.338 46.1195C990.197 46.4904 991.932 46.8377 992.705 47.0697C994.009 47.4174 998.312 48.5439 1002.27 49.5006C1005.45 50.2707 1009.63 51.3963 1012.5 52.1686C1013.19 52.3552 1013.81 52.5215 1014.32 52.6569C1015.65 53.0295 1017.7 53.5151 1019.82 54.0167C1021.9 54.5101 1024.05 55.0189 1025.64 55.4504C1028.85 56.2765 1031.74 57.2516 1032.69 57.5993C1033.65 57.9036 1036.33 58.7099 1038.46 59.3184C1043.55 60.7096 1053.53 63.7649 1059.4 65.7651C1066.74 68.2436 1070.3 71.1373 1068.38 75.65C1067.73 77.4327 1064.75 81.3832 1062.84 83.6009C1058.97 88.0792 1051.85 94.7549 1049.24 96.4942C1043.41 100.364 1034.16 102.589 1023.77 103.546C1016.34 104.198 1005.79 105.198 1000.96 105.72C994.051 106.459 959.812 108.981 942.731 110.068C940.65 110.19 938.12 110.337 935.321 110.501L935.282 110.503C926.06 111.041 913.876 111.753 904.624 112.286C899.539 112.59 896.368 112.901 896.368 113.032C896.41 113.162 897.205 114.986 898.291 116.9C899.333 118.813 901.094 122.16 902.137 124.421C902.799 125.797 903.415 127.183 903.859 128.194L903.863 128.201V128.203C904.15 128.849 904.368 129.341 904.487 129.578C907.051 133.016 911.539 146.554 913.248 154.505L914.316 160.737V162.241L914.103 163.746L913.462 166.754C909.855 181.928 908.47 186.675 907.906 188.458C907.692 189.532 906.474 194.373 905.128 199.417C904.714 200.903 904.312 202.389 903.906 203.886L903.902 203.892C901.953 211.061 899.94 218.476 896.581 227.362C895.086 232.519 888.034 252.504 886.966 253.793C886.868 254.064 886.286 255.502 885.479 257.505L885.466 257.531C884.85 259.057 884.103 260.908 883.333 262.818C882.615 264.603 881.906 266.437 881.261 268.094L881.256 268.107C880.303 270.563 879.5 272.629 879.06 273.563C878.667 274.453 878.197 275.674 877.769 276.786C877.449 277.629 877.15 278.41 876.923 278.935C876.658 279.53 876.047 280.668 875.291 282.071L875.282 282.085C874.547 283.451 873.675 285.066 872.863 286.671C872.406 287.585 871.974 288.434 871.59 289.185C870.59 291.149 869.927 292.442 870.086 292.473C870.62 292.535 874.658 292.376 880.282 292.154C886.551 291.907 894.791 291.582 902.351 291.399C908.398 291.23 918.197 291.1 927.987 290.971C933.325 290.901 938.654 290.83 943.376 290.754C956.761 290.537 971.504 290.24 976.068 290.109L983.974 289.894L984.709 288.814C985.188 286.205 988.966 274.553 991.141 268.987C995.53 257.813 1002.44 245.508 1008.56 237.899C1009.3 236.986 1010.56 235.421 1011.39 234.377C1014.04 231.073 1021.38 224.029 1026.12 220.203C1035.68 211.675 1047.29 205.537 1058.55 201.145C1059.95 200.584 1061.3 200.091 1062.28 199.735L1062.29 199.735C1062.97 199.484 1063.48 199.301 1063.68 199.211C1064.15 198.994 1066.63 198.016 1069.02 197.277C1098.29 187.392 1132.12 188.761 1158.97 200.501C1166.41 203.762 1175.92 209.104 1179.7 212.105C1180.26 212.533 1181.05 213.025 1181.82 213.499C1182.37 213.842 1182.91 214.176 1183.33 214.468C1184.17 215.025 1184.97 215.871 1185.53 216.454C1185.67 216.599 1185.8 216.728 1185.9 216.832C1186.12 217.037 1186.55 217.33 1187.09 217.694V217.696L1187.09 217.697L1187.1 217.699C1187.93 218.264 1189.01 218.998 1189.96 219.841L1194.44 223.116H1197.01C1198.07 223.116 1199.93 222.98 1202.12 222.82H1202.12C1204.05 222.68 1206.22 222.521 1208.33 222.419C1210.59 222.312 1213.71 222.217 1217.01 222.117H1217.02L1217.02 222.117C1220.4 222.014 1223.96 221.907 1226.92 221.775C1229.63 221.654 1233.12 221.463 1236.65 221.27L1236.65 221.27C1240.77 221.044 1244.91 220.817 1247.86 220.7C1250.96 220.554 1255.01 220.437 1258.92 220.325C1261.98 220.236 1264.94 220.151 1267.31 220.055C1288.25 219.143 1291.82 218.62 1298.08 216.402C1302.6 214.794 1307.57 212.246 1312.66 207.42C1315 205.162 1318.69 201.703 1321.95 198.652L1322.52 198.115C1326.82 194.115 1337.34 184.288 1343.16 178.81C1345.39 176.695 1346.88 175.169 1347.98 174.053V174.05L1347.98 174.049V174.047C1350.12 171.864 1350.72 171.249 1352.33 170.846L1354.49 170.631L1352.33 167.505C1352.2 167.362 1352.07 167.219 1351.94 167.076L1351.75 166.868L1351.5 166.592C1351.25 166.314 1351 166.039 1350.74 165.767C1347.94 162.695 1345.5 160.028 1344.87 158.597C1344.63 158.054 1344.65 156.231 1344.67 154.319V154.287C1344.68 153.763 1344.68 153.234 1344.68 152.722C1344.68 148.809 1344.81 148.157 1346.38 144.374C1349.72 136.156 1351.2 133.46 1353.63 131.069C1357.37 127.416 1356.98 125.764 1350.9 119.547C1345.42 113.981 1344.4 113.977 1336.97 114.76C1326.93 115.76 1313.35 115.677 1291.28 115.285C1279.2 115.068 1267.94 114.72 1266.25 114.459C1265.5 114.361 1264.22 114.274 1262.71 114.171C1260.89 114.046 1258.74 113.9 1256.84 113.685C1248.84 112.729 1240.48 110.633 1234.09 108.546C1228.31 106.677 1224.62 104.329 1211.5 94.4154C1205.59 89.9367 1205.32 89.8065 1201.72 89.0238C1199.68 88.5889 1197.72 88.1106 1197.37 87.9803C1197.03 87.8497 1194.76 87.1977 1192.38 86.5453C1188.07 85.3277 1186.03 84.7192 1170.65 79.8494C1166.35 78.5016 1160.09 76.5886 1156.74 75.632C1153.4 74.6753 1150.27 73.7624 1149.79 73.5449C1149.31 73.3275 1145.62 72.1972 1141.53 71.023C1138.61 70.142 1135.14 69.1015 1132.62 68.3463L1130.24 67.6316C1125.5 66.2404 1116.07 63.5444 1108.94 61.5877C1106.91 61.0006 1103.66 60.1062 1100.66 59.2785L1100.65 59.2776C1099.44 58.9411 1098.26 58.6157 1097.21 58.3269C1087.39 55.5441 1075.22 52.3268 1069.62 50.9352C1066.88 50.2398 1061.19 48.7614 1057.02 47.6744C1052.85 46.5437 1047.37 45.1525 1044.85 44.5873C1043.46 44.2504 1041.85 43.8739 1040.45 43.546L1040.44 43.5434C1039.31 43.2791 1038.32 43.0466 1037.68 42.8915C1036.25 42.5436 1033.33 41.8479 1031.16 41.3697C1029.03 40.8914 1024.51 39.8478 1021.17 39.0217C1010.52 36.4129 1005.65 35.326 999.876 34.152C996.791 33.5433 994.141 32.978 994.009 32.8911C993.833 32.8042 992.662 32.5432 991.359 32.3258C990.056 32.1084 984.145 30.9344 978.15 29.717C958.551 25.7603 940.474 22.4994 928.611 20.7167C926.004 20.3254 922.355 19.7166 920.573 19.4123C918.791 19.0644 915.573 18.5861 913.402 18.3253C911.274 18.0644 907.056 17.4992 904.06 17.0209C898.496 16.1513 895.974 15.8469 871.902 13.1077C869.859 12.8468 864.603 12.3685 860.171 12.0207C857.833 11.8372 855.372 11.6537 853.342 11.5021C851.521 11.3663 850.047 11.2562 849.308 11.1946C848.415 11.12 846.214 10.9603 843.513 10.7641ZM660.256 27.5149C663.906 26.167 665.974 24.7168 663.278 22.7167C663.077 22.5645 662.838 22.3611 662.577 22.1387C661.945 21.5988 661.18 20.9463 660.47 20.6384L658.547 19.9938L654.197 21.6298C651.94 22.4559 649.59 23.3254 648.983 23.5863C648.376 23.8472 647.333 24.3255 646.594 24.6734C646.145 24.8698 645.081 25.302 643.868 25.7942L643.863 25.795C643.201 26.0649 642.491 26.3529 641.812 26.63C637.991 28.1083 629.256 31.8911 624.303 34.239C622.564 35.0651 621.043 35.7173 620.957 35.7173C620.868 35.7173 618.654 36.7173 616.09 37.9348C613.526 39.1522 610.137 40.7609 608.573 41.4566C602.227 44.3699 599.662 45.5874 590.321 50.1525C574.286 58.0226 559.598 65.414 545.128 72.9798C542.607 74.3276 539.218 76.1103 537.526 76.9797C535.872 77.8492 534.393 78.6318 534.265 78.7625C534.133 78.8931 533.44 79.2842 532.744 79.6757C518.231 87.1977 482.774 106.546 481.034 107.894C480.816 108.068 479.338 108.894 477.774 109.72C476.483 110.41 475.282 111.05 474.167 111.644C465.944 116.028 462.474 117.877 462.821 118.413C462.906 118.587 469.966 119.014 479.701 119.058L496.795 118.843L499.573 117.553C519.692 103.814 544.444 87.4955 554.915 81.452C555.286 81.2401 556.368 80.574 557.556 79.8395C558.321 79.368 559.133 78.8686 559.829 78.4436C564.436 75.6173 578.816 67.1842 585.684 63.4013C601.803 54.4881 616.782 46.8794 629.214 41.0529C630.803 40.3008 632.393 39.5543 633.714 38.934C634.38 38.6218 634.974 38.3416 635.47 38.1087C636.906 37.413 638.333 36.7551 638.462 36.7551C638.577 36.7551 639.457 36.3484 640.539 35.847C641.098 35.5876 641.714 35.3028 642.308 35.036C645.393 33.5576 654.957 29.4714 660.256 27.5149ZM834.534 24.4125C831.534 24.1516 825.103 23.8037 820.192 23.5863C797.162 22.4993 767.308 22.7602 750.231 24.1516C745.581 24.5429 740.282 24.9777 738.5 25.1082C725.983 26.0647 697.521 30.3692 690.047 32.4563C689.402 32.6476 688.483 32.852 687.564 33.0551C686.816 33.2213 686.073 33.3868 685.483 33.5433C676.013 36.1521 662.889 40.761 653.979 44.3699C651.59 45.37 649.504 46.1526 649.329 46.1526C649.201 46.1526 647.637 46.8046 645.855 47.6306C644.115 48.4571 640.641 49.9789 638.12 51.0658C618.261 59.5007 581.5 79.1974 560.987 92.4152C560.111 93.0019 557.962 94.3703 555.675 95.8246L555.671 95.8281L555.615 95.8629L555.492 95.9437L555.453 95.9678C554.761 96.4074 554.06 96.8527 553.385 97.285C544.521 102.894 524.915 116.454 522.436 118.628C522.218 118.821 534.295 118.8 545.85 118.779H545.859C555.111 118.763 564.03 118.747 566.026 118.843C567.735 119.058 568.158 118.938 568.158 118.721C568.158 118.503 561.91 118.413 552.35 118.413L549.389 118.413C536.487 118.416 533.855 118.417 533.974 117.768C534.107 117.029 540.47 112.121 552.778 104.445L558.598 100.894V98.6328C558.598 96.7199 558.816 96.0675 559.902 94.7631C561.509 92.8063 562.812 92.3718 568.594 92.0675L572.436 91.3369L577.778 88.3285C581.769 85.9475 583.868 84.6233 585.594 83.5356L585.598 83.5343C588.154 81.9218 589.889 80.8297 595.727 77.584C596.081 77.3949 596.65 77.0962 597.325 76.7421L597.329 76.7403L597.338 76.736C598.991 75.87 601.274 74.6753 602.564 73.936C613.252 67.8925 636.111 56.31 649.786 51.1526C651.453 50.4787 653.192 49.6776 654.265 49.1821C654.65 49.0063 654.944 48.8688 655.128 48.7889C656.346 48.2237 659.547 46.7981 666.239 44.2762C669.197 43.1459 678.829 39.7861 685.043 37.8296C691.996 35.6121 700.855 33.5518 711.325 31.8127C712.735 31.5817 714.483 31.2499 715.949 30.9722C716.962 30.7793 717.842 30.6124 718.376 30.5233C725.893 29.2624 740.868 28.1311 758.12 26.8702C770.513 25.366 815.201 26.1285 828.846 27.0851C853.791 28.7808 874.393 30.4957 890.385 32.8871C891.445 33.0412 892.855 33.2856 894.325 33.5404L894.333 33.5419L894.338 33.542C896.184 33.862 898.124 33.9739 899.573 34.1674C900.009 34.2246 900.603 34.2954 901.282 34.3823C904.739 34.8231 910.97 35.847 916.453 36.7551C920.645 37.4772 924.594 38.1649 927.137 38.68C928.573 38.9714 929.492 39.047 929.915 39.1098C934.389 39.849 962.107 45.7555 971.795 47.9293C982.137 50.2772 989.445 51.9086 992.094 52.6478C992.868 52.8541 994.577 53.4511 996.581 53.9372H996.795C998.167 54.2694 999.496 54.6854 1000.85 55.0206C1011.59 57.7162 1023.35 60.9103 1035.04 64.4758C1037.56 65.2524 1039.68 66.0346 1041.03 66.5331C1041.8 66.8159 1042.32 67.0072 1042.52 67.0544C1043.04 67.1412 1043.88 67.3101 1044.23 67.4842C1044.37 67.556 1044.52 67.6514 1044.67 67.7468C1044.96 67.9381 1045.25 68.1289 1045.51 68.1289C1046.77 68.1289 1051.86 69.9198 1052.99 71.1373C1054.99 73.3111 1053.42 77.584 1049.57 82.0967C1048.75 83.1402 1045.9 86.4052 1043.16 89.188C1039.26 93.0986 1037.39 93.9895 1035 95.1383L1034.75 95.2552L1034.57 95.3442L1034.42 95.4151C1026.77 99.1112 1019.12 100.902 1000 102.511C996.727 102.784 993.521 102.97 991.222 103.103C989.496 103.202 988.278 103.273 987.923 103.329C987.098 103.459 981.321 103.937 975.107 104.415C971.906 104.662 969.026 104.904 965.97 105.16C959.312 105.718 951.833 106.345 938.462 107.239C936.637 107.357 933.547 107.874 929.774 107.666H929.769L929.761 107.667L929.752 107.667C926.714 107.804 923.393 107.953 920.355 108.112C915 108.39 908.479 108.779 904.192 109.035L904.18 109.036L904.158 109.037L904.145 109.038L904.115 109.04L901.453 109.198C897.756 109.459 894.239 109.633 893.675 109.633C892.675 109.633 892.628 109.677 893.41 110.503C893.889 111.013 894.556 110.986 895.782 110.934C896.231 110.916 896.752 110.894 897.368 110.894C901.145 110.894 915.752 109.955 927.137 109.173C930.286 108.955 934.671 108.776 938.769 108.608L938.774 108.608C941.231 108.507 943.59 108.411 945.513 108.313C950.641 108.052 956.633 107.456 958.761 107.239C960.932 106.978 965.966 106.597 969.658 106.379C986.607 105.249 1001 103.869 1022.86 101.652C1034.73 100.478 1042.21 98.7661 1048.29 94.7661C1051.2 92.8532 1057.71 86.0223 1061.75 81.0222C1061.98 80.7407 1062.21 80.4665 1062.43 80.1992V80.1975C1064.82 77.284 1066.54 75.1918 1066.58 73.7186C1066.58 72.5448 1064.97 70.8055 1062.84 69.7186C1061.1 68.8492 1052.59 65.9791 1044.41 63.5444C1041.89 62.8052 1039.38 61.9792 1038.81 61.7617C1038.24 61.5008 1036.68 61.0659 1035.33 60.7182C1033.99 60.4139 1031.25 59.6747 1029.21 59.0661C1022.34 57.0226 1005.91 52.6311 1002.27 51.805C1001.44 51.631 997.137 50.5875 992.705 49.5006C988.274 48.3698 981.927 46.848 978.581 46.1092C977.222 45.8083 975.688 45.4645 974.209 45.1327L974.188 45.128C972.039 44.6467 970.013 44.1919 968.803 43.9349C957.419 41.3697 932 36.4999 923.611 35.239C922.047 35.0216 920.526 34.7607 920.18 34.6303C919.312 34.2824 903.756 31.9345 894.5 30.6736C890.068 30.1084 886.154 29.5431 885.808 29.4126C885.462 29.3257 879.68 28.63 872.987 27.9343L870.927 27.7066L870.919 27.7059L870.915 27.7051L870.91 27.7048C864.88 27.0392 858.962 26.3856 857.128 26.1517C855.086 25.9343 850.393 25.4995 846.701 25.2821C843.004 25.0212 837.53 24.6299 834.534 24.4125ZM991.838 24.8472C991.009 24.6299 988.359 24.0646 986.013 23.5863C981.235 22.5923 981.137 22.7286 980.457 23.6526C980.363 23.7794 980.257 23.9211 980.128 24.0767C979.782 24.7723 979.158 25.9596 978.419 26.6553C978.098 27.0851 978.03 27.1438 977.996 27.1732C977.962 27.2025 977.962 27.2026 977.778 27.5133V27.5149C977.778 27.8192 979.077 28.065 983.12 28.8042C986.641 29.4564 989.992 30.3494 990.598 30.5233C991.205 30.7407 993.043 31.2064 995.086 31.5978C995.47 31.6714 995.94 31.7596 996.474 31.8593C998.769 32.2892 1002.2 32.9318 1004.7 33.5318C1006.34 33.8957 1008.12 34.3011 1009.69 34.6609L1009.7 34.6635L1009.71 34.6663C1011.14 34.9922 1012.4 35.2802 1013.25 35.4658C1015.03 35.8571 1017.5 36.4507 1018.59 36.7551C1019.68 37.0594 1022.45 37.6531 1024.36 38.0444C1028.4 38.8706 1040.09 41.7469 1052.56 44.9209C1055.24 45.6029 1058.44 46.3537 1061.28 47.0203L1061.29 47.0225L1061.3 47.0242C1063.53 47.5459 1065.53 48.0157 1066.88 48.3591C1074.92 50.4027 1084.09 52.9895 1087.39 53.9462C1087.99 54.119 1088.73 54.3343 1089.59 54.5844L1089.59 54.5853C1093.28 55.6593 1099.17 57.3758 1105.68 59.1035C1107.91 59.6855 1111.1 60.6305 1113.58 61.3633L1113.59 61.3659C1114.44 61.6177 1115.2 61.8447 1115.81 62.0226C1117.03 62.4008 1118.85 62.9062 1120.85 63.4615L1120.86 63.4623C1122.77 63.9923 1124.84 64.5686 1126.71 65.1204C1128.77 65.7054 1130.88 66.249 1132.63 66.7012C1134.14 67.0897 1135.39 67.4107 1136.11 67.6316C1136.91 67.8551 1138.3 68.2728 1139.75 68.7095L1139.76 68.7117L1139.77 68.7121C1141.13 69.1247 1142.56 69.5527 1143.59 69.848C1147.77 71.0471 1149.7 71.6625 1153.57 72.8998L1153.58 72.9007C1156.03 73.6825 1159.25 74.7126 1164.32 76.2947C1171.35 78.5123 1177.17 80.1601 1177.99 80.3776C1178.41 80.4884 1179.42 80.8645 1180.58 81.2986C1181.7 81.7155 1182.95 82.1856 1183.97 82.5264C1193.27 85.5701 1199.51 87.0215 1208.55 88.5433C1214.68 89.5868 1221.34 90.1976 1220.51 89.4149C1220.5 89.3995 1220.48 89.3861 1220.47 89.3732C1220.46 89.3642 1220.45 89.3552 1220.45 89.347L1220.43 89.3277C1220.27 89.145 1220 89.0561 1211.82 86.3614L1211.81 86.3562C1207.39 84.8997 1200.67 82.6842 1190.42 79.2842C1177.38 74.9795 1165.26 71.023 1163.48 70.5013C1163.06 70.368 1162.63 70.2344 1162.22 70.1059C1160.89 69.6885 1159.72 69.3194 1159.35 69.1535C1158.61 68.8492 1153.66 67.3273 1148.05 65.7183C1147.73 65.6164 1146.35 65.1974 1144.35 64.5922L1144.34 64.5888C1142.09 63.9067 1139.06 62.9892 1135.88 62.0226C1125.72 58.8921 1115.94 56.0659 1112.81 55.2832C1112.03 55.1092 1111.25 54.8483 1111.03 54.7181C1110.81 54.5874 1108.42 53.892 1105.68 53.1528C1102.95 52.4136 1097.86 51.0224 1094.39 50.0223C1087.39 48.0655 1076.96 45.2827 1075.27 44.9784C1074.66 44.8916 1073.79 44.6308 1073.31 44.4133C1072.83 44.1958 1070.1 43.4566 1067.23 42.7176C1064.85 42.1394 1060.27 40.9607 1056.18 39.905L1056.01 39.8621L1055.8 39.8097C1055.1 39.6284 1054.41 39.4515 1053.76 39.2826C1042.41 36.326 1034.29 34.4129 1033.21 34.4129C1032.73 34.4129 1032.21 34.2389 1032.07 34.0215C1031.9 33.8042 1030.99 33.4998 1029.94 33.3259C1028.94 33.1519 1025.77 32.4563 1022.91 31.7606C1020.04 31.0649 1015.43 29.9779 1012.69 29.3692C1009.96 28.804 1006.22 27.9343 1004.44 27.4995C1002.65 27.0213 999.44 26.3691 997.269 25.9778C995.137 25.5865 992.662 25.0647 991.838 24.8472ZM831.056 29.1518C828.534 28.9779 819.064 28.717 809.979 28.5865L808.312 28.5589C783.41 28.1459 776.573 28.0325 769.752 28.2785C767.171 28.3715 764.59 28.516 761.039 28.7151L761.034 28.7151L760.227 28.7605C750.97 29.2822 733.85 30.7606 729.372 31.4128C727.808 31.6736 724.855 32.0215 722.812 32.2389C720.727 32.4563 718.291 32.8041 717.38 33.065C716.868 33.2043 715.761 33.2568 714.526 33.3153C713.449 33.3663 712.278 33.4217 711.325 33.5433C707.107 34.089 702.017 35.4567 697.564 36.6529C696.697 36.8862 695.855 37.1131 695.043 37.326C692.786 37.9348 690.35 38.5435 689.611 38.6739C688.919 38.7609 688.137 39.0218 687.876 39.1957C687.658 39.3696 685.18 40.1522 682.445 40.9349C679.705 41.7175 676.752 42.5871 675.923 42.8915C675.188 43.2017 673.175 43.9268 671.205 44.6351L670.492 44.8916C665.107 46.8046 658.889 49.1525 658.021 49.6308C657.633 49.8483 655.59 50.6743 653.457 51.5003C643.376 55.4573 614.393 69.2837 606.487 73.936C605.227 74.6753 604.094 75.2838 604.009 75.2838C602.966 75.2838 575.547 91.3283 575.547 91.8935C575.547 92.0675 579.5 92.2846 584.368 92.3284L593.145 92.4586L593.274 101.328C593.363 107.198 593.231 110.372 592.927 110.677C592.624 110.981 589.06 111.242 583.671 111.372L574.893 111.59L574.504 114.112C574.453 114.524 574.402 114.851 574.363 115.109V115.111C574.274 115.725 574.235 115.958 574.359 116.049C575.427 116.049 686.269 114.217 738.675 112.826C747.662 112.559 759.355 112.277 769.107 112.042H769.115C773.65 111.933 777.756 111.834 780.983 111.751C798.44 111.321 820.043 110.364 841.423 109.417L842.094 109.388C845.18 109.266 848.684 109.187 851.735 109.118C854.145 109.064 856.274 109.015 857.692 108.958C863.722 108.586 870.107 108.391 874.966 108.242C878.547 108.133 881.299 108.048 882.479 107.938C882.641 107.886 882.791 107.853 882.927 107.822C883.5 107.693 883.876 107.61 884.402 106.379C884.949 105.128 886.039 101.915 887.304 98.1923L887.308 98.1777C888.15 95.6923 889.073 92.9817 889.957 90.4773C890.915 87.7379 892.133 85.1077 892.308 84.8902C892.526 84.6294 892.945 83.1376 893.162 82.3116C893.321 81.8079 893.65 81.045 894 80.2306V80.2276C894.222 79.7075 894.453 79.1664 894.658 78.6584C895.094 76.1778 898.111 68.382 900.791 61.4557C902.06 58.183 903.252 55.104 904.06 52.8717C904.842 50.6979 906.021 47.8115 906.41 46.8549C908.017 43.1158 909.705 38.3488 909.402 38.0444C908.987 37.6986 908.107 37.586 903.235 36.9634C901.983 36.8034 900.466 36.6096 898.628 36.3695C894.107 35.8043 887.633 34.9346 884.286 34.4564C874.598 33.065 867.342 32.2389 864.778 32.2389C863.474 32.2389 861.953 32.065 861.389 31.8041C860.517 31.4562 848.568 30.4127 831.056 29.1518ZM915.53 42.4567C916.573 40.1957 916.616 39.7174 915.966 39.4566C914.573 38.9348 914.329 39.2727 913.675 40.838C913.419 41.4065 912.329 44.375 910.876 48.3307C910.107 50.4255 909.235 52.797 908.333 55.2355C907.162 58.3725 906.004 61.4824 905.034 64.0988L905.021 64.1319L905.004 64.1848L904.979 64.2497L904.949 64.3279C903.769 67.5109 902.872 69.9262 902.564 70.7075C902.043 72.1426 901.457 73.967 901.282 74.5755C901.158 75.0148 900.927 75.5546 900.692 76.0987V76.1021C900.603 76.3106 900.513 76.5199 900.427 76.7244C900.218 77.2084 899.825 78.3013 899.436 79.4045C899.261 79.8868 899.09 80.3711 898.932 80.8073C898.41 82.2424 897.739 84.0642 897.436 84.8902C896.312 87.8561 895.162 90.8732 894.086 93.7046L894.077 93.7239L894.073 93.7355C891.158 101.391 888.761 107.684 888.761 107.938C888.761 108.72 891.021 108.329 891.282 107.546C891.543 106.763 892.628 103.938 893.239 102.459C893.761 101.155 896.586 93.4587 898.235 88.8932C899.013 86.7379 900.128 83.7281 900.697 82.1934L900.701 82.1874L900.705 82.177V82.1753L900.714 82.1538C903.017 76.2405 904.539 72.1533 907.274 64.6313C907.517 63.9759 907.769 63.3111 908.013 62.6501C909.385 58.972 910.714 55.4126 911.227 54.1963C911.598 53.2564 912.175 51.6636 912.748 50.0778C913.047 49.2423 913.351 48.4094 913.62 47.6744C914.359 45.5002 915.227 43.1523 915.53 42.4567ZM934.261 42.6741C932.128 42.1958 927.829 41.4566 924.701 40.9349C921.615 40.4566 918.833 40.0653 918.573 40.0653C918.162 40.6231 917.094 44.2762 916.88 45.1357C916.88 45.2655 916.744 45.498 916.568 45.7955V45.7967C916.393 46.0967 916.18 46.4625 916.026 46.8549C915.782 47.4058 915.295 48.6831 914.769 50.0588L914.756 50.0868C914.543 50.6558 914.316 51.2407 914.103 51.7973C913.923 52.2933 913.705 52.9027 913.462 53.5792V53.5822C912.769 55.5157 911.885 57.9994 911.111 59.9631C910.692 61.056 910.205 62.2641 909.752 63.3889C909.124 64.9485 908.56 66.347 908.333 67.0544C906.423 72.3592 904.462 77.5539 903.419 80.1627C899.786 90.0476 893.474 107.372 893.645 107.546C893.748 107.649 897.432 107.43 902.996 107.099L903.013 107.098C904.517 107.008 906.162 106.911 907.906 106.809C915.068 106.392 922.769 105.854 926.295 105.608C926.812 105.572 927.239 105.542 927.564 105.52C934.385 105.172 965.158 102.992 973.718 102.296C975.133 102.189 977.141 101.99 979.218 101.784C981.355 101.573 983.56 101.354 985.256 101.222C986.808 101.099 988.432 101.01 989.778 100.936C991.299 100.853 992.457 100.789 992.735 100.72C993.214 100.59 996.765 100.28 1001.28 99.9325C1018.84 98.4979 1030.24 96.153 1036.54 92.1965C1038.24 91.153 1040.81 88.4372 1046.15 82.7413C1048.8 79.8717 1051.37 76.4146 1051.37 74.8927C1051.37 73.2407 1049.2 71.5013 1045.41 70.197C1040.07 68.2836 1024.56 63.6751 1015.95 61.3706C1014.94 61.0926 1013.87 60.8042 1012.88 60.5334C1011.07 60.0417 1009.48 59.6102 1008.78 59.4138C999.615 56.6744 958.855 47.3263 944.252 44.6308L942.573 44.3033L942.551 44.299C939.517 43.7076 936.081 43.0384 934.261 42.6741ZM1223.23 91.5892C1220.36 91.4585 1216.36 91.1108 1214.32 90.8934C1212.28 90.6759 1211.72 90.608 1210.9 90.4773H1209.4L1210.58 91.2411C1212.32 92.9804 1223.49 101.153 1227.14 103.371C1229 104.458 1231.56 105.814 1233.12 106.379C1237.64 108.031 1247.26 110.153 1252.78 110.892C1255.56 111.24 1258.42 111.665 1258.55 111.751C1258.68 111.838 1263.42 112.65 1268.59 113.041C1283.02 114.084 1323.98 113.654 1334.19 112.611C1338.36 112.176 1343.71 112.222 1344.44 112.396C1346.59 112.841 1347.64 113.929 1350.62 117.05L1350.63 117.053C1351.14 117.588 1351.71 118.182 1352.35 118.843C1353.85 120.402 1355.03 121.396 1355.88 122.124C1356.97 123.04 1357.56 123.537 1357.68 124.215C1357.77 124.698 1357.82 125.111 1357.86 125.453V125.455C1358.02 126.65 1358.06 126.972 1358.97 126.364L1359.09 126.204C1360.1 124.78 1360.88 123.686 1360.59 121.59C1360.06 118.155 1353.89 109.938 1350.64 108.372C1348.38 107.285 1339.86 106.894 1300.92 105.981C1279.5 105.459 1274.16 105.198 1271.59 104.633C1268.64 103.937 1266.07 103.155 1250.61 98.3719C1247.52 97.4153 1243.78 96.3283 1242.35 95.9372L1241.77 95.7782C1239.05 95.0339 1238 94.7446 1232.79 93.1978C1229.57 92.2412 1227.1 91.8066 1223.23 91.5892ZM579.021 108.024C577.803 105.72 577.586 98.1592 578.846 95.4198L579.06 94.5602L579.274 93.6328H574.765C564.466 93.8064 563.248 93.9371 561.944 94.9806C560.697 95.9811 560.65 97.521 560.551 100.663V100.671C560.53 101.349 560.509 102.102 560.47 102.941C560.633 108.993 563.124 109.033 570.363 109.148C570.821 109.156 571.299 109.163 571.795 109.173C576.359 109.26 579.274 109.088 579.274 108.958C579.274 108.93 579.286 108.911 579.295 108.889C579.338 108.813 579.397 108.707 579.021 108.024ZM592.231 102.242C592.406 97.937 592.406 94.2413 592.278 93.9805C592.103 93.7196 590.017 93.5455 587.368 93.5455C582.107 93.5455 581.385 94.2306 580.342 96.7091C579.385 98.9702 579.983 105.673 580.983 107.239C581.953 108.697 582.479 108.702 584 108.718C584.795 108.726 585.855 108.737 587.393 108.958L591.88 108.743L592.231 102.242ZM566.987 111.372C561.509 111.329 558.945 109.242 558.945 104.807C558.992 103.633 558.859 102.589 558.684 102.503C558.513 102.416 556.688 103.415 554.688 104.807C545.432 111.025 538.855 115.527 538.248 116.049C537.974 116.321 538.346 116.31 540.667 116.236C542.795 116.169 546.568 116.049 552.992 116.049L569.231 115.834L569.419 114.851L569.462 114.653C569.838 112.952 570.017 112.132 569.688 111.738C569.385 111.371 568.645 111.371 567.214 111.372H566.987ZM891.509 111.302C891.534 111.236 891.406 111.116 891.197 110.894C890.543 110.155 889.808 110.068 884.765 110.111C882.338 110.145 877.338 110.413 872.479 110.674C871.568 110.723 870.662 110.771 869.778 110.818L868.376 110.892C851.257 111.761 839.017 112.294 800.214 113.685C779.705 114.425 736.85 115.525 702.564 116.264C691.094 116.482 672.748 116.863 661.752 117.124C653.551 117.519 637.966 117.584 622.915 117.646C617.872 117.667 612.889 117.688 608.265 117.721C580.543 117.981 574.59 118.112 574.201 118.633C573.945 118.914 575.133 118.893 580.026 118.811C583.492 118.753 588.812 118.664 596.795 118.628C673.291 117.983 778.774 116.041 850.427 113.041C853.551 112.925 857.91 112.702 862.265 112.479C866.086 112.283 869.898 112.088 872.863 111.966C875.915 111.862 879.043 111.789 881.709 111.726C884.59 111.659 886.927 111.604 888.034 111.536C889.312 111.43 890.167 111.41 890.709 111.397C891.252 111.384 891.483 111.379 891.509 111.302ZM436.581 117.634C430.889 115.764 428.709 113.503 431.838 111.894H421.284C388.172 112.025 349.274 113.69 305.342 116.255C283.354 117.559 249.068 120.236 238.248 121.627C237.851 121.672 237.332 121.56 236.752 121.627L236.111 121.842C233.897 122.098 231.102 122.184 228.348 122.46C224.871 122.808 220.7 123.286 219.005 123.547C205.144 125.417 185.684 128.719 181.41 129.148C179.498 129.496 176.521 130.005 175 130.223C173.523 130.44 171.639 130.865 170.727 131.082C169.857 131.343 166.513 131.852 163.384 132.504C147.863 136.24 126.128 142.348 107.051 149.348C97.7086 152.783 89.5406 155.82 86.3248 157.299C85.1517 157.821 82.9312 159.01 81.4103 159.663C75.544 162.054 63.0261 168.17 55.7692 172.126C50.859 174.822 49.2141 177.201 49.2577 180.592C49.3013 182.245 50.8816 191.289 51.6201 192.419C52.191 193.276 52.7885 193.059 53.9791 192.627C54.6009 192.401 55.3842 192.117 56.4103 191.896C57.1303 191.664 57.847 191.738 58.4564 191.8C58.8761 191.844 59.2449 191.881 59.5286 191.81C61.2671 191.289 70.2184 189.767 77.3885 188.81L81.8376 187.598L87.1795 184.59C106.777 171.676 131.786 159.876 155.556 152.571C176.631 146.136 194.126 143.276 226.282 140.537C229.915 140.244 233.646 139.773 235.374 139.555C235.692 139.515 235.942 139.483 236.111 139.463C243.194 138.637 291.654 135.433 310.47 134.521C315.598 134.26 323.472 133.878 327.991 133.661C351.327 132.443 381.973 131.819 420.299 131.297C444.936 130.906 450.098 130.358 451.923 129.793C453.487 129.315 454.786 128.874 457.479 126.57C458.282 125.895 459.077 125.193 459.812 124.542L459.816 124.541C461.073 123.429 462.162 122.468 462.821 122.057C464.039 121.274 464.282 120.898 463.889 120.768C463.543 120.637 460.829 120.46 456.265 120.373C447.402 120.155 442.141 119.46 436.581 117.634ZM571.068 126.808C571.504 125.025 573.026 116.112 573.462 112.894C573.252 112.511 573.158 112.333 573.017 112.206C572.897 112.098 572.744 112.026 572.462 111.894C572.162 111.991 571.966 112.056 571.808 112.171C571.491 112.397 571.321 112.82 570.808 114.068C570.026 117.546 568.769 124.329 568.419 126.938L568.59 128.083L569.445 128.298C569.675 128.269 569.863 128.274 570.017 128.278C570.551 128.292 570.697 128.295 571.068 126.808ZM462.607 115.19C462 115.016 458.218 114.286 452.615 113.547C452.06 113.476 451.53 113.409 451.03 113.346L450.974 113.339C444.359 112.499 442.415 112.253 440.504 112.42C439.714 112.489 438.927 112.63 437.812 112.829L437.449 112.894C432.103 113.894 432.269 114.187 434.615 115.404C439.103 116.479 452.739 119.451 457.692 118.843C458.474 118.712 459.846 118.339 461.325 117.338C463.825 115.613 463.611 115.539 462.633 115.198L462.607 115.19ZM578.205 132.166L578.5 129.025L578.372 125.503L575.85 125.373C573.697 125.296 573.637 125.471 572.962 127.524C572.902 127.705 572.838 127.901 572.765 128.112C572.462 130.156 571.59 130.938 569.504 130.938C567.158 130.895 566.419 130.112 566.419 127.721V125.721H563.423C561.162 125.721 560.38 125.895 560.162 126.373C559.816 127.286 560.846 132.076 561.325 132.381C561.543 132.511 565.094 132.721 569.872 132.547L578.205 132.166ZM1382.71 179.656C1382.71 178.091 1366.81 155.795 1355.56 141.621C1353.51 139.099 1351.59 136.982 1351.33 136.852C1351.29 137.49 1351.24 137.587 1349.21 142.383L1348.72 143.555C1347.15 147.251 1346.97 148.639 1346.79 151.291C1346.42 156.471 1346.95 157.162 1349.59 160.641C1349.72 160.812 1349.86 160.99 1350 161.176C1356.13 169.307 1372.22 184.814 1375.43 186.318C1377.25 186.796 1378.94 187.101 1380.98 186.318L1382.48 185.458L1381.62 184.814C1380.58 183.379 1380.71 182.071 1382.05 181.375C1382.12 181.089 1382.27 180.812 1382.39 180.551C1382.56 180.225 1382.71 179.922 1382.71 179.656ZM1373.93 187.822C1372.24 187.126 1367.24 182.549 1360.32 175.853C1357.05 172.648 1356.59 172.68 1355.52 172.754C1355.34 172.766 1355.15 172.78 1354.91 172.78L1354.7 172.783C1352.21 172.816 1351.93 172.819 1340.81 183.309C1339.26 184.787 1337.61 186.374 1336.13 187.806L1336.11 187.828C1334.28 189.59 1332.7 191.115 1331.84 191.905C1331 192.694 1329.99 193.605 1329.09 194.421L1329.08 194.429V194.43C1328.29 195.14 1327.58 195.779 1327.14 196.203C1326.66 196.658 1325.71 197.52 1324.53 198.595L1324.52 198.597C1323.22 199.778 1321.63 201.215 1320.09 202.649C1306.88 214.998 1304.23 216.851 1296.79 218.981C1290.97 220.677 1287.74 220.954 1277.35 221.345C1259.93 222.084 1246.65 222.681 1237.61 223.116C1235.84 223.195 1233.2 223.334 1230.12 223.496H1230.12C1224.74 223.779 1218.03 224.132 1212.39 224.353C1206.98 224.565 1202.81 224.646 1200.21 224.696C1198.54 224.729 1197.51 224.749 1197.22 224.783L1195.51 224.998L1197.01 226.932C1205.53 236.15 1213.56 247.835 1217.95 257.661C1218.24 258.315 1218.56 259.081 1218.88 259.836C1219.32 260.888 1219.76 261.92 1220.09 262.604C1222.13 267.126 1225.95 278.594 1227.78 285.812C1230.47 296.464 1232.35 311.494 1232.69 327.93C1232.79 332.493 1232.78 335.441 1232.78 337.381V337.385C1232.78 340.84 1232.78 341.098 1233.33 341.599C1234.29 342.512 1235.5 342.765 1239.1 342.113C1239.9 341.984 1241.53 341.829 1243.41 341.652C1244.71 341.529 1246.12 341.396 1247.44 341.253L1247.57 341.239C1253.56 340.601 1253.71 340.586 1264.1 335.881C1267.01 334.533 1275.93 331.729 1281.84 330.294C1286.88 329.033 1293.11 327.73 1301.71 326.426C1302.48 326.305 1303.17 326.196 1303.84 326.091C1306.78 325.625 1309.26 325.234 1316.03 324.277C1335.26 321.268 1343.21 319.927 1350.64 316.97C1357.25 314.362 1360.95 311.7 1365.38 306.656C1366.65 305.217 1367.92 304.125 1368.4 303.717V303.715C1368.5 303.631 1368.56 303.576 1368.58 303.554C1368.71 303.423 1370.88 300.771 1373.36 297.684C1375.84 294.554 1379.44 290.075 1381.4 287.684C1386.79 280.944 1393.13 274.77 1396.09 273.336C1397.44 272.683 1398.56 271.944 1398.56 271.64C1398.56 271.479 1398.48 270.513 1398.37 269.176L1398.37 269.161V269.133L1398.36 269.048L1398.28 268.072C1398.23 267.521 1398.18 266.934 1398.13 266.335C1397.74 261.987 1397.52 261.117 1395.79 257.422C1393.31 252.204 1392.18 248.639 1391.4 243.769C1390.22 236.682 1390.66 232.16 1393.74 217.463C1394.74 212.811 1395.74 208.029 1395.96 206.854C1396.53 204.072 1396.53 199.984 1395.91 198.506C1395.39 197.028 1387.13 189.167 1385.04 188.037C1383.96 187.447 1383.6 187.596 1382.62 188.002C1382.29 188.135 1381.91 188.296 1381.4 188.467C1378.71 189.336 1375.64 188.781 1373.93 187.822ZM47.8633 186.094C46.7769 181.572 46.8637 179.018 47.8633 177.713C48.1239 177.409 48.1637 176.685 48.0769 176.424C47.9064 175.912 42.2909 179.869 36.2542 184.123L35.8974 184.375C31.1609 187.766 29.3282 189.375 29.024 191.81C28.6729 194.48 30.3077 205.939 31.5215 214.447C31.8098 216.469 32.0745 218.324 32.2831 219.855C32.3494 220.17 32.4199 220.492 32.4924 220.823C32.9909 223.097 33.585 225.807 33.547 229.716C33.547 234.474 33.0809 235.846 32.2236 238.367C32.0311 238.933 31.8189 239.557 31.5878 240.291C30.8491 242.682 29.1544 247.16 27.8073 250.247L25.4174 255.9V268.161C25.4174 275.292 25.6346 281.379 25.8953 282.64C26.7644 286.727 29.5963 288.977 33.3333 289.456C36.7521 289.456 37.15 290.771 37.15 291.988C37.15 293.249 36.2374 294.249 34.3689 295.032C32.6307 295.771 31.7182 297.119 30.6753 300.597C28.8502 306.597 28.7199 307.989 28.6764 318.12C28.633 327.729 28.5895 328.207 27.59 330.251C25.5912 334.338 27.286 335.903 31.1969 336.946C32.4136 337.294 37.2964 338.059 43.1628 338.45C85.9214 341.32 93.2586 342.066 105.556 345.327C113.551 347.414 123.314 348.98 132.265 348.98L136.325 348.55L136.112 346.401C136.039 345.559 136.021 342.9 135.998 339.374V339.372C135.979 336.526 135.956 333.116 135.898 329.64C135.594 315.205 135.782 313.418 137.607 300.2C138.867 291.156 142.439 276.496 146.176 267.322C149.783 258.583 156.295 246.893 160.684 240.676C168.419 229.762 179.025 218.886 188.889 211.451C190.758 210.059 191.537 209.046 191.667 208.872C191.797 208.655 191.055 207.984 189.317 206.723C186.538 204.747 184.185 202.539 181.774 200.275C179.886 198.503 177.962 196.697 175.768 194.941L175.724 194.905C170.292 190.549 170.068 190.369 167.251 187.984C166.078 186.984 164.818 186.158 164.514 186.158C163.906 186.158 162.471 187.288 154.041 194.289C143.162 205.219 130.446 211.507 121.016 214.55C118.974 215.246 116.932 215.942 116.454 216.159C115.976 216.377 114.02 216.942 112.108 217.42C95.5128 222.195 67.8299 226.057 63.2479 223.7C61.7269 222.917 60.4701 220.906 60.0427 218.542C59.7385 217.586 59.3184 216.439 59.188 216.178C59.1239 216.071 58.7376 214.859 58.1449 212.999C57.5316 211.074 56.697 208.456 55.7692 205.649C53.162 197.866 52.1513 195.428 51.2821 194.69C49.6321 194.191 49.3209 192.734 48.6248 189.473C48.4192 188.511 48.1803 187.392 47.8633 186.094ZM159.92 183.848C159.482 183.678 159.015 183.497 158.547 183.3C154.774 182.397 151.153 182.709 131.935 184.364C128.296 184.677 124.097 185.038 119.231 185.449C116.681 185.708 113.958 185.977 111.404 186.229L111.402 186.229C107.516 186.613 104.024 186.958 102.137 187.168C100.344 187.396 98.062 187.575 96.1145 187.729C94.7111 187.84 93.4812 187.937 92.735 188.028C86.3474 188.723 81.8299 189.527 79.7009 189.962C78.5278 190.179 76.0898 190.476 74.7863 190.607C67.5295 191.433 55.9141 194.378 54.9145 195.334C54.5671 195.638 59.0509 210.246 61.4842 216.507C63.7872 222.464 64.7991 222.418 74.359 221.766C97.8633 219.402 113.462 215.534 128.205 209.732C129.303 209.238 130.484 208.786 131.388 208.439C132.238 208.114 132.843 207.882 132.906 207.798C133.009 207.659 133.477 207.419 134.21 207.043C134.399 206.946 134.606 206.839 134.829 206.723C135.868 206.183 136.556 205.578 136.918 205.26L136.966 205.219C137.313 204.914 139.161 203.556 140.812 202.426C144.636 199.816 159.181 188.188 162.18 185.449C162.725 184.937 161.516 184.468 159.92 183.848ZM1395.27 281.101C1398.11 278.057 1399.59 276.462 1398.74 274.248C1398.61 273.857 1398.35 273.553 1398.18 273.553C1397.18 273.553 1393.74 275.988 1391.05 278.596C1387.66 281.921 1386.42 283.496 1382.32 288.707C1380.79 290.652 1378.87 293.104 1376.28 296.341C1369.34 305.02 1369.13 305.233 1365.55 308.854L1364.96 309.449C1360.44 314.015 1356.85 316.033 1351.07 318.294C1342.77 321.511 1333.91 323.337 1311.66 326.381C1285.45 329.99 1274.55 332.729 1259.03 339.512C1253.47 341.947 1252.78 342.164 1246.87 342.903C1243.44 343.338 1238.61 343.729 1236.18 343.729L1232.69 343.832L1232.74 345.766V345.912C1232.74 348.033 1232.74 348.179 1234.4 348.774C1235.18 349.035 1239.05 349.216 1247.65 348.129C1248.59 348.01 1249.98 347.816 1251.61 347.589C1254.73 347.154 1258.73 346.595 1262.18 346.195C1267.44 345.587 1272.71 344.909 1274.36 344.691C1274.91 344.62 1275.83 344.485 1276.95 344.319C1279.26 343.979 1282.45 343.508 1285.26 343.187C1289.43 342.709 1294.91 342.03 1297.65 341.683C1299.73 341.418 1302.65 341.086 1304.92 340.827L1304.94 340.826C1305.65 340.745 1306.3 340.671 1306.84 340.608C1307.04 340.585 1307.27 340.559 1307.5 340.532L1308.08 340.466C1310.42 340.199 1313.71 339.825 1315.6 339.534C1317.86 339.186 1324.36 338.245 1329.7 337.815C1347.12 335.511 1350.06 334.063 1354.85 331.705L1355.19 331.539C1355.45 331.413 1355.71 331.285 1355.98 331.153C1356.71 330.794 1357.35 330.518 1357.95 330.259C1359.82 329.455 1361.27 328.828 1363.68 326.426C1363.96 326.149 1364.25 325.867 1364.54 325.585C1364.82 325.307 1365.12 325.029 1365.4 324.754L1365.4 324.752L1365.41 324.748L1365.41 324.745L1365.41 324.74C1367.06 323.147 1368.6 321.665 1369.02 321.053C1369.51 320.337 1370.37 319.19 1371.18 318.088L1371.19 318.079C1372.31 316.576 1373.36 315.158 1373.36 315.033C1373.36 314.989 1374.97 312.206 1376.93 308.902C1382.84 298.902 1390.7 286.082 1395.09 281.299L1395.27 281.101ZM1391.24 307.086C1390.63 305.346 1390.09 304.085 1389.53 303.432C1389.38 303.264 1389.24 303.09 1389.09 302.917L1389.09 302.914C1388.71 302.464 1388.34 302.023 1388.03 301.713C1387.56 301.713 1386.95 301.735 1386.32 301.758H1386.32C1384.96 301.807 1383.49 301.86 1382.91 301.713C1382.6 301.974 1381.1 304.206 1379.49 306.989C1372.84 318.337 1369.97 323.337 1370.1 323.468C1370.45 323.859 1388.92 321.294 1390.22 320.728C1391.18 319.416 1391.22 318.958 1391.59 314.767L1391.67 313.946C1391.67 310.524 1391.67 310.094 1391.24 307.086ZM984.492 339.208C984.103 339.208 981.667 332.12 981.188 329.511C980.363 325.207 980.103 328.99 980.192 342.99L980.321 358.121L984.231 357.947C986.406 357.86 989.88 357.686 991.966 357.513L995.791 357.251L994.269 355.513C990.923 351.773 984.885 341.686 984.885 339.86C984.885 339.512 984.709 339.208 984.492 339.208ZM43.8944 340.315C30.2604 339.493 26.7093 339.279 25.214 336.731C25.0544 336.467 24.9383 336.23 24.8375 336.025C24.39 335.11 24.2468 334.818 21.941 335.599C10.9471 339.251 4.82013 342.468 2.73432 345.643C1.56106 347.382 1.73487 348.469 3.38613 349.425C6.38444 351.251 14.2931 352.991 22.8101 353.73C26.9817 354.121 31.9789 354.599 33.8909 354.86C35.8029 355.078 41.1043 355.469 45.6235 355.73C50.1863 355.947 57.3996 356.382 61.7013 356.643C70.3923 357.165 88.0346 356.947 93.4231 356.208C102.114 355.034 115.063 354.382 126.014 354.512H136.539L136.112 352.848V350.699L133.662 350.512C129.968 350.512 126.579 350.251 116.454 349.208C114.064 348.947 108.953 348.217 105.129 347.261L104.953 347.218C93.806 344.515 91.4325 343.94 76.4761 342.642C65.1342 341.686 58.8333 341.207 47.1444 340.512C46.0021 340.442 44.9192 340.376 43.8944 340.315ZM921.513 346.291C919.996 346.134 918.244 345.952 916.453 345.757C907.85 344.843 883.286 343.555 882.722 344.164C882.547 344.338 878.073 344.469 872.727 344.469C867.385 344.469 852.35 344.643 839.312 344.86C806.462 345.425 758.53 346.121 738.064 346.338C727.397 346.461 711.949 346.819 696.167 347.184H696.162C678.573 347.59 660.564 348.007 648.291 348.12C644.735 348.196 640.316 348.308 635.62 348.427L635.611 348.428H635.607C626.872 348.649 617.175 348.895 610.256 348.98C599.611 349.11 589.812 349.279 588.248 349.41C586.684 349.497 574.957 349.794 562.18 350.054C556.368 350.153 550.633 350.233 545.906 350.299C540.239 350.378 536.013 350.436 534.829 350.484C534.397 350.502 533.731 350.534 532.88 350.574H532.876C529.556 350.733 523.44 351.025 517.521 351.129C510.436 351.372 501.282 351.626 492.18 351.879H492.175C477.128 352.297 462.222 352.71 457.051 353.063C447.222 354.137 438.675 355.427 427.564 357.361C411.289 360.617 410.088 360.633 398.929 360.774L398.898 360.774C398.298 360.782 397.67 360.79 397.009 360.799L391.026 361.014L385.257 360.799L384.87 361.774C384.783 362.469 385.043 363.774 385.435 364.687L386.086 366.295L464.543 365.905L464.594 365.905L464.727 365.905H464.744L464.752 365.904C500.744 365.74 541.491 365.553 558.816 365.513C577.718 365.426 611.222 365.252 633.342 365.122C686.876 364.73 731.633 364.513 806.94 364.165C926.957 363.643 975.107 363.295 975.803 362.991C977.15 362.339 978.06 359.556 978.278 355.382C978.453 351.686 978.41 351.382 977.671 351.382C968.59 352.203 946.919 350.543 939.316 349.195C938.893 349.124 938.252 349 937.487 348.854C935.897 348.547 933.782 348.14 932.051 347.905C929.487 347.514 926.846 346.961 926.282 346.831C925.927 346.749 924.043 346.554 921.513 346.291ZM377.352 360.513C380.437 360.513 383.088 360.382 383.175 360.165C383.262 359.991 383.218 356.73 383.088 352.947L382.827 345.99L381.958 347.599C381.48 348.469 380.959 349.208 380.785 349.208C380.568 349.208 380.437 349.469 380.437 349.729C380.394 350.338 376.135 355.817 373.441 358.643L371.659 360.513H377.352ZM428.419 354.782C414.688 357.652 404.494 359.036 393.804 359.08C391.541 359.08 389.903 359.152 388.712 359.205H388.71C386.997 359.281 386.21 359.317 385.826 359.034C385.043 358.469 385 357.73 384.87 348.208L385.043 338.235L386.753 337.806C387.821 337.806 399.73 337.552 413.462 337.161C427.193 336.813 440.932 336.432 444.017 336.301C445.5 336.219 448.769 336.215 452.68 336.211H452.688C454.65 336.209 456.769 336.206 458.902 336.194C458.368 336.957 457.235 337.816 456.624 338.021C448.752 341.444 432.051 349.625 431.624 354.137C430.577 354.335 429.641 354.522 428.419 354.782ZM983.145 295.293C982.449 297.771 980.278 310.945 979.235 319.424C978.974 321.337 978.671 329.033 978.496 336.468L978.235 350.078L973.077 349.625C967.645 349.625 952.816 348.343 947.863 347.691C943.735 347.125 930.133 344.945 927.351 344.467C924.09 343.881 920.021 343.434 915.483 343.078C907.855 336.496 881.312 328.554 873.526 326.225L873.521 326.224C872.184 325.823 871.398 325.588 871.368 325.557C871.197 325.385 871.722 325.199 872.009 325.127L949.786 323.193L950.214 322.334L950 321.904L949.573 321.474L861.966 323.193C852.778 323.408 850.945 322.457 849.449 321.598C851.624 319.438 854.329 316.494 855.556 315.027C858.641 311.331 865.816 300.641 868.162 295.902C868.209 295.812 868.248 295.727 868.286 295.644C868.727 294.69 868.945 294.218 874.145 293.977C877.603 293.977 889.286 293.732 906.316 293.374C924.013 293.002 947.483 292.509 973.504 292.043C976.85 292 980.368 291.872 981.41 291.828C981.718 291.932 981.979 291.998 982.197 292.054C982.885 292.229 983.171 292.303 983.333 293.118C983.333 293.233 983.338 293.349 983.338 293.466C983.351 294.019 983.359 294.612 983.145 295.293ZM830.188 342.251C871.641 341.425 877.248 341.381 889.286 341.816C897.778 342.105 906.462 342.402 914.103 342.963C898.218 334.125 886.876 331.068 873.312 327.411C869.727 326.445 865.987 325.436 861.966 324.268C854.487 324.268 850.346 324.119 848.808 322.228C848.09 322.922 847.462 323.491 847.009 323.838C843.966 326.229 837.833 328.729 835.184 329.381C830.231 330.642 811.5 332.468 795.205 333.294C792.598 333.425 786.731 333.729 782.171 333.99C777.65 334.207 768.654 334.599 762.18 334.86C755.752 335.077 744.974 335.468 738.282 335.729C726.637 336.164 694.175 336.99 652.026 337.903C621.607 338.555 548.778 339.599 524.051 339.729L522.158 339.739C503.385 339.837 499.868 339.855 497.615 338.17C497.098 337.782 496.645 337.304 496.09 336.717L496.086 336.715L496.004 336.629L495.893 336.512L493.808 334.294L486.769 334.599C485.346 334.663 483.333 334.852 480.953 335.076C476.859 335.461 471.671 335.949 466.453 336.087C464.359 336.142 462.085 336.171 459.808 336.188C459.662 336.644 458.709 337.84 458.12 338.235C456.624 338.88 446.013 344.324 440.812 347.261L434.829 351.129C433.816 351.944 433.06 352.887 432.56 353.959C437.517 353.049 440.654 352.78 444 352.494C445.397 352.374 446.829 352.251 448.444 352.077C463.086 350.425 489.073 349.556 591.624 347.251C607.269 346.903 624.607 346.512 630.124 346.382C635.598 346.251 650.59 345.947 663.368 345.73C676.141 345.512 695.09 345.121 705.474 344.86C729.286 344.338 760.662 343.686 788.688 343.121C793.568 343.014 799.573 342.893 805.705 342.769C814.594 342.59 823.761 342.406 830.188 342.251ZM514.957 121.197C514.957 121.545 510.838 124.772 506.838 127.859C505.551 128.85 505.12 128.855 503.295 128.876C502.718 128.883 502 128.891 501.068 128.933C497.38 129.053 496.603 129.692 495.107 130.928C494.966 131.045 494.816 131.168 494.658 131.297C486.359 138.08 477.547 152.763 473.504 165.894C472.286 169.894 473.346 200.025 475.214 221.766C476.735 239.766 479.303 256.658 482.692 272.05C484.56 280.441 484.829 282.796 484.829 293.753C484.821 295.3 484.808 296.674 484.799 297.907C484.748 303.465 484.722 306.163 485.256 309.011C486.081 313.663 487.171 317.074 487.821 318.466C487.88 318.635 488.021 319.106 488.218 319.772C488.577 320.985 489.128 322.844 489.744 324.697C490.107 325.792 490.474 326.919 490.812 327.956L479.701 330.07L468.59 332.219C467.949 332.433 467.107 333.219 466.88 333.508C460.329 333.716 453.957 333.965 447.637 334.211C443.962 334.355 440.299 334.498 436.637 334.631C431.141 334.832 425.648 335.032 420.086 335.227C390.059 336.271 386.202 335.918 385.898 335.657C385.724 335.526 384.783 332.946 384.739 328.772C384.478 304.51 378.562 280.252 367.308 258.512C365.005 253.99 359.55 244.732 358.334 243.254C358.175 242.968 357.718 242.361 357.085 241.521C356.591 240.865 355.99 240.068 355.342 239.172C348.077 228.642 337.962 218.018 327.565 211.021C323.218 207.488 322.251 206.753 317.949 204.145C307.868 198.101 298.391 194.164 287.18 191.251C277.62 188.773 273.05 187.815 261.753 187.598C251.41 187.424 245.139 188.1 239.317 189.317C221.795 192.756 211.341 196.912 197.436 205.434L197.209 205.578C195.671 206.55 194.521 207.277 194.231 207.153C193.145 206.762 174.9 193.419 170.119 189.332C169.409 188.731 168.753 188.175 168.146 187.659L168.142 187.655L168.139 187.653C161.323 181.864 160.541 181.201 155.556 180.722C153.165 180.504 150.159 180.548 148.291 180.722C146.465 180.939 141.351 181.535 137.18 181.796C133.008 182.057 128.491 182.438 126.709 182.656C126.292 182.706 125.796 182.769 125.252 182.837C123.471 183.061 121.175 183.349 119.444 183.515C107.625 184.689 97.4355 185.723 92.3077 186.419C89.1355 186.81 88.1329 186.593 87.9594 186.419L87.9526 186.41C87.8269 186.243 87.7782 186.178 88.2479 185.879C89.3342 185.053 102.68 177.347 105.983 175.564C110.85 172.912 126.528 165.035 127.137 165.035C127.267 165.035 128.354 164.569 129.701 163.96C141.738 158.438 163.84 151.491 179.701 148.273C180.546 148.108 181.707 147.937 182.871 147.764H182.873C184.163 147.573 185.457 147.382 186.325 147.199C196.276 145.155 215.115 143.243 259.829 139.678C272.431 138.678 297.178 137.024 317.949 136.025C357.666 134.111 388.34 133.367 429.274 132.801C450.453 132.508 451.44 132.018 453.239 131.124L453.244 131.122C453.308 131.091 453.372 131.058 453.44 131.025C454.526 130.46 456.179 129.33 457.132 128.504C458.09 127.634 459.35 126.504 459.957 125.982C461.697 124.46 465.043 122.242 466.825 121.46C468.162 120.868 470.517 120.859 487 120.798H487.013C488.697 120.792 490.53 120.785 492.521 120.777C505.731 120.733 514.957 121.023 514.957 121.197ZM476.282 333.293C482.731 333.113 488.376 333.223 491.299 333.281C492.615 333.306 493.376 333.321 493.419 333.294C493.444 333.252 493.363 333.199 493.227 333.108C492.936 332.916 492.389 332.557 492.094 331.789C491.872 331.206 491.509 330.105 491.077 328.78C488.18 329.346 484.047 330.182 480.167 330.968C477.722 331.463 475.406 331.894 473.551 332.239L473.538 332.241C471.256 332.666 469.68 332.96 469.444 333.078C469.303 333.149 469.145 333.201 468.991 333.254C468.765 333.33 468.543 333.405 468.385 333.53C470.987 333.449 473.62 333.37 476.282 333.293ZM839.748 326.424C840.833 325.816 842.009 325.163 842.355 324.99C843.051 324.68 844.167 323.668 845.727 322.119L493.803 329.21C493.859 329.361 493.756 329.289 493.808 329.425C495.893 334.773 496.59 336.512 499.457 337.816L501.761 338.86L548.342 338.381C573.94 338.12 604.876 337.729 617.043 337.468C685.863 336.13 688.876 336.035 725.325 334.884L726.115 334.86C760.487 333.773 779.735 333.12 786.949 332.685C807.158 331.512 816.5 330.859 821.714 330.294C834.748 328.772 836.184 328.468 839.748 326.424ZM910.684 151.067C907.051 139.248 902.974 128.808 896.192 116.373C896.009 116.033 895.846 115.725 895.697 115.445C895.18 114.465 894.851 113.84 894.342 113.458C893.44 112.784 891.979 112.869 887.936 113.105C887.145 113.151 886.256 113.203 885.256 113.256C863.705 114.343 858.551 114.584 848.077 114.975C819.397 116.018 757.637 117.848 732.692 118.413C702.752 119.065 660.291 119.912 614.316 120.347C603.872 120.449 594.295 120.499 587.043 120.537H587.034C578.782 120.58 573.551 120.608 573.504 120.677C573.47 120.711 573.483 120.833 573.504 121.022C573.534 121.31 573.586 121.755 573.504 122.281L573.645 123.159L575.855 123.355C579.923 123.168 579.996 123.999 580.295 127.343C580.312 127.511 580.325 127.686 580.342 127.868C580.983 131.736 580.188 133.537 579.274 133.885C578.539 134.477 576.662 134.477 573.974 134.476C572.765 134.476 571.385 134.475 569.872 134.53C563.615 134.747 560.056 134.448 559.402 134.1C558.662 133.665 558.38 132.93 558.12 130.017C557.684 125.06 558.086 123.532 562.821 123.14C563.838 123.06 564.615 123.048 565.209 123.038C566.85 123.013 567.094 123.009 567.094 121.636V120.677L543.389 120.59L518.803 120.894L516.363 122.373C515.453 123.064 513.761 124.487 512.103 125.879C511.466 126.415 510.838 126.946 510.256 127.429L506.41 130.503L501.709 131.082C501.372 131.082 501.064 131.081 500.778 131.079C499.231 131.071 498.359 131.066 497.59 131.345C496.581 131.708 495.748 132.552 493.829 134.497L493.825 134.497L493.803 134.521C487.415 140.999 481.556 150.287 476.816 161.809L475.427 166.324L475 177.928C474.786 196.194 477.009 227.724 479.487 243.899C479.654 245.001 479.803 246.013 479.944 246.948V246.959C481.094 254.612 481.474 257.15 482.479 262.38C482.697 263.581 482.936 264.923 483.167 266.256L483.171 266.267V266.276C483.633 268.89 484.085 271.472 484.402 272.909C484.483 273.263 484.56 273.605 484.637 273.935V273.936C485.987 279.849 486.539 282.271 486.539 292.894C486.539 303.068 486.91 308.287 487.821 311.374C489.633 317.486 491.799 323.73 493.162 327.491L848.291 319.325C848.761 318.858 848.748 319.062 849.145 318.681C852.056 315.941 857.551 310.102 860.898 304.928C864.068 300.066 865.064 298.128 869.709 289.095L870.513 287.531C872.769 282.088 874.128 279.331 876.034 275.462C876.838 273.832 877.739 272.004 878.846 269.695C879.551 268.064 880.295 266.439 880.633 265.698L880.71 265.532L880.769 265.397C880.859 265.204 881.013 264.73 881.218 264.085L881.222 264.081V264.078C881.53 263.125 881.962 261.8 882.479 260.455C882.919 259.308 883.351 258.122 883.701 257.169C884.039 256.241 884.295 255.533 884.402 255.297C886.009 251.602 892.227 234.628 894.658 226.932C894.932 226.08 895.363 224.788 895.868 223.304C896.564 221.227 897.393 218.773 898.077 216.617C899.252 212.922 901.432 205.835 902.778 200.921C903.53 198.173 904.201 195.479 904.709 193.447C905.107 191.845 905.402 190.656 905.556 190.177C905.594 190.042 905.65 189.846 905.718 189.595L905.722 189.59C906.222 187.82 907.483 183.378 908.547 179.003C909.765 173.959 911.145 168.242 911.752 165.894C912.432 161.298 912.607 159.878 911.752 155.58C911.581 154.988 911.41 154.183 911.235 153.377L911.231 153.374C911.047 152.522 910.863 151.67 910.684 151.067Z" fill="black"/>
</svg>
