<svg width="62" height="16" viewBox="0 0 62 16" fill="none" xmlns="http://www.w3.org/2000/svg">
<path d="M2.35454 10.2877C2.01694 9.90605 1.675 9.68385 1.55107 9.37355C1.20492 8.5127 0.439979 7.34887 0.717757 6.71967C0.931432 5.64523 2.19639 5.31 3.06818 5.21545C7.80323 4.70229 12.6408 4.32366 17.3844 3.92611C29.3545 2.92344 41.3118 1.91518 53.2819 0.917665C55.2648 0.752631 57.2819 0.472845 59.2648 0.487887C60.1152 0.494764 61.6408 1.13255 61.8289 1.77722C62.0682 2.60626 61.5554 3.90503 60.9742 4.6176C57.1067 9.36923 51.9272 11.6153 45.94 12.1323C35.3246 13.049 24.705 13.9438 14.0896 14.8459C13.7349 14.876 13.3631 14.8231 13.0255 14.9112C8.35026 16.131 5.02548 14.1557 2.35454 10.2877ZM28.4784 4.58883C19.6793 5.35942 10.8801 6.13 1.99125 6.90833C3.39724 11.0093 7.20071 13.8768 10.9187 13.603C22.1238 12.7783 33.3289 11.92 44.5212 10.9079C48.5468 10.5438 52.6537 10.0358 55.9742 7.33037C57.6793 5.94176 59.222 4.34859 60.8374 2.84823C60.6921 2.57274 60.5468 2.29766 60.4015 2.02217C49.8929 2.8727 39.3887 3.72282 28.4784 4.58883Z" fill="#0F0F10"/>
</svg>
