<svg width="33" height="41" viewBox="0 0 33 41" fill="none" xmlns="http://www.w3.org/2000/svg">
<path d="M7.3508 17.1945C4.63713 17.3075 2.22689 17.1876 0.961933 14.4804C0.72689 13.9789 0.500401 13.4167 0.48758 12.8773C0.436298 10.5875 0.393559 8.29247 0.483303 6.00476C0.607234 3.02983 2.45765 1.3696 5.43628 1.27333C7.84654 1.19511 10.2483 0.956157 12.6585 0.884813C14.9876 0.815619 17.3252 0.86977 19.6371 0.86977C17.8465 6.30217 17.7995 11.5541 19.6671 17.1945C15.6927 17.1945 11.6243 17.1945 7.3508 17.1945Z" fill="#24242C"/>
<path d="M32.513 11.5964C32.4318 18.0083 33.3164 17.1569 27.2395 17.1925C20.9233 17.2295 19.6669 15.9587 19.7224 9.58504C19.7395 7.81134 19.9233 6.03034 20.1541 4.26954C20.4062 2.34285 21.9874 0.93876 23.9617 0.876442C26.2352 0.805099 28.513 0.898791 30.7865 0.833894C32.0728 0.797363 32.56 1.29505 32.5344 2.59126C32.4746 5.52106 32.513 8.45301 32.513 11.5964Z" fill="#24242C"/>
<path d="M0.0472402 36.8655C0.0429667 36.0266 0.0386973 35.3819 0.0515178 34.7377C0.0728854 33.377 0.624157 32.5497 2.12416 32.6661C2.54723 32.6992 2.97886 32.6696 3.40621 32.6691C6.70108 32.6657 6.76093 32.664 6.8464 35.8839C6.88486 37.3245 7.56432 38.0504 8.84209 38.1836C10.1541 38.3199 11.6455 38.6426 12.3464 36.9652C12.6755 36.1757 13.0729 35.3497 13.1242 34.5206C13.2267 32.872 14.0985 32.4061 15.5087 32.6833C16.6925 32.9158 18.7396 33.1165 18.8549 33.6611C19.2652 35.6247 19.0814 37.7315 18.9532 39.7734C18.9404 40.0149 17.8934 40.3476 17.3122 40.3729C12.9831 40.5616 8.65408 40.6905 4.32502 40.8233C0.735279 40.9333 0.735274 40.9243 0.0472402 36.8655Z" fill="#1B1B1D"/>
<path d="M10.7398 21.9685C10.868 21.3737 10.8595 20.8463 11.1202 20.5717C11.5732 20.0903 12.1885 19.7641 12.7355 19.373C13.0475 19.9747 13.7014 20.6241 13.6244 21.1704C13.1116 24.836 12.4406 28.4792 11.8253 32.131C11.697 32.9033 11.5817 33.6786 11.4748 34.4553C11.2142 36.3764 10.2398 37.0288 8.08594 36.1082C8.96201 31.4756 9.84238 26.8129 10.7398 21.9685Z" fill="#1A1A1A"/>
<path d="M2.60686 34.3547C2.60686 34.8296 2.22225 35.2142 1.75216 35.2142C1.28208 35.2142 0.897461 34.8296 0.897461 34.3547C0.897461 33.8798 1.28208 33.4951 1.75216 33.4951C2.22225 33.4951 2.60686 33.8798 2.60686 34.3547Z" fill="#D9D9D9"/>
<path d="M17.5644 34.7844C17.5644 35.2593 17.1798 35.6439 16.7097 35.6439C16.2396 35.6439 15.855 35.2593 15.855 34.7844C15.855 34.3095 16.2396 33.9248 16.7097 33.9248C17.1798 33.9248 17.5644 34.3095 17.5644 34.7844Z" fill="#D9D9D9"/>
<path d="M2.60686 38.6525C2.60686 39.1274 2.22225 39.5121 1.75216 39.5121C1.28208 39.5121 0.897461 39.1274 0.897461 38.6525C0.897461 38.1776 1.28208 37.793 1.75216 37.793C2.22225 37.793 2.60686 38.1776 2.60686 38.6525Z" fill="#D9D9D9"/>
<path d="M17.5644 39.0822C17.5644 39.5571 17.1798 39.9418 16.7097 39.9418C16.2396 39.9418 15.855 39.5571 15.855 39.0822C15.855 38.6073 16.2396 38.2227 16.7097 38.2227C17.1798 38.2227 17.5644 38.6073 17.5644 39.0822Z" fill="#D9D9D9"/>
</svg>
