<svg width="545" height="99" viewBox="0 0 545 99" fill="none" xmlns="http://www.w3.org/2000/svg">
<path d="M487.671 38.1051C492.427 39.4138 497.042 40.5969 501.606 41.9357C509.572 44.2707 517.53 46.6486 525.444 49.1461C526.743 49.5557 527.918 50.5583 528.978 51.4875C530.277 52.6273 530.141 54.759 528.624 56.7471C527.077 58.7843 525.418 60.7484 523.696 62.6428C521.542 65.0126 519.465 67.5084 517.021 69.5438C511.606 74.0543 505.038 76.0055 498.222 76.9033C490.008 77.9851 481.752 78.7621 473.504 79.5422C465.038 80.3424 456.564 81.0249 448.089 81.6893C438.406 82.4483 428.722 83.1574 419.034 83.8369C412.243 84.3131 405.448 84.7214 398.654 85.1263C391.081 85.578 383.5 85.9794 375.927 86.4315C374.474 86.5179 373.03 86.7379 371.166 86.9421C372.713 82.7629 374.098 79.044 375.461 75.3174C378.055 68.2291 380.602 61.1231 383.23 54.0486C385.893 46.8906 388.632 39.7619 391.337 32.6203C392.953 28.3538 394.619 24.1046 396.162 19.8122C396.658 18.4358 397.521 18.388 398.671 18.5991C401.025 19.033 403.393 19.4222 405.752 19.8529C413.551 21.2775 421.388 22.5308 429.141 24.185C441.269 26.774 453.363 29.5628 465.436 32.4101C472.824 34.1516 480.149 36.1603 487.671 38.1051Z" fill="#292929"/>
<path fill-rule="evenodd" clip-rule="evenodd" d="M92.5638 40.6931C89.3373 42.3099 86.1579 44.023 82.9314 45.7602C81.457 46.5535 79.9784 47.3516 78.4784 48.1484C65.5382 55.2084 52.8716 62.4265 40.0981 70.5416C26.8032 78.5978 12.8715 88.2442 0.00830078 97.8003C7.94847 97.8003 17.5254 97.8514 26.9912 97.9022C36.2391 97.9516 45.3758 98.0006 52.7733 98.0006C53.0083 98.0006 53.2391 98.0014 53.4698 98.0027C53.9698 98.0049 54.4698 98.0074 54.9698 97.9988C57.5596 97.9546 60.1451 97.906 62.7305 97.857C68.034 97.7569 73.3416 97.6572 78.6451 97.5979C91.1536 97.4582 103.662 97.349 116.171 97.2403H116.184C119.111 97.2145 122.038 97.1891 124.966 97.1634C126.128 97.153 127.295 97.1578 128.461 97.1629C129.906 97.169 131.346 97.175 132.79 97.1522C137.966 97.0701 143.141 96.9751 148.316 96.8797H148.325C151.111 96.8286 153.893 96.777 156.679 96.728C159.919 96.6708 163.162 96.6154 166.401 96.5604H166.414C171.419 96.4753 176.419 96.3902 181.423 96.2974C188.53 96.1654 195.637 96.0257 202.743 95.8641C206.008 95.7898 209.273 95.6982 212.534 95.6063H212.538C214.53 95.55 216.521 95.4941 218.513 95.4421C222.624 95.3347 226.735 95.2293 230.846 95.1241C237.816 94.9457 244.786 94.7669 251.76 94.5782C256.256 94.4562 260.756 94.3251 265.256 94.194H265.26C270.773 94.0337 276.286 93.873 281.799 93.729C284.756 93.6521 287.709 93.5958 290.666 93.5399C294.748 93.4621 298.829 93.3843 302.91 93.2519C306.192 93.1454 309.47 92.9713 312.748 92.7972C315.068 92.6743 317.389 92.5514 319.705 92.4521C330.419 91.994 341.128 91.5616 351.842 91.1417C353.876 91.0622 355.91 91.0003 357.944 90.9385C360.525 90.8602 363.107 90.7816 365.688 90.6664C365.807 90.6612 365.961 90.6548 366.141 90.6475C366.329 90.6398 366.543 90.6307 366.782 90.6213C369.047 90.5297 373.376 90.3548 374.56 90.1906C376.632 90.1077 378.701 89.9457 380.773 89.7841C382.376 89.6586 383.978 89.5335 385.585 89.4445C391.765 89.1029 397.94 88.7917 404.12 88.4801C406.517 88.3594 408.914 88.2381 411.312 88.1157C412.29 88.0654 413.269 88.0215 414.248 87.9777C416.32 87.8849 418.389 87.792 420.457 87.6412C423.97 87.3842 427.478 87.1057 430.991 86.8272C434.615 86.5397 438.239 86.2521 441.867 85.9887C444.542 85.794 447.222 85.6277 449.897 85.4614C453.876 85.2138 457.854 84.9663 461.825 84.6276C468.098 84.0917 474.367 83.4655 480.637 82.8393L480.641 82.8388C483.042 82.599 485.444 82.3592 487.846 82.1246C489.996 81.9144 492.145 81.7197 494.295 81.5254C499.483 81.0561 504.675 80.5872 509.833 79.8987C516.517 79.0069 523.141 77.1464 528.256 72.6333C533.453 68.0467 538.132 62.7918 542.589 57.4493C546.487 52.7776 545.367 49.4279 539.679 47.4079C534.128 45.4365 528.513 43.6456 522.88 41.9188C515.5 39.656 508.111 37.422 500.666 35.381C492.256 33.074 483.803 30.9139 475.333 28.8389C466.713 26.727 458.081 24.6348 449.397 22.8225C437.705 20.384 425.987 18.0882 414.269 15.7923L414.252 15.7892C411.645 15.2783 409.038 14.7674 406.427 14.2549C402.329 13.4491 398.213 12.7031 394.081 12.0845C390.696 11.5778 387.303 11.1333 383.91 10.6888C381.684 10.3969 379.457 10.105 377.231 9.79554C373.948 9.33916 370.671 8.86082 367.389 8.38247C360.782 7.41857 354.175 6.45466 347.547 5.67044C338.329 4.58022 329.077 3.77095 319.82 3.08511C309.846 2.34598 299.859 1.75705 289.863 1.35839C281.269 1.01547 272.658 0.961834 264.051 0.919329C260.713 0.902826 257.372 1.03928 254.03 1.17569C252.825 1.22486 251.624 1.27398 250.419 1.31597C249.525 1.34709 248.637 1.37455 247.743 1.40201C244.872 1.49033 242 1.57865 239.141 1.78941C230.517 2.42441 221.897 3.11519 213.286 3.89C207.641 4.39782 201.991 4.93672 196.384 5.74372C189.936 6.67131 183.495 7.72891 177.124 9.06487C170.825 10.3861 164.508 11.8097 158.376 13.7544C149.239 16.6534 140.179 19.8551 131.226 23.2939C124.286 25.9603 117.487 29.0138 110.696 32.064C110.226 32.275 109.756 32.486 109.286 32.6966C103.649 35.2254 98.0895 37.9262 92.5638 40.6931ZM383.923 14.3136C374.402 12.8558 364.855 11.5004 355.286 10.4074C347.051 9.46698 338.79 8.77172 330.53 8.0766L330.521 8.07574C329.179 7.96297 327.837 7.8501 326.5 7.7363C318.944 7.09438 311.38 6.45457 303.807 6.06352C295.226 5.62033 286.632 5.32954 278.038 5.20323C268.453 5.06235 258.859 4.96728 249.278 5.25158C242.004 5.46754 234.735 6.06141 227.474 6.6548C226.538 6.73135 225.602 6.80798 224.662 6.88366C223.162 7.00512 221.658 7.12047 220.154 7.23591C213.739 7.72835 207.32 8.22131 200.97 9.18543C188.927 11.0152 176.876 12.894 165.166 16.5418C153.419 20.2006 141.803 24.1642 130.517 29.0839C128.47 29.977 126.406 30.8417 124.346 31.706L124.342 31.7064C120.829 33.1805 117.316 34.6547 113.863 36.2689C107.188 39.3913 100.581 42.6735 94.0511 46.0911C85.8716 50.3704 77.7476 54.7627 69.7006 59.2866C66.3288 61.1828 63.0211 63.195 59.7134 65.2072C57.4314 66.5958 55.1451 67.9848 52.8416 69.3356C49.4143 71.7248 41.2519 77.057 33.1621 82.345C25.3032 87.4813 17.5083 92.5763 14.1707 94.8907C13.6664 95.2414 13.222 95.678 12.7818 96.7134C13.5852 96.8578 14.3844 97.0026 15.3844 97.147C20.5211 97.147 27.3844 97.1999 34.2092 97.2527H34.2134C40.9656 97.3047 47.6878 97.3568 52.675 97.3568C52.8587 97.297 53.0425 97.2338 53.2263 97.1702C53.6579 97.0207 54.0895 96.8707 54.5297 96.7714C54.8288 96.7052 55.1408 96.7142 55.4527 96.7233C55.5724 96.7267 55.692 96.7301 55.8074 96.7293C62.5638 96.6863 69.3246 96.6455 76.081 96.6042L76.1536 96.6038C93.3545 96.4994 110.56 96.3949 127.765 96.2604C132.547 96.223 137.325 96.0992 142.107 95.9755C143.936 95.9282 145.76 95.8805 147.589 95.8384C149.807 95.7868 152.021 95.7279 154.239 95.669C157.564 95.5809 160.889 95.4928 164.213 95.4288C167.923 95.3579 171.628 95.3016 175.337 95.2448C180.448 95.167 185.555 95.0893 190.662 94.9732C197.859 94.8099 205.055 94.607 212.316 94.4029C215.662 94.3083 219.021 94.2138 222.401 94.1227C223.068 94.0745 223.709 94.0161 224.337 93.9589C225.491 93.8532 226.59 93.7526 227.692 93.7324C231.731 93.6594 235.765 93.6035 239.803 93.5472C245.722 93.4651 251.645 93.383 257.56 93.2468C264.171 93.0942 270.778 92.8548 277.384 92.6159L277.389 92.6154H277.393C279.372 92.5437 281.35 92.4723 283.329 92.4027C291.064 92.1319 298.799 91.8436 306.534 91.5427C313.487 91.2724 320.436 90.9917 327.389 90.6836C336.675 90.2714 345.961 89.855 355.248 89.3844C356.718 89.3096 358.188 89.1824 359.654 89.0552C361.577 88.8888 363.496 88.7221 365.423 88.6739C365.572 88.6572 365.782 88.6396 366.034 88.6215L366.248 88.1346C366.901 86.3755 367.649 84.377 368.419 82.3149L368.423 82.2982C369.662 78.9824 370.961 75.5038 372.038 72.5929C373.889 67.6187 375.731 62.6762 377.564 57.7505C379.931 51.4113 382.282 45.0996 384.628 38.7844C385.97 35.161 387.29 31.5285 388.615 27.8964V27.8904C389.414 25.7003 390.209 23.5101 391.013 21.3216C391.38 20.3161 392.987 16.7974 393.598 15.9616L393.666 15.8348C390.423 15.3128 387.171 14.811 383.923 14.3136ZM424.457 85.5151C417.743 86.0149 411.017 86.4322 404.29 86.7945C399.26 87.0653 394.226 87.3042 389.192 87.5432C385.149 87.7349 381.111 87.9266 377.072 88.1346C376.572 88.1604 375.483 88.2025 374.154 88.2532C372.483 88.3172 370.431 88.3963 368.709 88.4754L368.812 88.1642C368.919 87.7525 369.773 85.5834 370.239 84.4062C370.367 84.0745 370.47 83.8213 370.513 83.7087C370.572 83.5518 370.632 83.3954 370.692 83.2385L372.923 77.2208C377.367 65.245 381.808 53.2692 386.256 41.2956C387.496 37.9588 389.03 33.9829 390.585 29.9525C392.423 25.1867 394.286 20.3441 395.735 16.3913L395.837 16.187C401.171 17.0615 406.496 18.0001 411.79 19.073C427.56 22.2689 443.286 25.6977 458.991 29.2214C468.184 31.2848 477.32 33.6327 486.44 36.0175C494.205 38.0486 501.957 40.1679 509.628 42.5252C515.991 44.479 522.286 46.682 528.495 49.0815C531.59 50.2784 532.419 53.5314 530.654 56.4109C529.359 58.5259 527.936 60.6202 526.248 62.4214C525.423 63.3041 524.615 64.2191 523.812 65.1359C520.876 68.4705 517.927 71.8254 513.85 73.725C509.709 75.6564 505.265 77.143 500.799 78.1152C496.684 79.0117 492.474 79.4849 488.265 79.9572C487.047 80.0943 485.825 80.231 484.607 80.3784C479.337 81.0166 474.055 81.6084 468.765 82.0695C465.184 82.382 461.598 82.6283 458.017 82.8745C455.444 83.0507 452.876 83.2274 450.312 83.4281C446.615 83.7169 442.923 84.0237 439.226 84.3306L439.222 84.331C434.303 84.7398 429.384 85.1485 424.457 85.5151Z" fill="#292929"/>
</svg>
