<svg width="595" height="25" viewBox="0 0 595 25" fill="none" xmlns="http://www.w3.org/2000/svg">
<path d="M594.633 8.38642H584.205C575.616 7.74175 567.111 7.39794 558.522 6.40945C554.077 5.67883 549.59 4.90523 545.274 4.26056C544.487 4.01988 539.663 3.38683 537.41 3.14315C534.376 2.67039 531.513 2.28359 528.607 2.0687C519.975 1.42403 511.342 0.564456 502.71 0.435523C489.889 0.263612 477.111 0.607455 464.291 0.779367C458.094 0.865322 451.94 1.08021 445.744 1.20914C439.547 1.33808 433.393 1.50999 427.197 1.63892C420.786 1.76786 414.419 1.93977 408.009 2.0687C401.171 2.24061 394.376 2.36955 387.539 2.49848C377.795 2.62741 368.051 2.75635 358.308 2.92826C352.624 3.05719 346.94 3.2291 341.257 3.35804C334.846 3.48697 328.479 3.65888 322.069 3.78781C315.744 3.91675 309.419 4.08866 303.094 4.21759C296.47 4.34653 289.889 4.51844 283.265 4.64737C273.992 4.81928 264.761 4.90524 255.53 5.07715C248.692 5.20608 241.898 5.33502 235.06 5.50693C229.504 5.63586 223.992 5.80777 218.436 5.93671C206.641 6.23755 194.846 6.5384 183.051 6.79626C176.428 6.96817 169.846 7.09711 163.222 7.22604C153.522 7.39795 143.863 7.52689 134.205 7.65582C132.41 7.6988 130.658 7.65581 128.863 7.69879C128.222 7.69879 127.581 7.99963 126.898 8.12856C106.556 9.24599 86.0002 8.12857 65.9147 10.7932C59.8036 11.3519 55.8719 12.4693 50.4446 13.028C33.9916 16.3803 18.2224 18.5722 1.25656 17.6696C0.754847 18.5945 0.580488 19.5607 0.412967 20.4877L0.401855 20.5492C0.615531 21.0649 0.957411 21.7096 1.25656 22.3112C1.51297 22.784 2.28219 23.7295 2.79501 24.3312C156.214 23.7725 308.949 21.9674 462.453 22.3112C502.453 20.6351 544.633 22.2253 585.146 21.4947C589.718 20.85 595.872 22.0104 594.846 15.005C594.846 12.8561 594.633 10.4923 594.633 8.38642Z" fill="#31323D"/>
<path d="M594.633 8.38642H584.205C575.616 7.74175 567.111 7.39794 558.522 6.40945C554.077 5.67883 549.59 4.90523 545.274 4.26056C544.487 4.01988 539.663 3.38683 537.41 3.14315C534.376 2.67039 531.513 2.28359 528.607 2.0687C519.975 1.42403 511.342 0.564456 502.71 0.435523C489.889 0.263612 477.111 0.607455 464.291 0.779367C458.094 0.865322 451.94 1.08021 445.744 1.20914C439.547 1.33808 433.393 1.50999 427.197 1.63892C420.786 1.76786 414.419 1.93977 408.009 2.0687C401.171 2.24061 394.376 2.36955 387.539 2.49848C377.795 2.62741 368.051 2.75635 358.308 2.92826C352.624 3.05719 346.94 3.2291 341.257 3.35804C334.846 3.48697 328.479 3.65888 322.069 3.78781C315.744 3.91675 309.419 4.08866 303.094 4.21759C296.47 4.34653 289.889 4.51844 283.265 4.64737C273.992 4.81928 264.761 4.90524 255.53 5.07715C248.692 5.20608 241.898 5.33502 235.06 5.50693C229.504 5.63586 223.992 5.80777 218.436 5.93671C206.641 6.23755 194.846 6.5384 183.051 6.79626C176.428 6.96817 169.846 7.09711 163.222 7.22604C153.522 7.39795 143.863 7.52689 134.205 7.65582C132.41 7.6988 130.658 7.65581 128.863 7.69879C128.222 7.69879 127.581 7.99963 126.898 8.12856C106.556 9.24599 86.0002 8.12857 65.9147 10.7932C59.8036 11.3519 55.8719 12.4693 50.4446 13.028C33.9916 16.3803 18.2224 18.5722 1.25656 17.6696C0.754847 18.5945 0.580488 19.5607 0.412967 20.4877L0.401855 20.5492C0.615531 21.0649 0.957411 21.7096 1.25656 22.3112C1.51297 22.784 2.28219 23.7295 2.79501 24.3312C156.214 23.7725 308.949 21.9674 462.453 22.3112C502.453 20.6351 544.633 22.2253 585.146 21.4947C589.718 20.85 595.872 22.0104 594.846 15.005C594.846 12.8561 594.633 10.4923 594.633 8.38642Z" fill="url(#paint0_linear_53_247)" fill-opacity="0.75"/>
<defs>
<linearGradient id="paint0_linear_53_247" x1="295.274" y1="0.392547" x2="295.706" y2="33.2705" gradientUnits="userSpaceOnUse">
<stop offset="0.0989583"/>
<stop offset="0.348958" stop-opacity="0.318352"/>
<stop offset="0.442708" stop-opacity="0.222222"/>
<stop offset="0.755208"/>
</linearGradient>
</defs>
</svg>
