<svg width="900" height="351" viewBox="0 0 900 351" fill="none" xmlns="http://www.w3.org/2000/svg">
<path d="M407.692 291.39C395.355 291.809 382.735 292.254 369.872 292.537C372.179 287.818 374.555 283.206 376.709 278.926C386.457 280.357 395.423 283.078 404.06 287.736C405.385 288.45 406.624 289.885 407.692 291.39Z" fill="#738C76"/>
<path d="M393.855 6.94998C394.29 7.0166 394.726 7.08321 395.47 7.23849C397.102 7.51535 398.436 7.72182 399.769 7.88849C404.342 8.45928 408.914 9.0161 413.483 9.57825C413.79 9.63317 414.098 9.6881 414.696 9.84634C416.094 10.1248 417.196 10.316 418.308 10.4721C422.261 11.0275 426.214 11.571 430.167 12.1189C430.47 12.1742 430.778 12.2296 431.372 12.3817C447.59 15.2861 463.517 18.0733 479.363 21.7095C477.615 25.669 475.654 27.0468 472.688 26.507C464.568 25.0285 456.461 23.4483 448.333 22.0223C437.261 20.0805 426.214 17.9345 415.081 16.4344C397.735 14.097 380.363 11.821 362.936 10.2752C345.081 8.69131 327.154 7.51527 309.239 7.09615C293.671 6.73204 278.068 7.47955 262.491 8.09005C244.128 8.80985 225.919 11.1487 207.786 14.111C196.876 15.893 186.145 18.349 175.705 22.036C172.568 23.1425 169.384 24.1033 166.218 25.1327C165.722 23.1039 165.722 23.1039 160.953 18.8618C161.59 18.5766 162.145 18.271 162.735 18.072C177.953 12.941 193.568 9.47123 209.355 6.72181C212.705 6.1389 216.051 5.54744 219.397 4.95994C219.709 4.9507 220.021 4.94146 220.645 4.93505C221.577 4.79172 222.192 4.6456 222.812 4.49951C223.124 4.49053 223.44 4.48159 224.085 4.47571C238.504 3.27936 252.573 1.56829 266.684 0.998052C289 0.0964458 311.337 0.202394 333.645 1.78761C337.607 2.06913 341.585 2.08946 345.555 2.2304C346.273 2.29461 346.987 2.35882 348.025 2.50774C354.209 3.09849 360.068 3.60788 365.931 4.10925C369.102 4.38051 372.273 4.63808 375.444 4.90183C375.752 4.9504 376.064 4.99892 376.675 5.12394C378.812 5.38765 380.641 5.5725 382.47 5.76259C386.265 6.15691 390.06 6.55403 393.855 6.94998Z" fill="#738C76"/>
<path d="M892.261 245.733C892.308 245.794 892.171 246.563 892.252 246.879C893.034 249.562 893.637 252.045 894.56 254.403C895.415 256.581 896.607 258.625 897.688 260.855C897.919 261.575 898.308 261.779 898.346 262.377C895.325 263.108 892.479 263.717 889.573 264.191C884.128 265.079 878.65 265.793 873.167 266.411C867.333 267.07 861.479 267.575 855.628 268.065C852.521 268.326 849.393 268.343 846.286 268.595C840.15 269.094 834.026 269.711 827.893 270.217C824.222 270.519 820.534 270.631 816.867 270.954C810.453 271.521 804.047 272.181 797.637 272.809C793.979 273.167 790.329 273.643 786.662 273.872C783.077 274.095 779.479 274.134 775.885 274.097C775.235 274.09 774.021 273.273 774.056 272.923C774.137 272.076 774.594 270.869 775.256 270.543C777.838 269.274 780.491 268.043 783.244 267.263C787.222 266.136 791.316 265.426 795.355 264.516C800.162 263.432 804.949 262.245 809.778 261.255C813.846 260.421 817.962 259.81 822.056 259.094C827.051 258.22 832.047 257.341 837.043 256.46C843.432 255.334 849.829 254.257 856.205 253.059C861.034 252.152 865.842 251.103 870.65 250.089C874.59 249.258 878.513 248.347 882.457 247.546C885.714 246.885 888.991 246.333 892.261 245.733Z" fill="#738C76"/>
<path d="M892.261 245.733C888.949 246.476 885.714 246.885 882.457 247.546C878.513 248.347 874.59 249.258 870.65 250.089C865.842 251.103 861.034 252.152 856.205 253.059C849.829 254.257 843.432 255.334 837.043 256.46C832.047 257.341 827.051 258.22 822.056 259.094C817.962 259.81 813.846 260.421 809.778 261.255C804.949 262.245 800.162 263.432 795.355 264.516C791.316 265.426 787.222 266.136 783.244 267.263C780.491 268.043 777.838 269.274 775.256 270.543C774.594 270.869 774.137 272.076 774.056 272.923C774.021 273.273 775.235 274.09 775.885 274.097C779.479 274.134 783.077 274.095 786.662 273.872C790.329 273.643 793.979 273.167 797.637 272.809C804.047 272.181 810.453 271.521 816.867 270.954C820.534 270.631 824.222 270.519 827.893 270.217C834.026 269.711 840.15 269.094 846.286 268.595C849.393 268.343 852.521 268.326 855.628 268.065C861.479 267.575 867.333 267.07 873.167 266.411C878.65 265.793 884.128 265.079 889.573 264.191C892.479 263.717 895.269 262.931 898.346 262.377C898.577 263.289 898.594 264.029 898.611 264.77C894.103 265.836 889.633 267.125 885.073 267.905C880.432 268.7 875.709 269.015 871.017 269.502C865.53 270.073 860.038 270.611 854.547 271.146C852.573 271.339 850.594 271.531 848.615 271.644C840.547 272.102 832.474 272.505 824.41 272.981C820.808 273.194 817.205 273.461 813.615 273.83C807.427 274.464 801.256 275.301 795.064 275.86C788.645 276.44 782.209 276.835 775.774 277.216C773.667 277.341 770.992 275.727 770.513 274.097C769.829 271.783 771.009 270.004 772.863 269.041C775.974 267.425 779.274 265.912 782.59 264.815C786.718 263.45 790.974 262.429 795.227 261.501C799.363 260.598 803.568 260.011 807.739 259.267C811.889 258.527 816.03 257.723 820.188 257.021C825.487 256.125 830.812 255.399 836.094 254.423C841.137 253.493 846.128 252.293 851.158 251.296C853.85 250.763 856.598 250.487 859.291 249.955C864.338 248.959 869.376 247.92 874.393 246.793C880.034 245.526 885.598 244.063 891.453 242.825C891.88 243.584 892.137 244.33 892.338 244.996C892.325 245.194 892.312 245.392 892.261 245.733Z" fill="#738C76"/>
<path d="M837.094 106.747C834.701 106.59 832.615 106.531 830.525 106.472C823.35 106.322 816.175 106.161 809 106.025C802.889 105.909 796.778 105.822 790.534 105.618C789.778 105.509 789.158 105.505 788.205 105.482C787.427 105.411 786.983 105.359 786.543 105.308L786.538 105.307C785.919 105.33 785.299 105.353 784.526 105.354C783.735 105.367 783.102 105.402 782.35 105.358C779.098 105.098 775.966 104.916 772.641 104.701C772.218 104.614 771.978 104.562 771.645 104.426C771.307 104.301 771.064 104.259 770.709 104.158C758.47 100.471 746.337 96.8355 734.205 93.2223C730.735 92.1896 727.299 91.2466 723.568 91.2531C718.897 91.2612 714.222 90.6677 709.132 90.3037C712.214 92.6864 715.017 94.9363 717.906 97.0744C723.927 101.529 729.855 106.204 737.384 107.861C743.632 109.236 749.876 110.742 756.196 111.642C776.214 114.492 796.38 114.225 816.521 114.047C823.773 113.983 831.013 113.268 838.449 112.807C839.021 112.621 839.406 112.478 839.867 112.437C841.231 112.547 842.513 112.555 843.983 112.56C845.017 113.01 846.47 113.225 847.12 113.857C850.602 117.239 853.966 120.747 857.53 124.158C857.632 125.187 857.893 126.162 858.145 126.979L858.761 127.116C859.607 125.821 860.453 124.527 861.303 123.071L861.307 123.011C861.333 122.559 861.35 122.25 861.273 121.924C861.171 121.907 860.957 121.711 860.957 121.711C860.756 120.79 860.756 119.9 860.342 119.306C858.141 116.166 855.974 112.979 853.496 110.067C852.521 108.925 850.765 108.458 849.337 107.837C849.363 107.684 849.342 107.505 849.141 107.417C847.521 107.266 846.102 107.203 844.684 107.14C842.256 107.042 839.829 106.944 837.094 106.747Z" fill="#738C76"/>
<path d="M896.739 201.734C896.709 201.255 896.662 200.736 896.611 200.389C896.073 199.079 895.756 197.726 894.94 196.843C892.534 194.236 890.021 191.706 887.359 189.365C885.82 188.015 884.201 187.036 881.688 188.009C878.068 189.411 874.466 188.878 871.44 185.95C867.15 181.797 859.03 174.774 854.795 170.564L845.44 158.649C845.44 158.649 845.265 158.642 845.021 158.64C845.18 158.532 845.188 158.429 845.218 158.079V158.051C845.227 157.639 845.124 157.285 844.923 157.143C845.107 156.581 845.086 156.223 845.098 155.867C845.201 153.025 844.85 150.065 845.539 147.373C846.393 144.023 848.026 140.859 849.466 137.681C850.91 134.499 852.509 131.389 855.577 129.39C856.791 128.599 856.735 127.375 856.235 126.238C856.12 125.773 855.85 125.13 855.568 124.801C852.769 121.547 849.962 118.3 846.821 115.418C845.842 114.519 843.966 114.605 842.5 114.24C841.979 114.651 841.517 115.255 840.923 115.444C832.889 118 824.628 119.242 816.214 119.357C801.914 119.554 787.611 119.839 773.312 119.72C763.949 119.642 754.594 118.92 745.235 118.482C742.539 118.356 739.85 118.186 737.154 118.082C729.209 117.775 721.256 117.534 713.312 117.185C704.803 116.811 696.303 116.315 687.795 115.924C677.726 115.462 667.654 115.033 657.581 114.635C652.397 114.429 647.209 114.369 642.026 114.154C637.209 113.953 632.397 113.462 627.581 113.411C622.111 113.352 616.641 113.615 611.171 113.784C602.509 114.053 593.846 114.283 585.188 114.676C578.53 114.979 571.876 115.412 565.235 115.964C558.244 116.545 551.269 117.28 544.295 118.049C534.226 119.16 524.141 120.205 514.107 121.568C503.5 123.008 492.932 124.718 482.368 126.441C474.53 127.72 466.727 129.204 458.91 130.607C457.402 130.878 455.902 131.199 454.397 131.496L454.18 130.491C455.744 130.098 457.295 129.628 458.876 129.327C466.111 127.951 473.346 126.551 480.603 125.3C486.821 124.228 493.06 123.319 499.299 122.387L499.902 122.297L499.906 122.296C506.077 121.373 512.252 120.45 518.436 119.638C524.124 118.89 529.833 118.289 535.534 117.648C541.658 116.958 547.786 116.278 553.914 115.63C557.367 115.265 560.825 114.871 564.291 114.666C572.718 114.166 581.167 113.95 589.585 113.293C608.564 111.81 627.564 112.677 646.551 112.552C653.004 112.51 659.457 113.09 665.91 113.356C673.291 113.66 680.671 113.897 688.051 114.224C696.983 114.621 705.91 115.085 714.846 115.514C720.867 115.804 726.897 116.084 732.923 116.365C742.282 116.8 751.637 117.396 761 117.628C777.423 118.035 793.85 118.543 810.269 118.359C818.521 118.267 826.761 116.779 834.996 115.835C836.068 115.712 837.081 115.064 838.009 114.507C833.504 114.678 829.103 115.278 824.705 115.273L823.902 115.272C807.299 115.254 790.692 115.234 774.098 114.832C761.697 114.531 749.389 112.895 737.461 109.344C733.154 108.062 728.842 106.24 725.073 103.812C718.919 99.8485 713.227 95.1674 707.303 90.837C706.402 90.179 705.368 89.5919 704.308 89.2893C696.65 87.1073 688.927 85.1385 681.299 82.8495C669.782 79.3924 658.359 75.6108 646.833 72.1842C632.376 67.8868 617.872 63.7463 603.359 59.6548C591.303 56.2574 579.244 52.8759 567.115 49.7635C551.474 45.7502 535.786 41.9209 520.077 38.1867C509.35 35.6371 498.556 33.3856 487.791 31.0008C487.573 30.9682 487.355 30.9356 486.902 30.8252C486.479 30.7015 486.282 30.6555 485.919 30.6235C473.18 28.225 460.611 25.7574 448.026 23.4116C424.372 19.0037 400.564 15.5757 376.662 12.9394C361.744 11.2939 346.752 10.1477 331.765 9.38616C317.551 8.66409 303.295 8.41706 289.064 8.53439C269.201 8.69813 249.363 9.88475 229.654 12.4684C218.444 13.9381 207.209 15.4884 196.158 17.8321C176.722 21.9534 158.355 29.3966 140.256 37.4735C132.073 41.1268 123.991 45.0312 115.979 49.0513C108.09 53.0083 100.269 57.1174 92.5555 61.4105C82.6624 66.9168 72.8205 72.5263 63.1196 78.3626C52.5598 84.7122 42.1624 91.3303 31.7479 97.9124C24.2265 102.664 16.7906 107.55 9.31625 112.375C8.7607 112.602 8.76068 112.817 7.90597 113.246C7.57692 113.412 7.6923 113.246 7.05127 113.676C6.62392 114.106 6.38461 114.347 6.03418 114.616C4.32905 115.929 2.52989 117.12 0.619629 118.399C1.01706 118.672 1.55556 119.096 2.0983 119.099C7.44872 119.128 12.7991 119.087 18.4572 118.951C30.8547 110.516 42.6795 101.778 55.094 93.9821C70.2222 84.4788 85.7308 75.5626 101.295 66.7926C110.218 61.765 119.487 57.3164 128.778 52.9997C138.132 48.6542 147.645 44.6311 157.209 40.7643C168.966 36.0101 180.991 31.9145 193.419 29.4105C203.872 27.3056 214.453 25.8236 225.017 24.3506C243.167 21.8199 261.44 20.8455 279.744 20.5596C312.684 20.0451 345.5 21.9804 378.162 26.2073C394.038 28.2615 409.902 30.5007 425.675 33.2094C441.026 35.8448 456.308 38.9255 471.517 42.2929C486.376 45.5835 501.141 49.3475 515.876 53.163C525.996 55.7825 536.034 58.7433 546.047 61.7483C551.902 63.5052 557.748 65.3894 563.406 67.6943C568.803 69.8921 569.718 73.2732 566.406 78.0498C564.141 81.3169 561.316 84.1883 558.812 87.2939C552.457 95.1782 544.299 100.1 534.41 101.878C528.962 102.859 523.423 103.422 517.902 103.911C496.987 105.762 476.077 107.722 455.137 109.227C436.256 110.583 417.333 111.396 398.432 112.454C397.684 112.496 396.94 112.597 395.974 112.692C396.295 113.419 396.453 113.872 396.684 114.285C401.825 123.546 406.402 133.077 409.667 143.172C411.534 148.937 412.684 154.895 414.316 160.737L419.034 160.639C441.068 160.417 463.098 160.196 485.132 159.999C485.393 159.997 485.658 160.364 486.286 160.826C485.461 161.125 485 161.35 484.517 161.45C484.103 161.534 483.662 161.473 483.239 161.476L483.218 161.476C460.389 161.625 437.393 161.711 414.316 162.026C413.778 163.522 413.551 164.578 413.462 165.894C418.286 166.449 423.06 167.144 427.641 167.975C433.038 168.956 438.427 170.116 443.705 171.612C451.667 173.867 459.06 177.405 465.624 182.565C470.701 186.552 474.577 191.477 477.098 197.421C478.773 201.378 479.479 205.576 479.709 209.878C479.825 211.993 480.081 214.144 480.628 216.183C482 221.31 485.291 225.034 489.564 228.029C492.598 230.156 493.838 229.952 495.902 226.863C497.556 224.386 499.248 221.906 501.175 219.645C508 211.648 515.709 204.605 524.32 198.591C532.333 192.994 540.859 188.284 549.923 184.684C556.363 182.125 562.953 179.902 569.598 177.937C574.056 176.618 578.726 176.04 583.291 175.079C588.773 173.923 594.274 172.934 599.915 173.072C600.692 173.091 601.47 172.907 602.248 172.901C608.432 172.848 614.632 172.489 620.791 172.875C625.889 173.195 630.962 174.177 635.996 175.15L636.833 175.312C642.538 176.414 648.269 177.522 653.825 179.185C663.15 181.977 671.966 186.031 680.402 190.968C688.12 195.483 695.158 200.852 701.62 207.002C704.466 209.708 707.222 212.511 709.919 215.365C711.312 216.838 712.427 216.706 713.611 215.236C715.09 213.409 716.624 211.627 718.038 209.755C722.41 203.984 727.65 199.087 733.209 194.534C740.902 188.232 749.342 183.078 758.432 179.108C764.205 176.585 770.132 174.36 776.128 172.428C780.667 170.966 785.389 170.037 790.077 169.124C795.825 168.005 801.62 167.131 807.406 166.196C808.94 165.948 810.509 165.909 812.051 165.697C816.936 165.026 821.825 164.384 826.697 163.601C830.162 163.043 833.624 162.386 837.034 161.565C839.44 160.988 841.97 161.624 843.487 163.623C844.474 164.929 845.333 166.345 846.41 167.567C847.752 169.085 849.256 170.454 850.688 171.855C850.94 172.366 851.868 174.558 852.167 174.828C860.419 182.249 868.632 189.716 876.996 197.01C878.88 198.654 881.154 200.095 883.5 200.909C887.748 202.385 892.214 202.866 896.739 201.734Z" fill="#738C76"/>
<path d="M489.363 274.131C488.855 275.791 488.346 277.451 487.731 279.356C487.384 280.342 487.149 281.085 486.914 281.827C486.684 282.535 486.457 283.244 486.107 284.172C485.914 284.682 485.846 284.972 485.773 285.262C485.624 286.079 485.474 286.895 485.214 287.962C485.017 288.513 484.927 288.813 484.837 289.112C484.688 289.396 484.543 289.679 484.09 290.028C479.944 290.176 476.107 290.269 472.269 290.337C460.816 290.539 449.359 290.729 437.906 290.93C437.124 290.944 436.342 291.036 435.56 291.05C426.248 291.217 416.932 291.376 407.611 291.39C406.508 290.115 405.602 288.627 404.278 287.917C395.641 283.285 386.329 280.603 376.709 278.926C377.154 277.791 377.598 276.893 377.991 275.902C383.072 263.023 388.359 250.218 393.145 237.23C396.384 228.447 399.051 219.444 401.739 210.469C404.184 202.314 406.38 194.081 408.568 185.852C410.32 179.27 411.611 172.514 413.462 165.894C418.291 166.446 423.244 166.932 427.829 167.758C433.226 168.733 438.615 169.888 443.889 171.374C451.85 173.617 459.243 177.135 465.812 182.266C470.884 186.23 474.765 191.127 477.282 197.038C478.957 200.972 479.662 205.147 479.893 209.425C480.004 211.527 480.265 213.666 480.812 215.693C482.184 220.792 485.474 224.495 489.748 227.473C492.782 229.588 494.017 229.385 496.081 226.314C497.739 223.85 499.431 221.384 501.359 219.136C508.184 211.185 515.893 204.181 524.504 198.201C532.517 192.636 541.043 187.952 550.102 184.373C556.543 181.829 563.137 179.618 569.778 177.664C574.235 176.352 578.906 175.777 583.466 174.821C588.953 173.673 594.453 172.689 600.094 172.826C600.867 172.845 601.645 172.663 602.423 172.656C608.607 172.603 614.812 172.247 620.966 172.631C626.235 172.96 631.483 173.992 636.688 174.992C642.496 176.108 648.338 177.219 653.996 178.904C663.32 181.682 672.141 185.712 680.577 190.621C688.291 195.111 695.329 200.449 701.79 206.565C704.637 209.256 707.393 212.042 710.09 214.881C711.483 216.345 712.598 216.214 713.786 214.752C715.261 212.935 716.795 211.163 718.209 209.302C722.581 203.564 727.82 198.694 733.38 194.167C741.073 187.901 749.513 182.776 758.602 178.829C764.376 176.32 770.303 174.108 776.299 172.186C780.833 170.732 785.555 169.808 790.243 168.901C795.991 167.788 801.79 166.919 807.573 165.989C809.107 165.742 810.675 165.705 812.218 165.494C817.103 164.826 821.991 164.188 826.859 163.409C830.329 162.854 833.786 162.2 837.201 161.384C839.607 160.81 842.137 161.442 843.654 163.431C844.641 164.729 845.496 166.137 846.577 167.352C847.914 168.862 849.423 170.223 850.808 171.758C850.474 172.255 850.192 172.644 849.761 173.132C849.564 173.455 849.517 173.679 849.479 173.889C849.483 173.877 849.457 173.871 849.308 173.845C848.978 173.894 848.795 173.967 848.47 174.114C848.29 174.662 848.252 175.138 848.149 175.678C847.914 175.915 847.743 176.087 847.53 176.097C846.966 176.153 846.444 176.372 845.808 176.665C845.068 177.373 844.44 178.006 843.739 178.68C843.56 178.788 843.5 178.883 843.376 179.046C843.201 179.132 843.141 179.177 842.94 179.277C842.474 179.873 842.145 180.413 841.808 180.957C841.803 180.96 841.799 180.969 841.675 180.911C841.342 180.994 841.128 181.137 840.812 181.346C840.461 181.648 840.218 181.881 839.85 182.162C839.367 182.616 839.017 183.024 838.543 183.48C838.077 183.907 837.731 184.286 837.265 184.736C836.769 185.225 836.389 185.644 835.876 186.077C835.261 186.602 834.782 187.111 834.167 187.677C833.346 188.61 832.658 189.487 831.974 190.363C831.974 190.363 831.978 190.359 831.825 190.298C830.679 191.097 829.679 191.956 828.547 192.87C828.32 193.35 828.141 193.326 828.043 193.755C828.043 193.759 827.991 194.045 827.996 194.112C827.504 194.177 827.141 194.345 826.667 194.6C825.949 195.26 825.338 195.834 824.602 196.428C824.265 196.698 824.055 196.947 823.773 197.34C823.756 197.673 823.453 197.722 823.504 197.913C823.026 197.913 823.004 198.651 822.863 198.558C822.167 198.939 822.461 198.818 821.765 199.296C820.761 200.126 819.893 200.954 818.897 201.841C818.004 202.692 817.235 203.483 816.325 204.322C815.145 205.366 814.102 206.362 812.932 207.432C812.496 208.059 812.696 207.889 812.393 208.443C811.966 208.872 811.966 208.657 811.743 209.088C810.795 209.543 810.53 209.526 809.829 210.162C809.026 210.889 809.615 210.591 808.837 211.353C808.333 211.666 808.385 212.122 807.671 212.133C807.09 212.431 806.658 212.763 806.085 213.163C804.658 213.944 803.376 214.656 801.966 215.352C801.581 215.528 801.32 215.723 800.906 215.946C798.068 216.764 795.38 217.554 792.551 218.308C792.077 218.394 791.739 218.517 791.226 218.634C790.602 218.717 790.149 218.804 789.568 218.832C789.102 218.89 788.769 219.007 788.261 219.101C786.906 219.184 785.731 219.288 784.41 219.312C783.231 219.323 782.192 219.414 780.953 219.485C779.175 219.547 777.598 219.628 775.846 219.646C774.649 219.707 773.632 219.832 772.419 219.934C770.064 220.025 767.906 220.138 765.62 220.175C764.722 220.176 763.957 220.252 762.996 220.311C761.077 220.351 759.363 220.408 757.457 220.423C755.979 220.529 754.684 220.677 753.196 220.804C751.551 220.859 750.111 220.936 748.483 220.943C746.867 221.004 745.432 221.135 743.812 221.241C741.889 221.317 740.145 221.416 738.265 221.436C737.085 221.451 736.043 221.546 734.803 221.621C732.88 221.694 731.158 221.787 729.265 221.81C728.068 221.842 727.043 221.945 725.82 222.031C723.184 222.139 720.748 222.263 718.188 222.309C717.295 222.311 716.526 222.39 715.56 222.453C713.5 222.525 711.641 222.613 709.602 222.636C708.265 222.683 707.098 222.796 705.735 222.89C703.534 222.954 701.53 223.038 699.346 223.058C697.859 223.11 696.56 223.226 695.085 223.322C693.978 222.905 692.902 222.687 692.124 222.081C687.769 218.675 683.675 214.894 679.132 211.765C668.034 204.125 655.927 198.627 642.837 195.226C633.286 192.745 623.62 191.321 613.79 190.966C604.167 190.618 594.551 191.22 585.154 193.274C577.479 194.953 569.803 196.957 562.44 199.676C555.145 202.372 548.124 205.909 541.218 209.532C537.303 211.584 533.867 214.548 530.077 217.16C528.179 218.624 526.423 220.03 524.564 221.489C524.235 221.768 524.021 221.994 523.684 222.262C523.363 222.546 523.158 222.79 522.812 223.086C522.337 223.456 522 223.774 521.543 224.166C519.543 226.065 517.658 227.89 515.649 229.781C514.585 230.924 513.649 232.003 512.59 233.159C512.115 234.039 511.773 234.84 511.444 235.645C511.461 235.648 511.457 235.617 511.312 235.524C510.192 236.498 509.218 237.565 508.167 238.643C507.991 238.708 507.936 238.79 507.808 238.986C507.085 240.205 506.483 241.341 505.902 242.485C505.919 242.492 505.897 242.462 505.761 242.426C505.278 242.805 504.927 243.222 504.453 243.714C504.111 244.22 503.893 244.65 503.564 245.164C502.367 247.024 501.286 248.8 500.107 250.673C499.667 251.425 499.329 252.079 498.991 252.732C497.299 256.129 495.611 259.527 493.79 263.131C493.538 263.68 493.419 264.021 493.295 264.362C492.346 266.721 491.397 269.08 490.325 271.685C489.923 272.664 489.641 273.398 489.363 274.131Z" fill="#5C715F"/>
<path d="M808.76 212.31C809.324 212.264 808.871 212.173 809.666 211.949C810.534 210.935 811.111 210.569 811.752 209.732C811.752 209.732 811.752 209.517 811.953 209.338C812.568 209.084 813.051 208.756 813.662 208.363C814.713 207.279 815.632 206.259 816.662 205.222C816.833 205.159 816.889 205.113 817.064 205.025C817.299 204.866 817.414 204.75 817.654 204.58C818.401 203.875 819.021 203.221 819.782 202.525C820.79 201.643 821.662 200.804 822.671 199.898C823.128 199.272 823.453 198.712 823.777 198.153C823.777 198.153 823.782 198.152 823.931 198.202C824.286 197.952 824.491 197.652 824.701 197.366C824.705 197.381 824.735 197.387 824.884 197.425C825.756 196.849 826.487 196.234 827.341 195.56C827.662 195.105 827.854 194.709 828.042 194.313C828.042 194.313 828.051 194.306 828.188 194.352C828.675 194.12 829.021 193.842 829.508 193.507C830.397 192.452 831.149 191.454 831.901 190.456C831.901 190.456 831.901 190.46 832.034 190.544C832.794 190.157 833.423 189.685 834.171 189.169C834.512 188.865 834.735 188.607 835.038 188.271C835.153 188.131 835.192 188.068 835.35 187.973C836.034 187.387 836.602 186.833 837.243 186.248C837.316 186.217 837.44 186.119 837.572 186.097C838.042 185.681 838.376 185.286 838.829 184.821C839.265 184.402 839.577 184.054 840 183.669C840.389 183.354 840.671 183.076 841.042 182.699C841.307 182.386 841.478 182.172 841.743 181.864C841.799 181.536 841.76 181.301 841.722 181.066C841.722 181.066 841.73 181.058 841.85 181.163C842.329 180.996 842.683 180.725 843.162 180.45C843.354 180.411 843.423 180.376 843.589 180.302C843.79 180.098 843.893 179.934 844.128 179.688C845.23 178.676 846.205 177.747 847.256 176.765C847.444 176.616 847.495 176.498 847.495 176.356C847.666 176.184 847.837 176.012 848.183 175.758C848.436 175.558 848.517 175.441 848.705 175.297C848.876 175.226 848.936 175.183 849.106 175.098C849.303 174.934 849.389 174.812 849.483 174.699C849.487 174.708 849.508 174.716 849.632 174.658C850.346 174.169 850.935 173.738 851.555 173.456C851.807 173.964 851.957 174.401 852.256 174.67C860.508 182.049 868.722 189.474 877.085 196.726C878.97 198.361 881.243 199.794 883.585 200.603C887.837 202.072 892.303 202.549 896.833 201.738C896.641 203.746 896.504 205.586 896.183 207.394C895.252 212.616 894.252 217.826 893.277 223.041C893.222 223.209 893.162 223.377 893 223.782C892.782 224.798 892.662 225.578 892.547 226.358C892.448 226.835 892.346 227.312 892.149 228.062C891.876 233.177 891.705 238.02 891.359 242.917C885.559 244.297 879.944 245.672 874.303 246.931C869.286 248.052 864.248 249.086 859.201 250.076C856.504 250.604 853.76 250.879 851.068 251.41C846.038 252.401 841.047 253.593 836.004 254.519C830.722 255.489 825.397 256.212 820.098 257.102C815.94 257.8 811.803 258.6 807.649 259.336C803.478 260.075 799.277 260.659 795.141 261.556C790.888 262.479 786.632 263.495 782.504 264.852C779.183 265.943 775.978 267.459 772.867 269.067C771.017 270.025 769.871 271.75 770.551 274.051C771.034 275.672 773.577 277.307 775.688 277.183C782.124 276.804 788.559 276.411 794.974 275.834C801.171 275.278 807.341 274.447 813.529 273.815C817.119 273.45 820.718 273.183 824.32 272.972C832.389 272.498 840.457 272.098 848.525 271.642C850.504 271.53 852.482 271.339 854.457 271.147C859.948 270.614 865.44 270.08 870.927 269.513C875.615 269.028 880.342 268.715 884.983 267.924C889.538 267.149 893.936 265.641 898.504 264.748C898.688 266.52 898.884 268.351 898.931 270.087C898.837 270.841 898.824 271.462 898.662 272.156C896.47 273.477 893.991 274.334 892.453 276.04C885.705 283.524 879.282 291.298 872.636 298.876C868.807 303.247 865.111 307.824 860.76 311.629C854.534 317.074 846.547 319.163 838.662 320.635C825.752 323.045 812.722 324.843 799.722 326.783C786.017 328.83 772.658 332.04 759.961 337.76C757.085 339.057 754.068 340.259 750.991 340.853C746.606 341.701 742.094 341.851 737.666 342.49C735.525 342.799 733.713 342.699 732.397 340.772C732.384 337.809 732.376 334.847 732.376 331.489C732.371 328.804 732.363 326.517 732.427 324.092C732.333 322.974 732.166 321.992 732.03 320.83C732.017 319.135 731.966 317.62 731.987 315.974C731.97 315.09 731.884 314.337 731.824 313.389C731.743 312.17 731.641 311.145 731.602 309.995C731.555 309.546 731.444 309.222 731.35 308.74C731.265 307.956 731.158 307.329 731.124 306.606C731.107 306.162 731.017 305.815 730.948 305.283C730.876 304.49 730.777 303.883 730.743 303.137C730.632 302.461 730.453 301.925 730.29 301.206C728.641 286.854 724.726 273.314 718.914 260.306C714.799 251.105 709.73 242.476 703.388 234.635C700.705 231.318 697.824 228.16 694.987 224.879C697.777 224.666 700.521 224.457 703.41 224.329C704.726 224.312 705.901 224.212 707.273 224.134C709.2 224.052 710.931 223.947 712.799 223.923C713.978 223.903 715.021 223.803 716.26 223.723C718.611 223.633 720.765 223.523 723.055 223.493C724.239 223.476 725.277 223.379 726.517 223.303C728.295 223.249 729.876 223.175 731.632 223.162C732.97 223.096 734.128 222.97 735.487 222.864C737.555 222.802 739.418 222.72 741.461 222.703C742.803 222.66 743.965 222.55 745.324 222.459C747.102 222.405 748.679 222.334 750.444 222.322C752.059 222.227 753.487 222.073 755.094 221.944C757.171 221.869 759.064 221.77 761.085 221.75C761.978 221.752 762.743 221.675 763.705 221.616C765.765 221.522 767.628 221.41 769.628 221.377C770.816 221.355 771.859 221.254 773.098 221.171C775.162 221.071 777.03 220.954 779.03 220.915C779.923 220.912 780.692 220.83 781.658 220.765C783.572 220.684 785.286 220.587 787.132 220.548C787.606 220.515 787.953 220.425 788.478 220.347C789.243 220.286 789.833 220.212 790.559 220.184C791.106 220.035 791.521 219.842 792.111 219.661C793.235 219.517 794.179 219.361 795.239 219.248C795.632 219.118 795.906 218.945 796.299 218.772C796.564 218.736 796.709 218.699 796.94 218.726C797.299 218.633 797.572 218.475 798.004 218.302C800.91 216.923 803.666 215.559 806.572 214.135C807.119 213.698 807.508 213.321 807.901 212.941C807.901 212.939 808.102 212.954 808.119 212.74C808.53 212.524 808.824 212.41 808.76 212.31ZM775.431 285.178C778.008 288.905 781.329 290.869 786.004 289.657C786.342 289.569 786.713 289.621 787.068 289.591C797.683 288.695 808.303 287.805 818.918 286.894C824.906 286.38 830.085 284.146 833.953 279.421C834.534 278.713 834.889 277.411 834.649 276.587C834.491 276.041 833.089 275.576 832.235 275.569C830.256 275.554 828.273 275.837 826.29 276.001C814.32 276.993 802.35 277.982 790.38 278.979C785.632 279.374 780.884 279.733 776.149 280.243C775.277 280.337 774.064 280.897 773.76 281.578C773.483 282.203 774.188 283.294 774.529 284.15C774.653 284.458 774.995 284.68 775.431 285.178Z" fill="#5C715F"/>
<path d="M349.359 321.531C357.393 313.981 363.303 304.899 368.479 295.26C368.842 294.581 369.957 293.949 370.752 293.915C376.226 293.68 381.705 293.58 387.184 293.494C401.637 293.265 416.09 293.102 430.538 292.844C443.56 292.612 456.581 292.291 469.603 292.001C473.658 291.911 477.709 291.751 481.765 291.74C482.423 291.737 483.081 292.342 483.748 292.856C482.432 300.9 481.111 308.754 479.718 316.875C479.671 317.367 479.696 317.593 479.718 317.818C479.598 318.832 479.479 319.845 479.29 321.136C479.239 321.79 479.256 322.166 479.269 322.542C479.218 323.897 479.162 325.253 479.038 326.883C478.893 328.033 478.82 328.908 478.743 329.783C478.667 331.499 478.59 333.215 478.496 335.291C478.496 336.68 478.508 337.709 478.496 338.881C478.491 339.216 478.508 339.408 478.491 339.777C478.483 340.551 478.508 341.149 478.534 341.747C478.534 344.185 478.53 346.623 478.453 349.335C478.303 349.75 478.226 349.891 478.15 350.032C476.393 349.981 474.632 349.929 472.543 349.806C471.149 349.678 470.09 349.617 469.03 349.568C464.419 349.358 459.765 349.463 455.201 348.881C444.013 347.453 432.863 345.709 421.658 343.994C421.346 343.907 421.073 343.918 420.611 343.93C418.714 343.721 417 343.512 415.248 343.169C414.124 342.268 413.115 341.343 411.94 340.759C399.803 334.734 387.214 329.934 374.008 326.807C372.987 326.565 372.004 326.146 371.004 325.81C371.449 325.215 371.769 325.105 372.094 325.087C377.406 324.796 382.714 324.418 388.03 324.253C399.393 323.9 410.761 323.633 422.124 323.381C430.654 323.192 439.188 323.092 447.718 322.916C448.376 322.902 449.026 322.604 449.679 322.438C449.649 322.22 449.62 322.003 449.59 321.786C448.859 321.741 448.128 321.643 447.397 321.659C441.572 321.787 435.748 321.922 429.923 322.082C419.983 322.354 410.043 322.666 400.098 322.922C393.137 323.102 386.171 323.263 379.205 323.347C373.367 323.418 367.526 323.416 361.688 323.349C358.286 323.31 354.876 323.155 351.487 322.875C350.743 322.814 350.068 321.999 349.359 321.531Z" fill="#5B705E"/>
<path d="M414.316 160.522C437.846 160.163 461.748 160.088 485.256 159.88C485.517 159.878 485.91 160.28 486.538 160.739C485.714 161.036 484.996 161.456 484.509 161.556C484.098 161.639 483.658 161.579 483.231 161.582C460.397 161.73 437.346 162.09 414.316 162.241C414.192 161.915 414.218 160.976 414.316 160.522Z" fill="#5F7361"/>
<path d="M842.735 114.109C842.397 114.554 841.607 115.293 841.013 115.48C832.979 118.022 824.718 119.257 816.308 119.372C802.008 119.568 787.705 119.851 773.406 119.733C764.043 119.655 754.688 118.937 745.329 118.501C742.637 118.376 739.944 118.207 737.252 118.104C729.303 117.798 721.355 117.559 713.406 117.212C704.902 116.84 696.402 116.346 687.893 115.958C677.825 115.499 667.752 115.072 657.679 114.676C652.496 114.472 647.308 114.412 642.128 114.198C637.308 113.998 632.5 113.509 627.684 113.459C622.214 113.401 616.743 113.662 611.273 113.83C602.611 114.097 593.949 114.326 585.291 114.718C578.637 115.018 571.978 115.449 565.337 115.997C558.35 116.575 551.372 117.307 544.402 118.071C534.329 119.176 524.248 120.215 514.214 121.57C503.607 123.002 493.038 124.702 482.474 126.415C474.641 127.687 466.79 129.257 458.974 130.652C457.466 130.922 455.778 131.216 454.273 131.512C454.201 131.179 454.132 130.635 454.06 130.302C455.624 129.912 457.393 129.312 458.974 129.012C466.209 127.644 473.513 126.39 480.769 125.144C486.983 124.079 493.124 123.063 499.359 122.136C505.731 121.188 512.201 120.177 518.59 119.342C524.278 118.6 529.983 118.047 535.684 117.408C541.808 116.723 547.932 116.258 554.06 115.614C557.513 115.25 560.85 114.743 564.316 114.539C572.744 114.042 581.329 113.903 589.743 113.249C608.722 111.775 627.808 112.514 646.795 112.389C653.244 112.347 659.573 112.985 666.026 113.249C673.402 113.551 680.872 113.783 688.248 114.109C697.179 114.503 706.026 114.972 714.957 115.398C720.983 115.685 727.094 115.979 733.12 116.257C742.479 116.69 751.748 117.316 761.111 117.547C777.53 117.952 794.051 118.374 810.47 118.192C818.722 118.1 826.808 116.767 835.043 115.828C836.115 115.705 836.688 115.096 837.82 114.538C839.188 114.323 841.273 114.132 842.735 114.109Z" fill="#5F7361"/>
<path d="M766.081 157.99C783.367 158.133 800.449 158.27 817.526 158.434C818.278 158.442 819.026 158.703 819.778 158.846C819.79 159.141 819.799 159.435 819.812 159.729C818.94 159.856 818.064 160.099 817.192 160.092C801.179 159.975 785.167 159.851 769.158 159.676C761.124 159.589 753.09 159.414 745.055 159.247C739.726 159.136 734.402 158.998 729.073 158.821C721.265 158.562 713.461 158.265 705.654 157.96C705.073 157.937 704.5 157.729 703.957 157.259C714.239 156.101 724.474 157.371 734.714 157.543C745.098 157.717 755.483 157.843 766.081 157.99Z" fill="#5F7361"/>
<path d="M733.547 348.55C733.12 348.206 732.692 347.776 732.265 347.089C732.265 345.499 732.265 344.295 732.265 343.221C741.667 343.865 750.855 342.49 759.658 339.095C766.496 335.957 773.59 333.25 780.855 331.445C802.137 326.33 824.231 325.299 845.47 319.798C869.658 314.426 878.077 287.693 896.453 273.769C897.393 272.952 898.547 272.479 899.658 273.683C899.658 274.413 899.701 275.187 899.615 276.218C897.778 278.625 897.649 280.215 895.085 281.505C892.521 284.728 888.291 288.725 885.94 292.077C877.863 302.478 872.735 315.5 862.393 323.881C855.555 330.499 845.94 332.433 836.581 333.379C827.778 334.797 818.803 335.872 809.914 337.247C789.53 339.868 769.145 342.662 748.846 345.842C743.846 346.917 738.675 347.69 733.547 348.55Z" fill="#2F303B"/>
<path d="M733.547 348.55C770.513 340.384 809.786 338.364 847.393 331.445C872.393 326.416 877.649 295.816 895.085 281.505C869.102 314.082 875.128 334.926 826.538 338.106C804.231 341.287 781.367 343.393 759.402 347.046C750.726 346.96 742.008 350.011 733.504 348.851C733.547 348.851 733.547 348.636 733.547 348.55Z" fill="#24242C"/>
</svg>
