<svg width="203" height="101" viewBox="0 0 203 101" fill="none" xmlns="http://www.w3.org/2000/svg">
<path d="M45.3634 93.3451C45.1241 93.4886 44.8848 93.6317 44.5045 93.8857C42.0899 95.5937 39.8164 97.1911 37.5259 98.7899C37.513 98.7912 37.4874 98.7903 37.4874 98.7903C35.7823 100.176 33.7994 100.269 31.7011 100.245C24.3506 100.16 16.996 100.191 9.28655 100.161C6.67544 100.124 4.41901 100.154 2.16688 100.049C1.49594 100.017 0.842081 99.6056 0.179688 99.368C2.44892 97.9548 4.71389 96.5417 6.92757 94.967C6.87629 94.8059 6.80788 94.7337 6.9019 94.9094C7.19677 94.8252 7.40191 94.5652 7.60704 94.3052C7.60704 94.3052 7.57286 94.3026 7.67115 94.4792C8.55577 94.2441 9.34209 93.832 10.1241 93.4194C15.5301 90.4406 20.9361 87.4567 26.3463 84.4839C39.184 77.4286 52.0259 70.379 64.9489 63.2107C65.8207 62.7289 66.6028 62.3636 67.4831 61.8917C76.0643 57.3223 84.5558 52.8599 93.1241 48.2858C98.3378 45.5851 103.453 42.9484 108.616 40.4161C121.718 33.9931 134.838 27.6152 147.953 21.2237C150.316 20.0729 152.688 18.9449 155.171 17.711C163.039 14.2362 170.774 10.7963 178.564 7.49843C183.996 5.19899 189.5 3.06638 194.992 0.916935C196.987 0.135856 201.893 2.61718 202.432 4.63692C202.868 6.27636 201.975 7.14743 200.539 7.71611C195.714 9.623 190.851 11.4456 186.103 13.5336C177.774 17.1969 169.436 20.8535 161.252 24.8289C134.15 37.9986 108.013 52.9407 82.5301 69.0316C70.8634 76.3972 59.3592 84.0163 47.7823 91.5258C47.607 91.6397 47.4745 91.8228 47.1113 92.1455C46.3848 92.66 45.8763 93.0025 45.3634 93.3451Z" fill="#B3C0C0"/>
</svg>
