<svg width="73" height="155" viewBox="0 0 73 155" fill="none" xmlns="http://www.w3.org/2000/svg">
<path d="M72.8974 0.275984C67.9829 2.42487 42.6132 22.8853 39.7777 26.6983C35.5653 31.6683 32.1756 36.7861 28.8803 42.1703C25.2478 48.617 21.8645 54.9709 19.9059 61.7252C17.8038 68.9747 15.2051 76.5526 14.7777 84.2886C14.7722 87.4543 13.9589 92.7535 14.1367 95.8926C14.4538 101.485 14.0756 105.41 14.9914 110.935C15.8175 115.917 16.6675 122.46 18.1965 127.266C20.682 135.079 23.2128 142.232 27.5982 149.185C29.0414 151.473 29.1029 151.49 30.5897 153.913C19.476 154.061 14.1025 154.096 2.96575 154.147C1.4243 154.154 0.844821 153.714 0.848668 152.093C0.855078 149.324 0.615756 146.556 0.573449 143.5C0.600372 142.841 0.533705 142.47 0.466611 142.099C0.328149 140.363 0.19012 138.627 0.155932 136.584C0.184564 135.495 0.109355 134.714 0.0349959 133.744C0.0337139 128.099 0.0311464 122.642 0.0529413 117.038C0.0713174 116.268 0.0653356 115.646 0.0567886 114.83C0.190122 112.903 0.326444 111.17 0.548239 109.369C0.586273 109.061 0.53884 108.819 0.508071 108.431C0.526874 107.522 0.529012 106.76 0.618755 105.915C0.773456 105.605 0.840548 105.377 1.01448 105.012C1.19739 103.521 1.2743 102.17 1.39866 100.713C1.54866 100.399 1.65123 100.19 1.76063 99.8049C1.91534 98.311 2.06276 96.9937 2.30123 95.5952C2.46405 95.2845 2.5367 95.0545 2.66277 94.7008C2.81619 94.2354 2.91576 93.8933 3.02345 93.4068C3.03499 93.0685 3.03798 92.8751 3.09397 92.5562C3.24738 92.0865 3.34824 91.7422 3.45465 91.2523C3.46148 90.9136 3.46277 90.7202 3.46747 90.3618C3.4743 89.8654 3.4773 89.534 3.55679 89.075C4.02944 88.0453 4.53414 87.175 4.80209 86.2364C5.9132 82.3477 6.66576 78.3293 8.08755 74.564C10.0662 69.3224 12.5461 64.273 14.776 59.1259C18.076 51.5081 22.6017 44.6257 27.373 37.8975C32.3867 30.8281 38.5376 24.7819 44.7294 18.7934C46.0064 17.5582 69.4786 -1.01292 72.8974 0.275984Z" fill="#1A1A1A"/>
</svg>
