<svg width="19" height="11" viewBox="0 0 19 11" fill="none" xmlns="http://www.w3.org/2000/svg">
<path d="M17.6935 5.62325L17.7012 5.63484L17.7095 5.64599C17.7204 5.66077 17.7207 5.66948 17.7207 5.67187C17.7207 5.67427 17.7204 5.68298 17.7095 5.69776L17.7012 5.70891L17.6935 5.7205C15.8579 8.50319 12.6805 10.1719 9.20972 10.1719C5.74463 10.1719 2.57194 8.50866 0.734965 5.73419C0.715949 5.69694 0.715949 5.64681 0.734965 5.60956C2.57194 2.83509 5.74463 1.17188 9.20972 1.17188C12.6805 1.17188 15.8579 2.84056 17.6935 5.62325Z" fill="white" stroke="#212B36"/>
<path d="M7.65967 5.68619C7.65967 4.9054 8.32981 4.21436 9.20928 4.21436C10.0888 4.21436 10.7589 4.9054 10.7589 5.68619C10.7589 6.46241 10.0642 7.15802 9.20928 7.15802C8.35437 7.15802 7.65967 6.46241 7.65967 5.68619Z" fill="white" stroke="#212B36"/>
</svg>