<svg width="19" height="16" viewBox="0 0 19 16" fill="none" xmlns="http://www.w3.org/2000/svg">
<path d="M8.55261 15.2664L8.5403 15.254L8.52716 15.2426C8.08312 14.8561 7.63552 14.4793 7.21697 14.1269C7.00011 13.9443 6.79105 13.7683 6.59432 13.6009L6.59376 13.6004L6.53181 13.5479C4.82328 12.0986 3.39382 10.886 2.38761 9.68288L2.38708 9.68225C1.21542 8.28599 0.692383 6.99185 0.692383 5.58684C0.692383 4.18041 1.17812 2.90291 2.04661 1.98085L2.04665 1.98088L2.05139 1.9757C2.91871 1.02857 4.12796 0.5 5.45212 0.5C6.42019 0.5 7.33591 0.812804 8.12686 1.41937C8.37198 1.61031 8.61038 1.82338 8.81851 2.05777L9.19238 2.4788L9.56626 2.05777C9.77439 1.82338 10.0128 1.61031 10.2579 1.41936C11.0501 0.811825 11.9369 0.5 12.9326 0.5C14.2524 0.5 15.4368 1.02556 16.3383 1.98095C17.2067 2.903 17.6924 4.18046 17.6924 5.58684C17.6924 6.99185 17.1693 8.286 15.9977 9.68225L15.9972 9.68288C14.991 10.886 13.5615 12.0985 11.853 13.5479L11.791 13.6004L11.7904 13.6009C11.5937 13.7683 11.3846 13.9443 11.1678 14.1269C10.7492 14.4793 10.3016 14.8561 9.85761 15.2426L9.85759 15.2426L9.85352 15.2462C9.68074 15.3999 9.4187 15.5 9.19238 15.5C8.93975 15.5 8.69986 15.4138 8.55261 15.2664Z" fill="white" stroke="#212B36"/>
</svg>