<svg width="16" height="19" viewBox="0 0 16 19" fill="none" xmlns="http://www.w3.org/2000/svg">
<path d="M12.1073 15.8586L12.1072 15.8586V15.871C12.1072 16.7836 11.3854 17.5075 10.5483 17.5075C9.71131 17.5075 8.9895 16.7836 8.9895 15.871C8.9895 14.9583 9.71131 14.2344 10.5483 14.2344C11.421 14.2344 12.1295 14.9624 12.1073 15.8586Z" fill="white" stroke="#212B36"/>
<path d="M5.52506 15.8586L5.52491 15.8586V15.871C5.52491 16.7836 4.8031 17.5075 3.96607 17.5075C3.12903 17.5075 2.40723 16.7836 2.40723 15.871C2.40723 14.9583 3.12903 14.2344 3.96607 14.2344C4.8387 14.2344 5.54726 14.9624 5.52506 15.8586Z" fill="white" stroke="#212B36"/>
<path d="M13.2188 0.835244L13.2189 0.833781C13.2266 0.77585 13.2475 0.722384 13.2783 0.676207L13.2428 0.934447L11.9089 10.6515L11.9088 10.6526C11.854 11.0581 11.5354 11.3317 11.1574 11.3317H2.60303C2.42367 11.3317 2.30738 11.2219 2.27642 11.0969L2.27241 11.0807L2.26733 11.0648L0.522224 5.60738V5.5951L0.507558 5.53589C0.48806 5.45717 0.505398 5.34134 0.57535 5.2425C0.62228 5.17618 0.698784 5.13171 0.805164 5.13171H12.2013H12.6383L12.6968 4.69866L13.2188 0.835244Z" fill="white" stroke="#212B36"/>
</svg>