<svg width="114" height="82" viewBox="0 0 114 82" fill="none" xmlns="http://www.w3.org/2000/svg">
<path d="M113.76 0.111328C113.192 0.394122 112.645 0.849682 112.047 0.933059C105.795 1.40066 97.5596 2.2946 91.4784 3.76444C85.0681 5.48356 80.6578 7.83058 74.4613 10.2111C67.333 13.2196 61.1365 17.3025 54.9399 21.8151C50.2177 25.6556 45.3245 29.766 41.2647 34.2787C37.4015 38.3062 34.4356 42.9619 31.0083 47.3869C29.3245 49.5629 27.8031 51.8996 26.2818 54.0279C24.6963 56.8726 24.0852 59.8849 22.4613 62.859C21.9314 62.825 20.4912 62.3866 20.3117 62.5409C15.5596 66.5817 10.7518 70.5687 6.17919 74.8089C4.22193 76.6235 2.76471 78.9834 0.888647 81.2161C0.615143 81.3338 0.106587 80.9118 0.0253906 80.9096C0.734792 78.6305 1.67073 76.6811 2.62799 74.5107C4.63227 69.955 6.87158 65.5038 9.14509 60.7676C9.76902 59.722 10.2604 58.9183 10.816 57.9805C11.6023 56.7247 12.4185 55.6516 13.0211 54.4697C13.7732 52.999 14.3545 51.4385 15.0083 49.9166C15.0083 49.9166 15.0296 49.9467 15.1664 49.9308C16.1749 48.8671 16.6921 49.5358 17.3331 46.9572C17.3416 46.8441 18.0468 46.1543 18.4015 46.0976C20.1109 44.5934 19.9528 44.3664 20.5682 43.0324C20.5682 43.0324 20.5724 43.0642 20.7048 43.0445C21.4741 42.3332 22.1151 41.6421 22.8758 40.8822C23.7604 39.8658 24.5296 38.9186 25.4356 37.9327C28.2049 35.3312 30.8373 32.7693 33.5553 30.2044C33.6493 30.201 33.8331 30.1932 33.9741 30.1593C36.0339 28.4333 37.9571 26.7417 40.0297 25.0432C42.9955 23.2622 45.816 21.4997 48.6194 19.7114C56.7433 14.5338 65.3758 10.3478 74.4613 7.29422C81.145 5.04648 88.0467 3.29211 94.9826 2.01696C101.149 0.882776 107.495 0.70915 113.76 0.111328Z" fill="#1A1A1A"/>
</svg>
