<svg width="118" height="151" viewBox="0 0 118 151" fill="none" xmlns="http://www.w3.org/2000/svg">
<path d="M93.1192 149.889C93.3714 148.617 94.0508 147.022 94.615 145.806C97.3927 139.36 98.0124 136.384 99.5295 129.475C101.431 120.828 102.153 109.66 101.666 100.894C101.158 91.7199 99.2645 82.7552 96.3457 73.9559C93.7346 66.0811 89.944 58.0275 85.662 50.9628C81.8286 44.6352 77.0722 38.4081 71.7517 33.2043C68.6534 30.1757 66.0124 27.1195 62.5851 24.5314C57.1577 20.4339 51.6192 16.4671 45.7047 13.1423C40.491 10.2112 34.4526 7.48212 28.8244 5.40629C24.6022 3.84834 19.7945 3.41684 15.3628 2.58093C10.7261 1.70633 5.9483 1.49875 1.26027 0.893619C0.952578 0.85408 0.337194 0.879004 0.191895 0.541198C2.9654 0.45954 5.6107 0.374871 8.20899 0.670559C12.491 1.15707 16.803 1.62553 20.9953 2.58093C27.2602 4.00822 33.6577 5.2851 39.585 7.66306C46.6491 10.4957 53.3371 14.3104 60.0722 17.9094C67.3329 21.7851 73.7218 26.9756 79.3329 32.9065C84.491 38.3557 89.0851 44.3807 93.5765 50.4165C99.8671 58.8664 104.418 68.3391 107.641 78.3255C110.333 86.6516 112.388 95.202 114.354 103.74C115.487 108.648 116.162 113.707 116.529 118.737C116.982 124.928 116.888 131.159 117.064 137.371C117.085 138.125 117.324 138.873 117.465 139.624C117.461 142.345 117.418 145.067 117.478 147.787C117.504 148.932 117.106 149.535 115.97 149.655C115.547 149.7 115.141 149.892 114.722 149.915C106.508 150.361 101.529 149.458 93.1192 149.889Z" fill="#1A1A1A"/>
</svg>
