<svg width="109" height="41" viewBox="0 0 109 41" fill="none" xmlns="http://www.w3.org/2000/svg">
<path d="M6.47041 32.8885C8.17981 36.7565 7.75246 40.1948 12.4533 40.4097C27.6242 40.8394 67.0392 32.8868 78.899 26C86.2392 21.7375 93.0871 16.578 99.2418 10.923C102.576 8.44017 105.592 5.9827 108.736 3.41994C106.945 1.36689 104.765 0.628098 102.502 0.656034L102.423 0.656886C96.7187 0.72737 90.9948 0.798281 85.3208 1.32347C68.2674 2.90205 51.2337 4.70024 34.0191 6.43869C33.3824 6.47737 32.9183 6.48984 32.4546 6.50231C31.9901 6.63769 31.5255 6.77306 30.746 6.92778C29.8349 6.97936 29.2388 7.01116 28.6426 7.0434C28.426 7.10529 28.2093 7.16716 27.7584 7.25871C27.3307 7.28664 27.1371 7.2845 26.7871 7.3481C25.6742 7.618 24.5422 7.7882 23.5854 7.99277L23.517 8.00223C21.6939 8.24677 19.8717 8.49131 18.2238 8.94601C15.7465 9.21076 13.4478 9.69082 11.149 10.1709C9.24177 10.4584 7.17254 10.7279 5.4375 11.2492C3.98194 11.3983 2.68964 11.7783 1.38365 12.1027C0.163995 12.4062 -0.197115 13.0036 0.235791 14.2783C2.79989 21.8273 3.85716 25.3571 6.47041 32.8885Z" fill="url(#paint0_linear_53_230)" fill-opacity="0.5"/>
<defs>
<linearGradient id="paint0_linear_53_230" x1="113.094" y1="2.1594" x2="1.70931" y2="27.0316" gradientUnits="userSpaceOnUse">
<stop stop-opacity="0"/>
<stop offset="1"/>
</linearGradient>
</defs>
</svg>
