<svg width="12" height="11" viewBox="0 0 12 11" fill="none" xmlns="http://www.w3.org/2000/svg">
<path d="M5.97044 11C5.67488 11 5.3202 10.8764 5.08374 10.6292C1.24138 7.10674 1.18227 7.04494 1.18227 6.98315L1.12315 6.92135C0.413792 6.17978 0 5.12921 0 4.07865V3.95506C0.0591133 1.73034 1.7734 0 3.90148 0C4.55172 0 5.43842 0.370787 5.97044 1.11236C6.50246 0.370787 7.44828 0 8.09852 0C10.2266 0 11.8818 1.73034 12 3.95506V4.07865C12 5.19101 11.5862 6.17978 10.8768 6.98315L10.8177 7.04494C10.7586 7.10674 10.2857 7.53933 6.91626 10.691C6.62069 10.8764 6.32512 11 5.97044 11Z" fill="#6C757D"/>
</svg>
