<svg width="12" height="11" viewBox="0 0 12 11" fill="none" xmlns="http://www.w3.org/2000/svg">
<path d="M5.97044 11C5.67488 11 5.3202 10.8764 5.08374 10.6292C1.24138 7.10674 1.18227 7.04494 1.18227 6.98315L1.12315 6.92135C0.413792 6.17978 0 5.12921 0 4.07865V3.95506C0.0591133 1.73034 1.7734 0 3.90148 0C4.55172 0 5.43842 0.370786 5.97044 1.11236C6.50246 0.370786 7.44828 0 8.09852 0C10.2266 0 11.8818 1.73034 12 3.95506V4.07865C12 5.19101 11.5862 6.17978 10.8768 6.98315L10.8177 7.04494C10.7586 7.10674 10.2857 7.53933 6.91626 10.691C6.62069 10.8764 6.32512 11 5.97044 11ZM2.06897 6.79775C2.30542 7.04494 3.48768 7.91011 5.67488 9.88764C5.85222 10.073 6.08867 10.073 6.26601 9.88764C8.51232 7.78652 9.81281 6.61236 10.1084 6.36517L10.1675 6.30337C10.7586 5.68539 11.0542 4.88202 11.0542 4.07865V3.95506C10.9951 2.22472 9.69458 0.926966 8.03941 0.926966C7.62562 0.926966 6.79803 1.23595 6.50246 1.91573C6.38424 2.16292 6.14778 2.28652 5.91133 2.28652C5.67488 2.28652 5.43842 2.16292 5.3202 1.91573C5.02463 1.29775 4.25616 0.926966 3.78325 0.926966C2.18719 0.926966 0.827586 2.28652 0.768473 3.95506V4.14045C0.768473 4.94382 1.12315 5.74719 1.65517 6.30337L2.06897 6.79775Z" fill="#6C757D" fill-opacity="0.6"/>
</svg>
