<svg width="166" height="167" viewBox="0 0 166 167" fill="none" xmlns="http://www.w3.org/2000/svg">
<path fill-rule="evenodd" clip-rule="evenodd" d="M165.51 83.5185C165.51 129.36 128.558 166.523 82.9749 166.523C37.392 166.523 0.439453 129.36 0.439453 83.5185C0.439453 37.6762 37.392 0.513672 82.9749 0.513672C128.558 0.513672 165.51 37.6762 165.51 83.5185ZM48.0655 11.8835C40.7878 15.3668 31.5805 22.0249 26.1877 27.6688C24.6095 29.3002 23.4258 30.9317 23.4258 31.4607C23.4258 33.0041 25.6177 34.8117 29.783 36.7079C31.9749 37.6779 34.9125 39.0008 36.3595 39.6622C37.8061 40.3236 41.2698 41.9108 44.0758 43.2336C51.0472 46.4522 52.757 46.8932 54.7736 45.9232C56.7903 44.9532 58.0621 42.8365 58.0621 40.3674C58.0621 38.2951 57.1852 29.3002 55.8698 18.5858C54.7736 9.41437 54.2476 8.9296 48.0655 11.8835ZM68.2775 5.09339C70.9959 4.6086 73.9771 4.12338 74.9416 3.99101C79.5014 3.50622 92.6108 4.12337 97.3895 5.00528C105.764 6.59245 106.027 6.81293 105.939 12.6773C105.808 18.8063 104.975 31.4607 104.536 33.9302C104.361 35.1207 104.054 37.8103 103.878 39.8827C102.783 55.4471 91.9967 70.5271 82.5707 69.7333C75.5117 69.1162 68.716 61.5319 64.5946 49.6713C63.104 45.3499 61.6134 30.9759 61.2625 17.3073L60.9997 8.22389L62.1835 7.12194C63.104 6.24004 64.4194 5.84292 68.2775 5.09339ZM113.743 10.6491C112.209 11.0901 111.419 13.0744 110.85 18.0125C110.542 20.7025 109.973 25.4645 109.578 28.6392C108.394 38.1188 108.263 42.5722 109.096 44.2036C110.236 46.4527 111.595 47.1137 114.664 46.8051C116.111 46.6727 117.733 46.276 118.259 45.9674C118.785 45.6146 120.101 44.9974 121.197 44.5565C122.293 44.1155 123.783 43.4984 124.485 43.1898C124.882 43.0252 125.677 42.6732 126.625 42.2537L126.625 42.2533L126.627 42.2524C127.459 41.8841 128.407 41.4642 129.308 41.0731C141.145 35.9145 142.066 35.4293 142.812 34.1945C143.206 33.4893 143.557 32.5193 143.557 32.0783C143.557 30.2707 132.552 20.3939 126.063 16.3372C122.03 13.8239 115.322 10.2967 114.751 10.3848C114.533 10.4287 114.094 10.5168 113.743 10.6491ZM151.58 44.8737C152.947 47.2856 154.402 49.9468 154.85 50.8162C156.835 54.9726 160.659 67.5982 161.438 72.4211C162.763 80.8869 162.645 81.2101 157.123 83.0964C151.339 85.03 139.206 88.4901 136.746 88.904C135.572 89.1374 132.95 89.7503 130.951 90.2797C116.004 94.4679 98.2587 89.3149 95.8365 80.1189C94.0446 73.2248 98.8655 64.2407 108.591 56.3539C112.137 53.4907 125.1 47.2516 137.784 42.3294L146.204 39.0304L147.633 39.7816C148.769 40.3575 149.582 41.4702 151.58 44.8737ZM145.311 91.4711L144.897 91.5566C129.087 94.822 128.989 94.8427 127.598 97.203C126.502 99.143 126.721 101.215 128.3 103.42C129.79 105.493 143.119 120.572 145.881 123.306C147.503 124.981 149.564 125.51 150.835 124.628C151.624 124.099 155.132 117.177 156.842 112.768C158.946 107.433 160.919 100.157 161.577 95.1306C162.103 91.3387 162.059 90.9859 161.314 90.1482C160.086 88.7815 156.973 89.0458 145.311 91.4711ZM88.2702 97.2469C89.2348 95.7478 90.3749 94.734 92.1724 93.764C94.233 92.6173 95.1536 92.3526 97.5651 92.3526C104.142 92.3526 113.392 96.1887 120.013 101.744C122.293 103.641 128.036 110.078 134.613 118.147C143.908 129.523 144.916 131.066 144.522 133.227C144.039 135.784 133.035 145.925 125.581 150.731C121.635 153.245 113.086 157.478 111.201 157.874C109.183 158.271 108.044 157.301 105.019 152.848C102.257 148.703 96.2061 139.091 96.2061 138.87C96.2061 138.782 95.1976 137.063 93.9698 135.034C87.4373 124.32 85.6399 118.764 85.6399 108.887C85.6399 102.935 86.166 100.554 88.2702 97.2469ZM78.9754 131.683C78.1425 132.477 77.0463 133.932 76.5202 134.902C75.9942 135.872 75.2049 137.239 74.7228 137.989C74.263 138.661 73.3642 140.256 72.6356 141.55L72.5305 141.737C71.7852 143.059 70.5138 145.264 69.7245 146.587C63.4548 157.037 62.9288 158.448 64.4194 160.432C66.2608 162.857 86.4728 163.827 96.6446 161.975C102.607 160.917 102.563 159.726 96.1621 148.394C93.5318 143.632 91.1642 139.444 90.945 139.091C90.7258 138.738 89.7172 136.974 88.7527 135.211C86.692 131.507 85.0258 130.272 82.3078 130.272C80.8608 130.272 80.2031 130.537 78.9754 131.683ZM49.3818 155.117C46.9014 153.899 44.2083 152.525 43.351 152.06C39.3826 149.75 29.1514 141.484 25.8066 137.94C19.9702 131.696 19.8865 131.362 23.3929 126.676C27.0895 121.801 35.1758 112.069 36.9766 110.334C37.8155 109.476 39.6395 107.484 40.995 105.914C50.9989 93.9866 68.5476 88.1919 75.6993 94.4181C81.0416 99.0992 82.0899 109.254 78.4719 121.279C77.145 125.654 69.9288 138.152 62.2053 149.405L57.0967 156.9L55.4946 157.089C54.2339 157.256 52.9386 156.798 49.3818 155.117ZM4.61681 89.002C3.65228 90.0601 3.65228 90.1482 4.17835 94.4254C5.05528 101.568 8.29971 112.547 11.3689 118.808C11.445 118.965 11.5185 119.117 11.5907 119.265C13.3339 122.855 13.8916 124.003 14.7715 124.37C15.1852 124.542 15.6702 124.542 16.3835 124.541C16.4181 124.54 16.4536 124.54 16.4895 124.54H16.5424C17.989 124.54 18.5151 124.232 20.4882 122.204C21.7595 120.925 23.3818 119.117 24.1711 118.191C24.9604 117.265 26.6262 115.369 27.898 114.002C31.7561 109.814 36.5788 104.39 37.4117 103.288C40.1301 99.8045 38.7711 94.9983 34.6937 93.7197C33.9044 93.4992 28.9501 92.3968 23.645 91.2506C18.3399 90.1482 12.8595 88.9577 11.5001 88.6049C7.72963 87.6349 5.80057 87.723 4.61681 89.002ZM7.72963 57.7404C10.1848 50.2884 15.2271 40.5441 17.2437 39.2655C18.6467 38.4274 19.9181 38.3836 21.7595 39.1769C22.2843 39.4116 23.8377 40.0172 25.7091 40.7465C26.651 41.1135 27.6741 41.5124 28.6869 41.9108C42.8044 47.2903 52.8886 52.0523 57.1852 55.2709C61.3065 58.4014 66.3484 64.0014 67.9707 67.3081C70.0749 71.5852 70.4258 72.6876 70.4698 75.5096C70.5134 78.9929 69.5929 81.2415 67.2254 83.5344C64.8138 85.8272 64.3753 86.1358 61.8762 87.282C54.5984 90.6773 43.0677 91.5149 34.8249 89.3106C34.1818 89.1404 32.2587 88.6809 30.1446 88.1764C29.5198 88.0273 28.8783 87.8738 28.2484 87.723C22.198 86.312 15.0954 84.4163 9.26425 82.6082C3.78391 80.8886 3.47664 80.4477 3.82749 75.4653C4.22194 70.13 5.36211 64.839 7.72963 57.7404Z" fill="#848484"/>
</svg>
