<svg width="516" height="250" viewBox="0 0 516 250" fill="none" xmlns="http://www.w3.org/2000/svg">
<path d="M326.662 3.56446C327.387 3.55629 328.112 3.5477 329.206 3.55157C331.17 3.4265 332.765 3.28897 334.359 3.15188C335.37 3.12695 336.38 3.10159 337.747 3.07193C344.646 2.82309 351.19 2.58544 357.734 2.3323C362.779 2.13718 367.824 1.92185 372.868 1.71598C373.307 1.71856 373.746 1.72115 374.508 1.73018C376.446 1.64981 378.062 1.56341 379.789 1.53806C380.387 1.5445 380.873 1.48949 381.557 1.4637C383.354 1.40138 384.954 1.31027 386.553 1.21916C386.903 1.24237 387.253 1.26559 387.916 1.26516C391.501 1.18608 394.771 1.13063 398.198 1.14524C400.09 1.13234 401.827 1.04897 403.761 0.999115C410.244 0.952699 416.53 0.872757 422.874 0.78938C422.932 0.785942 423.117 0.785092 423.117 0.785092C423.117 0.785092 423.301 0.790243 423.525 0.784226C426.427 0.733082 429.107 0.687954 431.872 0.73394C432.077 1.0537 432.188 1.28106 432.167 1.56729C430.65 3.08183 430.684 4.14939 432.675 4.98359C435.479 6.15688 438.402 7.34522 441.376 7.72557C448.132 8.589 454.949 8.97064 461.739 9.52591C462.607 9.59683 463.483 9.5358 464.838 9.5358C462.111 11.7745 459.727 13.4653 457.662 15.4912C454.453 18.6454 450.684 19.875 446.278 19.9652C412.406 20.6632 378.532 21.402 344.661 22.1975C336.337 22.393 328.014 22.7455 319.7 23.1997C303.218 24.0997 286.741 25.0839 270.266 26.1076C261.816 26.6328 253.369 27.2336 244.934 27.9544C235.295 28.7778 225.647 29.5738 216.047 30.7428C203.487 32.2715 190.883 33.685 178.456 36.0011C162.195 39.0315 146.534 44.3165 131.243 50.6836C116.23 56.9348 101.845 64.3721 88.1722 73.2083C85.9795 74.6257 83.6487 75.8274 81.1893 77.112C72.1299 78.6897 63.256 80.2476 54.4034 81.9186C53.0893 82.1666 51.844 82.4571 51.3812 80.9658C50.2085 77.185 48.5581 73.6372 49.1444 69.5066C50.0556 69.2853 50.7274 69.0253 51.4222 68.6943C57.8872 65.615 64.3034 62.4299 70.797 59.4141C85.006 52.8162 99.7513 47.5961 114.638 42.8385C125.116 39.4896 135.72 36.455 146.412 33.8922C158.959 30.885 171.616 28.2767 184.312 25.9873C195.811 23.9136 207.408 22.3514 218.998 20.8433C229.322 19.4998 239.685 18.4322 250.049 17.442C259.15 16.5721 268.273 15.9262 277.393 15.2781C286.447 14.6347 295.506 14.0674 304.568 13.5495C313.139 13.0596 321.716 12.6697 330.291 12.2494C336.386 11.9512 342.482 11.6507 348.58 11.3959C356.099 11.0813 363.62 10.7916 371.141 10.532C376.396 10.3511 381.652 10.2088 386.909 10.1027C395.511 9.92862 404.115 9.82031 412.716 9.63379C414.912 9.58609 417.105 9.3712 419.294 9.17694C419.605 9.14944 419.886 8.80045 420.753 8.21251C419.451 8.07713 418.791 7.925 418.141 7.95637C416.23 8.04964 414.324 8.2843 412.413 8.34189C402.116 8.65176 391.817 8.89759 381.52 9.21992C373.856 9.46017 366.194 9.77348 358.531 10.0722C351.509 10.3459 344.488 10.6571 337.465 10.9287C329.518 11.2364 321.57 11.5063 313.623 11.8188C310.859 11.9275 308.096 12.0981 305.334 12.2675C296.275 12.8232 287.217 13.3892 278.159 13.9565C275.752 14.1069 273.343 14.2419 270.94 14.4439C264.586 14.9777 258.235 15.5536 251.882 16.0951C246.374 16.5644 240.848 16.8773 235.356 17.4944C226.418 18.4984 217.481 19.5556 208.58 20.8446C198.2 22.3479 187.832 23.9708 177.51 25.8321C169.764 27.2293 162.065 28.9403 154.406 30.7741C144.953 33.0378 135.527 35.4424 126.159 38.0374C119.807 39.7965 113.55 41.914 107.294 44.0066C100.565 46.2573 93.8239 48.4982 87.206 51.0532C80.3838 53.6873 73.6355 56.5428 66.9825 59.583C60.8496 62.3852 54.9906 65.5948 48.9308 68.4322C49.1962 65.5041 50.8615 63.7416 53.0291 62.4445C55.647 60.878 58.3701 59.4846 61.0816 58.0827C80.2231 48.1866 100.15 40.1915 120.581 33.4585C128.409 30.879 136.341 28.621 144.233 26.2396C147.488 25.2575 150.762 24.3361 154.027 23.3867C154.212 23.3712 154.395 23.3557 154.881 23.3179C159.643 22.2525 164.102 21.2094 168.561 20.1659C169.047 20.089 169.534 20.0121 170.306 19.9334C174.334 19.2363 178.076 18.541 182.009 17.8524C182.693 17.8224 183.192 17.8168 183.682 17.7446C193.487 16.2971 203.291 14.844 213.094 13.378C213.357 13.3385 213.597 13.1421 213.848 13.0192C214.028 13.0114 214.208 13.0037 214.708 13.011C222.77 12.0913 230.512 11.1574 238.421 10.2308C239.033 10.1934 239.479 10.1487 240.001 10.162C240.307 10.1543 240.535 10.0885 240.931 10.0361C241.986 9.93421 242.873 9.81946 243.884 9.77347C244.929 9.64626 245.849 9.44942 246.967 9.27321C259.028 8.32512 270.892 7.35897 282.755 6.38595C285.284 6.17837 287.812 5.94415 290.34 5.72239C290.526 5.72454 290.712 5.72711 291.228 5.74172C300.437 5.24661 309.318 4.75367 318.197 4.22375C321.021 4.05485 323.84 3.78708 326.662 3.56446Z" fill="#738C76"/>
<path d="M49.1444 69.5066C48.9581 69.3231 48.9286 68.7433 48.9308 68.4322C54.9902 65.3047 60.9544 61.9549 67.0868 59.1682C73.7394 56.1451 80.4877 53.3056 87.3095 50.6865C93.927 48.1461 100.668 45.9181 107.397 43.6794C113.651 41.5989 119.909 39.4934 126.26 37.7442C135.628 35.1638 145.053 32.7729 154.507 30.5222C162.164 28.6986 169.863 26.9971 177.609 25.6081C187.93 23.7571 198.297 22.1432 208.677 20.6489C217.578 19.3669 226.514 18.3156 235.452 17.3172C240.944 16.704 246.469 16.3924 251.977 15.9261C258.33 15.3875 264.68 14.8147 271.034 14.2839C273.437 14.0832 275.845 13.9491 278.252 13.7991C287.31 13.2352 296.368 12.6726 305.427 12.1199C308.189 11.9515 310.951 11.7817 313.715 11.6738C321.662 11.3631 329.609 11.0949 337.556 10.7889C344.578 10.5186 351.599 10.2096 358.621 9.9371C366.283 9.64012 373.945 9.32854 381.609 9.09001C391.905 8.76897 402.203 8.52485 412.5 8.21627C414.411 8.15911 416.317 7.92574 418.227 7.83334C418.878 7.80196 419.638 7.91371 420.94 8.04823C420.074 8.63315 419.692 9.44931 419.381 9.47681C417.192 9.67021 414.999 9.88381 412.803 9.93109C404.202 10.1163 395.599 10.2242 386.997 10.397C381.741 10.5027 376.485 10.6441 371.23 10.8242C363.709 11.082 356.189 11.3704 348.67 11.6833C342.573 11.9369 336.477 12.2351 330.382 12.5321C321.807 12.9499 313.231 13.3375 304.66 13.8244C295.599 14.3398 286.54 14.9036 277.486 15.5431C268.367 16.1878 259.245 16.8303 250.145 17.695C239.78 18.6797 229.418 19.7412 219.095 21.0774C207.506 22.5769 195.909 24.1301 184.411 26.1917C171.715 28.4683 159.059 31.0624 146.512 34.0524C135.821 36.601 125.218 39.618 114.74 42.9479C99.8539 47.6789 85.1095 52.8694 70.9014 59.4304C64.4078 62.4285 57.992 65.596 51.5274 68.6577C50.8326 68.9869 50.0556 69.2866 49.1444 69.5066Z" fill="#5F7361"/>
<path d="M484.829 178.67C484.992 182.953 485.056 188.138 484.829 192.638C476.761 193.136 468.539 194.129 460.684 194.357C449.492 194.683 434.616 195.217 423.696 194.324C423.932 193.068 427.376 190.853 428.205 190.274C432.846 187.034 438.932 186.281 444.317 185.036C449.334 183.874 454.364 182.714 459.445 181.881C465.564 180.879 471.744 180.221 477.898 179.417C480.064 179.134 482.487 178.954 484.829 178.67Z" fill="#738C76"/>
<path d="M473.317 58.818C461.107 59.118 448.945 59.6608 436.778 59.8306C431.522 59.9041 426.266 60.1353 421.008 60.2225C410.411 60.3992 399.812 60.5084 389.214 60.6803C382.604 60.7873 375.994 60.96 369.384 61.0984C362.418 61.2446 355.452 61.3743 348.486 61.5308C342.944 61.655 337.403 61.8162 331.861 61.9412C331.131 61.958 329.971 61.8596 329.239 61.8144C329.208 61.5978 329.176 60.9514 329.144 60.7348C329.799 60.5694 330.877 60.2694 331.534 60.2578C341.206 60.0816 350.878 59.9436 360.551 59.7979C370.294 59.6509 380.038 59.5216 389.782 59.354C396.249 59.2427 402.717 59.0669 409.184 58.9397C417.076 58.7841 424.968 58.6629 432.859 58.5013C438.688 58.3818 444.513 58.2069 450.338 58.084C457.876 57.925 465.56 57.833 473.291 57.6877C473.291 58.1175 473.351 58.3186 473.317 58.818Z" fill="#5C715F"/>
<path d="M148.43 70.0356C155.556 69.9367 159.188 68.8623 163.675 73.5899C163.889 74.4494 164.376 74.7361 162.819 76.0374C157.032 80.8746 151.149 85.5957 145.302 90.3607C144.445 91.2108 143.08 92.1644 142.949 92.2852C136.752 96.7979 132.906 98.3021 125.855 101.74C124.145 102.385 119.816 103.533 118.163 104.104C114.298 105.439 113.507 105.647 109.616 106.898C106.204 107.994 103.247 108.12 99.7865 109.047C96.6681 109.882 95.4882 110.048 92.3079 110.551C85.348 111.652 83.2749 111.831 76.2822 112.7C72.0087 112.915 71.8202 112.938 67.3079 113.129C64.1027 112.915 63.8891 112.7 63.4617 112.485C62.607 112.055 61.8297 111.312 61.7523 111.195C61.6749 111.079 61.3249 110.766 61.3249 110.766C61.1113 110.336 61.1113 110.336 60.8976 109.691C60.7467 109.236 60.6839 108.759 60.4702 108.187C59.5685 108.401 58.5113 108.386 57.86 108.759C53.6843 111.149 49.4574 113.718 45.2985 116.138C43.9788 116.906 42.8194 118.288 43.448 119.832C43.9117 120.972 45.292 122.175 46.3668 122.37C50.1754 123.062 53.9002 123.409 57.7579 123.38C62.4831 123.344 67.2271 123.274 71.9202 122.651C79.8826 121.594 87.8788 120.611 95.7373 118.992C104.63 117.16 113.455 114.917 121.633 110.669C124.311 109.278 127.243 109.251 130.057 110.629C135.462 113.273 140.877 115.898 146.266 118.576C148.196 119.536 149.893 119.658 151.407 117.818C153.711 115.018 155.93 112.13 158.425 109.512C164.325 103.322 170.397 97.3136 177.412 92.3479C178.648 91.4729 181.577 89.4504 182.596 88.2651C185.139 86.9181 187.371 85.5428 189.621 84.1976C198.383 78.9578 207.619 74.7597 217.406 71.8944C222.411 70.4288 227.482 69.0686 232.613 68.1875C239.357 67.0289 246.172 65.8955 252.988 65.657C260.773 65.3845 268.592 66.1018 276.396 66.4104C276.879 66.4293 277.352 66.6498 277.835 66.7542C280.589 67.3486 283.35 67.9112 286.098 68.5322C290.296 69.4812 294.591 70.1508 298.652 71.5187C304.073 73.3449 309.464 75.4091 314.586 77.9478C321.257 81.255 327.892 84.7568 334.109 88.8423C343.952 95.3113 352.715 103.151 360.485 112.075C362.307 114.168 363.532 114.127 365.508 112.211C366.02 111.715 366.549 111.223 366.983 110.661C373.209 102.601 380.645 95.7608 388.699 89.6627C393.619 85.9382 398.997 82.8086 404.276 79.5883C412.007 74.8719 420.348 71.4233 428.957 68.7905C435.838 66.6868 442.821 64.9513 450.039 64.0484C457.722 63.0882 465.496 62.2824 473.291 62.2007C473.312 61.1611 473.304 59.6208 473.291 58.7625C461.124 58.8996 448.808 59.3642 436.641 59.5348C431.385 59.6087 426.13 59.8412 420.872 59.9293C410.274 60.1064 399.674 60.2164 389.076 60.3892C382.465 60.4971 375.855 60.6707 369.245 60.81C362.278 60.957 355.312 61.0872 348.346 61.2445C342.804 61.3695 337.262 61.5316 331.72 61.6575C330.99 61.6742 330.257 61.5754 329.525 61.5298L329.43 60.8766C330.085 60.7098 330.736 60.4086 331.393 60.3965C341.066 60.2199 350.739 60.0806 360.411 59.9341C370.155 59.7867 379.9 59.6564 389.643 59.488C396.112 59.3758 402.579 59.1991 409.047 59.0711C416.939 58.9146 424.831 58.7926 432.722 58.6301C438.551 58.5102 444.376 58.334 450.205 58.2107C457.739 58.0508 465.5 57.9984 473.291 57.6877C473.859 56.2015 473.765 54.7209 474.299 53.4964C476.577 48.2579 478.761 42.9604 481.38 37.8942C484.539 31.7836 488.654 26.3125 493.577 21.4732C495.808 19.2801 498.192 17.8033 501.5 18.2516C502.812 18.4295 504.53 18.6375 505.47 17.9783C508.863 15.6063 512 12.8699 515.235 10.271L514.966 9.59974H512.53C498.718 9.60103 484.902 9.64745 471.09 9.56106C468.611 9.54559 466.44 10.1456 464.462 11.4998C462.816 12.6245 461.252 13.8743 459.718 15.1469C456.603 17.7303 453.778 20.8169 449.376 21.101C446.748 21.2704 444.116 21.3898 441.483 21.4453C412.872 22.05 384.257 22.5094 355.649 23.2787C339.573 23.7111 323.506 24.5749 307.442 25.3795C295.433 25.9807 283.426 26.6783 271.434 27.5477C254.473 28.7769 237.499 29.9261 220.583 31.6336C206.935 33.0111 193.295 34.7538 179.78 37.0849C165.669 39.5183 151.956 43.7448 138.662 49.1251C130.168 52.5629 121.681 56.1155 113.524 60.2766C104.407 64.9277 95.6655 70.3244 86.8762 75.5535C88.11 75.713 89.239 75.8182 90.345 75.7022C101.573 74.525 112.791 73.2439 124.025 72.1308C132.149 71.3254 140.295 70.7426 148.43 70.0356Z" fill="#738C76"/>
<path d="M41.818 92C45.8776 91.5703 51.2828 91.6013 55.318 91C55.1206 90.4194 52.5451 83.6333 52.3823 83.1898C51.6986 83.1223 51.959 82.9298 51.318 82.5C51.6768 81.7401 50.0317 80.4298 49.818 80C47.8019 80.4943 45.0846 81.3261 43.318 82C41.6832 82.6241 39.7451 83.9931 38.3179 85C36.6961 86.1441 36.6067 89.463 38.3181 90.5C38.9942 90.9096 40.9634 92 41.818 92Z" fill="#738C76"/>
<path d="M31.2046 102.325C30.1995 95.56 29.278 88.7841 28.6317 81.9816C28.4076 79.6234 29.5203 77.5072 31.5451 76.0997C36.3281 72.7749 41.136 69.4862 45.9456 66.2006C46.2755 65.9754 47.6234 65.4661 48.2896 65.2091C46.8041 71.2509 48.5011 76.8939 49.7862 82.4002C47.8084 83.0518 45.9631 83.3401 44.196 84.014C42.5613 84.6376 40.943 85.4379 39.5158 86.4444C37.8938 87.5885 38.0458 89.4206 39.7573 90.4577C40.3844 90.7809 41.4528 91.2107 42.0938 91.2107C46.1716 90.8286 50.4165 90.1706 54.487 89.7064C55.5909 93.2203 56.7866 96.9843 57.905 100.666C54.0041 101.3 49.8836 101.668 45.9546 101.914C41.1124 102.217 36.25 102.189 31.2046 102.325Z" fill="#738C76"/>
<path d="M28.4184 210.904C29.6004 210.074 30.1922 209.893 31.4098 209.399C35.256 207.465 39.3158 205.961 43.3754 204.887C45.9395 204.242 49.3583 203.168 51.9224 202.523C52.819 205.944 54.0652 212.075 57.4767 213.496C59.0712 214.16 60.8844 214.502 62.6177 214.586C72.9177 215.085 83.222 215.516 93.5289 215.844C95.6703 215.913 97.1793 216.512 98.1562 218.502C98.8763 219.968 99.7566 221.368 100.696 222.705C101.093 223.269 101.825 223.596 102.557 224.018C103.398 224.55 104.086 225.095 104.775 225.639C103.863 225.845 102.953 226.225 102.04 226.231C94.5643 226.282 87.0874 226.215 79.6113 226.285C74.4985 226.333 69.384 226.726 64.2754 226.642C56.8259 226.52 49.3759 226.198 41.9358 225.786C37.4853 225.54 33.1198 224.871 28.6327 224.442C27.9916 224.227 27.1369 223.797 25.8549 223.797C25.6797 223.414 25.8486 222.965 25.8555 222.51C26.118 221.962 26.3571 221.518 26.622 220.918C27.2404 218.565 27.7973 213.277 28.4184 210.904Z" fill="#738C76"/>
<path d="M31.4103 178.241C33.0125 177.989 34.9303 177.532 36.6642 177.429C38.5595 177.316 40.3846 177.381 42.3077 177.381C43.6449 180.462 46.5051 181.248 49.4393 181.205C51.3056 181.177 51.7068 181.957 51.0684 183.828C50.185 183.52 49.7368 182.59 48.9316 182.539C45.0077 182.288 40.9341 182.298 36.8222 182.184C36.5429 179.086 36.2724 178.819 33.1896 178.697C32.7004 178.678 32.027 178.422 31.4103 178.241Z" fill="#393938"/>
<path d="M382.086 192.484C380.288 185.031 378.939 177.431 376.564 170.167C374.143 162.76 370.78 155.653 367.685 148.477C366.6 145.963 365.088 143.632 363.635 140.97C353.093 122.811 339.524 107.823 322.294 96.24C314.307 90.8712 305.794 86.5141 296.733 83.2457C283.052 78.3105 268.944 76.2777 254.418 76.8445C245.28 77.2013 236.315 78.5907 227.541 81.1019C216.056 84.3893 205.316 89.3416 195.337 95.9331C194.853 96.2533 194.182 96.2916 193.515 96.3453C192.795 95.8321 192.156 95.4342 191.431 94.9262C189.55 93.4959 187.756 92.176 185.889 90.7569C185.486 90.4539 185.156 90.2493 184.729 89.9352C184.003 89.2338 183.171 88.8276 182.692 88.2023C185.083 86.815 187.519 85.2622 189.769 83.9243C198.531 78.7145 207.766 74.5401 217.552 71.6906C222.557 70.2332 227.628 68.8812 232.758 68.0049C239.502 66.8531 246.317 65.7257 253.132 65.4885C260.917 65.2177 268.736 65.9307 276.539 66.2376C277.022 66.2569 277.496 66.4761 277.978 66.5797C280.732 67.1707 283.493 67.7302 286.241 68.3478C290.439 69.2912 294.734 69.9573 298.794 71.3176C304.215 73.1334 309.606 75.1856 314.727 77.7101C321.398 80.9983 328.033 84.4804 334.249 88.5431C344.092 94.9756 352.854 102.771 360.624 111.645C362.447 113.726 363.671 113.684 365.647 111.78C366.159 111.287 366.688 110.797 367.122 110.238C373.348 102.224 380.783 95.4221 388.837 89.3588C393.756 85.6554 399.135 82.5434 404.413 79.3411C412.144 74.6514 420.485 71.2226 429.094 68.6048C435.974 66.5127 442.957 64.7867 450.175 63.8893C457.855 62.9343 465.487 61.804 473.295 62.1001C473.543 72.0327 473.594 81.7741 473.983 91.5021C474.274 98.8036 474.889 106.097 475.556 113.377C476.107 119.451 476.769 125.525 477.692 131.552C479.141 141.022 480.611 150.5 482.526 159.881C483.765 165.953 485.064 172.453 484.829 178.673C482.487 178.956 480.197 179.182 478.03 179.463C471.876 180.263 465.697 180.917 459.577 181.914C454.5 182.741 449.466 183.896 444.449 185.05C439.068 186.288 433.607 187.427 428.966 190.649C428.133 191.225 427.825 192.122 427.089 193.112C426.059 193.215 425.216 193.307 424.374 193.398C424.37 193.635 424.366 193.871 424.362 194.108C425.042 194.211 425.725 194.42 426.401 194.4C430.009 194.296 433.611 194.121 437.218 193.995C441.607 193.841 445.991 193.688 450.38 193.575C461.85 193.282 473.321 192.581 484.833 192.487C485.47 201.056 488.786 209.156 490.957 217.075C483.44 218.493 476.111 219.876 468.812 221.378C467.979 221.549 467.286 222.394 466.333 222.947C463.436 223.03 460.735 223.093 457.974 223.059C457.654 223.071 457.385 223.181 456.927 223.322C448.474 223.562 440.218 223.772 431.902 223.889C431.577 223.901 431.316 224.006 430.855 224.145C416.668 224.546 402.672 224.871 388.68 225.323C386.541 225.392 384.976 225.208 384.768 222.69C384.759 219.955 384.75 217.22 384.756 214.12C384.66 212.729 384.55 211.704 384.44 210.68C384.427 209.665 384.414 208.65 384.402 207.282C384.19 206.115 383.976 205.301 383.763 204.488C383.763 204.085 383.762 203.682 383.804 203.003C383.727 202.115 383.607 201.502 383.487 200.889C383.434 200.398 383.381 199.908 383.353 199.192C383.308 198.738 383.238 198.51 383.168 198.281C383.136 197.824 383.103 197.366 383.07 196.577C382.742 194.992 382.414 193.738 382.086 192.484Z" fill="#5C715F"/>
<path d="M136.312 238.195C133.434 238.168 130.556 238.141 127.338 238.033C117.923 237.233 109.027 235.652 100.142 233.56C92.3705 231.729 84.3248 230.857 76.3478 230.147C63.1141 228.97 49.8346 228.317 36.5841 227.313C33.8787 227.108 28.2053 225.301 25.8549 223.797C27.2391 223.583 31.4833 224.657 32.6923 224.872C40.8119 225.731 48.7179 225.946 56.1966 226.376C63.8701 226.56 71.5961 226.23 79.2735 226.161C88.7145 226.077 95.2628 225.756 104.701 225.517C105.452 225.498 106.624 225.517 106.41 225.302C105.673 224.56 105.438 224.324 104.701 223.583C103.846 222.723 104.273 223.153 102.832 221.739C95.3658 210.566 88.0299 199.478 80.6175 188.44C77.847 184.314 74.7149 180.422 72.0705 176.22C67.4406 168.863 60.3619 166.263 52.2863 166.003C44.9816 165.768 37.6549 166.177 30.3392 166.354C29.7436 166.368 29.1575 166.78 28.5671 167.007C28.6261 167.269 28.6852 167.53 28.7443 167.791C29.9051 167.791 31.0675 167.829 32.2266 167.784C34.7144 167.686 37.202 167.568 39.6867 167.411C40.8309 167.339 41.3185 167.708 41.4125 168.943C41.5956 171.346 42.208 174.988 42.3077 177.381C40.2043 177.382 38.4378 177.754 36.5384 177.811C33.8799 177.89 34.1944 178.195 31.4103 178.241C29.2735 177.596 27.4865 175.816 27.3025 175.52C25.5074 172.637 25.195 169.391 25.1487 166.123C25.0524 159.324 25.0503 152.523 25.0401 145.587C25.0758 145.266 25.081 145.081 25.1946 144.792C27.336 139.534 29.6212 134.462 31.329 129.203C32.9321 124.267 33.8043 119.144 32.8008 113.864C32.0716 110.027 31.5939 106.142 31.1957 102.258C36.2407 102.123 41.103 102.15 45.9449 101.849C49.8739 101.605 53.9008 101.006 57.906 100.666C58.8996 103.27 59.7288 105.71 60.4702 108.187C59.5685 108.4 58.7051 108.482 58.0543 108.853C53.8786 111.23 49.7444 113.678 45.5854 116.083C44.2658 116.847 43.0141 117.901 43.6427 119.437C44.1064 120.57 45.3162 121.981 46.391 122.175C50.1991 122.863 54.0944 123.421 57.9521 123.391C62.6769 123.355 67.4205 122.859 72.1137 122.24C80.0756 121.189 88.0714 120.211 95.9295 118.602C104.821 116.78 113.646 114.55 121.824 110.325C124.502 108.942 127.434 108.916 130.248 110.285C135.653 112.915 141.067 115.525 146.455 118.188C148.385 119.142 150.082 119.263 151.597 117.433C153.9 114.65 156.119 111.778 158.615 109.174C164.514 103.02 170.585 97.0456 177.6 92.1074C178.836 91.2375 180.342 90.1364 181.664 89.1411C181.768 89.1217 181.791 89.0353 181.878 89.1411C182.71 89.7651 182.774 89.8214 183.609 90.4506C184.224 90.9358 184.75 91.3097 185.373 91.7894C187.406 93.3095 189.341 94.7243 191.318 96.2629C191.652 97.037 191.943 97.6868 192.094 98.3783C178.394 107.903 167.394 119.829 158.425 133.673C152.528 142.775 147.809 152.48 144.328 162.74C142.601 167.83 141.388 173.095 139.881 178.431C139.79 178.902 139.762 179.223 139.642 179.63C139.542 179.955 139.532 180.194 139.465 180.569C139.392 180.899 139.377 181.093 139.261 181.384C139.108 181.839 139.057 182.199 138.961 182.711C138.891 183.18 138.865 183.497 138.758 183.905C138.664 184.233 138.651 184.468 138.573 184.869C138.424 185.971 138.341 186.908 138.141 187.943C137.941 188.638 137.858 189.235 137.718 189.982C137.641 190.453 137.621 190.773 137.523 191.183C137.463 191.498 137.483 191.724 137.44 192.119C137.336 192.89 137.296 193.492 137.137 194.216C136.747 198.24 136.476 202.141 136.183 206.232C136.173 211.841 136.185 217.262 136.124 222.833C136.168 224.297 136.285 225.611 136.402 226.924C136.526 230.382 136.65 233.84 136.692 237.559C136.511 237.946 136.412 238.07 136.312 238.195Z" fill="#5C715F"/>
<path d="M386.059 226.739C392.527 226.588 398.85 226.513 405.171 226.335C410.855 226.174 416.535 225.854 422.219 225.686C434.449 225.324 446.675 225.013 459.098 224.86C458.808 225.554 458.423 226.286 457.829 226.554C450.273 229.96 442.82 233.562 436.021 238.345C434.29 239.562 432.308 240.741 431.816 243.279C429.594 243.82 427.513 244.283 425.427 244.73C416.023 246.744 406.58 248.435 396.904 248.291C393.202 248.236 389.499 248.265 385.796 248.256C385.623 248.053 385.449 247.851 385.227 247.404C384.993 246.753 384.808 246.346 384.622 245.938C384.641 239.924 384.66 233.909 384.76 227.632C385.002 227.168 385.161 226.965 385.322 226.763C385.519 226.766 385.717 226.769 386.059 226.739Z" fill="#5B705E"/>
<path d="M29.1392 192.787C29.6803 191.154 30.1902 189.692 30.7206 188.236C31.4672 186.188 32.4654 184.417 34.807 183.75C35.4735 183.561 35.9817 182.815 36.8184 182.187C41.0061 182.175 44.9422 182.234 48.8662 182.483C49.6709 182.534 50.4307 183.296 51.2042 183.93C51.4606 190.272 51.8195 196.375 51.9224 202.523C50.9032 202.804 49.9559 203.135 49.0918 203.388C45.1482 204.546 41.1289 205.494 37.2797 206.907C34.2806 208.008 31.3362 209.683 28.4184 210.904C28.3368 206.682 28.4467 202.659 28.4374 198.483C28.4809 198.019 28.4878 197.707 28.5935 197.26C28.7875 196.081 28.8827 195.037 28.9779 193.993C29.0243 193.648 29.0707 193.304 29.1392 192.787Z" fill="#5B705E"/>
<path d="M25.5687 226.204C29.1975 228.181 33.296 228.31 37.2664 228.61C60.7046 230.415 84.5354 230.115 107.29 236.69C90.3842 235.53 73.5123 233.123 56.5634 232.135C50.1596 231.619 43.7558 231.017 37.309 230.501C33.296 229.728 26.8153 231.318 25.5687 226.204Z" fill="#24242C"/>
<path d="M133.964 238.925C134.733 238.925 135.459 238.925 136.483 238.925C136.483 239.828 136.569 240.773 136.355 241.848C133.751 242.02 131.19 242.235 128.841 241.805C112.234 239.656 95.6268 242.836 79.0622 243.61C69.3284 243.524 59.5092 242.922 49.7326 242.793C39.6229 242.922 29.5817 241.031 19.5063 240.301C13.0171 239.828 6.79259 238.667 1.19989 234.971C6.7499 228.095 16.091 225.989 23.989 223.367C24.8856 223.926 25.0137 225.301 25.5687 226.204C27.191 231.361 33.2959 229.728 37.3517 230.459C58.5699 232.221 79.7112 233.682 100.887 236.046C111.858 236.561 123.078 239.269 133.964 238.925Z" fill="#2F303B"/>
<path d="M1.19989 234.971C6.79259 238.495 12.8891 239.828 19.3783 240.301C29.4964 240.988 39.4437 242.75 49.6046 242.793C59.3811 242.879 69.2003 243.524 78.9342 243.61C98.1457 241.633 117.272 239.914 136.355 241.848C136.953 243.309 136.27 245.673 137.209 247.134C137.209 247.435 137.252 247.779 137.081 248.251C111.295 250.271 85.1672 248.896 59.1676 248.423C41.6637 248.122 23.9464 247.65 6.86949 243.352C2.4295 241.719 -1.74588 241.031 1.19989 234.971Z" fill="#1B1B21"/>
<path d="M459.603 3.32381C461.034 3.6672 462.62 4.12656 464 4.50004C460.859 7.90216 456.714 9.00004 452.376 7.95468C451.957 7.8829 451.547 7.74923 451.128 7.68992C446.94 7.09769 442.727 6.64643 438.569 5.87197C436.581 5.5015 434.692 4.55942 432.804 3.76863C432.607 3.6874 432.722 2.86523 432.761 2.2773C433.556 2.11613 434.282 2.06457 435.342 2.02116C436.158 1.88707 436.637 1.74438 437.111 1.60212C437.295 1.59825 437.479 1.59438 437.957 1.60082C438.727 1.46458 439.201 1.31847 439.675 1.17191C440.97 1.17664 442.265 1.1818 443.881 1.29827C447.842 1.88277 451.483 2.35509 455.124 2.82785C455.564 2.84504 456 2.86266 456.714 2.99288C457.5 3.16522 458.013 3.22496 458.526 3.28469C458.833 3.29845 459.141 3.3122 459.603 3.32381Z" fill="#272727"/>
</svg>
