<svg width="245" height="69" viewBox="0 0 245 69" fill="none" xmlns="http://www.w3.org/2000/svg">
<path d="M43.0003 8.61773C43.308 8.68667 43.6156 8.7556 44.2096 8.92257C48.6755 10.038 52.8678 11.0144 57.0344 12.0802C71.0173 15.655 84.9875 19.2617 98.9618 22.8562C99.1541 22.8906 99.3422 22.925 99.8165 22.9766C102.992 23.6647 105.881 24.3351 108.885 25.0752C110.287 25.4186 111.573 25.6923 112.94 26.1135C113.381 26.4616 113.722 26.741 114.107 26.8519C124.193 29.74 134.304 32.5237 144.359 35.5068C157.09 39.2836 169.787 43.1916 182.479 47.0987C190.415 49.542 198.321 52.088 206.24 54.5881C206.419 54.6504 206.599 54.7127 207.026 54.8992C208.265 55.3131 209.257 55.6032 210.252 55.8937C210.641 56.0377 211.03 56.1817 211.693 56.4116C215.855 57.817 219.748 59.1441 223.646 60.4541C230.492 62.7543 237.342 65.0437 244.188 67.3379C244.188 67.3379 244.235 67.4303 244.325 67.5785C243.616 67.8446 242.817 68.1059 242.03 68.0573C232.466 67.4672 223.146 65.5379 214.005 62.701C202.453 59.1158 190.949 55.3758 179.368 51.9037C163.56 47.1662 147.727 42.5216 131.855 38.0192C117.893 34.0597 103.902 30.2063 89.8593 26.57C75.1883 22.7724 60.4703 19.1666 45.7182 15.7094C33.7396 12.9018 21.6798 10.4381 9.5302 7.71928C6.44901 7.00434 3.49174 6.39204 0.337891 5.73856C1.84644 3.74366 3.1499 2.01754 4.4405 0.310547C5.4234 0.458777 6.3977 0.605031 7.4789 0.827098C7.83787 0.936218 8.09436 0.969569 8.40632 1.09029C8.71829 1.18944 8.97895 1.20118 9.23536 1.21295C9.46185 1.26564 9.68833 1.31838 10.1798 1.42728C10.7353 1.49334 11.0259 1.50318 11.4362 1.6126C14.261 2.30893 16.9661 2.90817 19.6712 3.50191C27.449 5.20834 35.2225 6.91258 43.0003 8.61773Z" fill="#AFBDBD"/>
</svg>
