<svg width="35" height="35" viewBox="0 0 35 35" fill="none" xmlns="http://www.w3.org/2000/svg">
<path d="M10.7735 14.3281H3.82814C2.07814 14.3281 0.656265 12.9062 0.656265 11.1562V4.21094C0.656265 2.46094 2.07814 1.03906 3.82814 1.03906H10.7735C12.5235 1.03906 13.9453 2.46094 13.9453 4.21094V11.1562C13.9453 12.9062 12.5235 14.3281 10.7735 14.3281ZM3.82814 2.95312C3.17189 2.95312 2.57033 3.5 2.57033 4.21094V11.1562C2.57033 11.8125 3.1172 12.4141 3.82814 12.4141H10.7735C11.4297 12.4141 12.0313 11.8672 12.0313 11.1562V4.21094C12.0313 3.55469 11.4844 2.95312 10.7735 2.95312H3.82814Z" fill="white"/>
<path d="M31.1719 14.3281H24.2266C22.4766 14.3281 21.0547 12.9062 21.0547 11.1562V4.21094C21.0547 2.46094 22.4766 1.03906 24.2266 1.03906H31.1719C32.9219 1.03906 34.3438 2.46094 34.3438 4.21094V11.1562C34.3438 12.9062 32.9219 14.3281 31.1719 14.3281ZM24.2266 2.95312C23.5703 2.95312 22.9688 3.5 22.9688 4.21094V11.1562C22.9688 11.8125 23.5156 12.4141 24.2266 12.4141H31.1719C31.8281 12.4141 32.4297 11.8672 32.4297 11.1562V4.21094C32.4297 3.55469 31.8828 2.95312 31.1719 2.95312H24.2266Z" fill="white"/>
<path d="M10.7735 33.9609H3.82814C2.07814 33.9609 0.656265 32.5391 0.656265 30.7891V23.8438C0.656265 22.0938 2.07814 20.6719 3.82814 20.6719H10.7735C12.5235 20.6719 13.9453 22.0938 13.9453 23.8438V30.7891C13.9453 32.5391 12.5235 33.9609 10.7735 33.9609ZM3.82814 22.5859C3.17189 22.5859 2.57033 23.1328 2.57033 23.8438V30.7891C2.57033 31.4453 3.1172 32.0469 3.82814 32.0469H10.7735C11.4297 32.0469 12.0313 31.5 12.0313 30.7891V23.8438C12.0313 23.1875 11.4844 22.5859 10.7735 22.5859H3.82814Z" fill="white"/>
<path d="M31.1719 33.9609H24.2266C22.4766 33.9609 21.0547 32.5391 21.0547 30.7891V23.8438C21.0547 22.0938 22.4766 20.6719 24.2266 20.6719H31.1719C32.9219 20.6719 34.3438 22.0938 34.3438 23.8438V30.7891C34.3438 32.5391 32.9219 33.9609 31.1719 33.9609ZM24.2266 22.5859C23.5703 22.5859 22.9688 23.1328 22.9688 23.8438V30.7891C22.9688 31.4453 23.5156 32.0469 24.2266 32.0469H31.1719C31.8281 32.0469 32.4297 31.5 32.4297 30.7891V23.8438C32.4297 23.1875 31.8828 22.5859 31.1719 22.5859H24.2266Z" fill="white"/>
</svg>
