<svg width="188" height="44" viewBox="0 0 188 44" fill="none" xmlns="http://www.w3.org/2000/svg">
<path d="M49 39.8334H58.5887C64.0134 39.8334 66.6737 37.069 66.6737 33.3793C66.6737 29.7936 64.1291 27.6885 61.6076 27.5613V27.33C63.9209 26.7863 65.7484 25.167 65.7484 22.2869C65.7484 18.7591 63.2037 16.1451 58.0682 16.1451H49V39.8334ZM53.2912 36.2478V29.3078H58.0219C60.6707 29.3078 62.3131 30.9271 62.3131 33.0438C62.3131 34.9292 61.0177 36.2478 57.9063 36.2478H53.2912ZM53.2912 26.2196V19.6845H57.6287C60.1502 19.6845 61.4572 21.0146 61.4572 22.8421C61.4572 24.9241 59.7685 26.2196 57.5361 26.2196H53.2912Z" fill="white"/>
<path d="M81.5454 32.3614C81.5454 35.068 79.6138 36.4097 77.7631 36.4097C75.7506 36.4097 74.4088 34.987 74.4088 32.7315V22.0672H70.2217V33.3793C70.2217 37.6473 72.6507 40.0647 76.1438 40.0647C78.8041 40.0647 80.6779 38.6652 81.4876 36.6757H81.6726V39.8334H85.7325V22.0672H81.5454V32.3614Z" fill="white"/>
<path d="M104.08 26.7632C103.502 23.7559 101.096 21.8358 96.9318 21.8358C92.6522 21.8358 89.7374 23.9409 89.749 27.2259C89.7374 29.8168 91.3336 31.5286 94.7457 32.2342L97.7762 32.8703C99.4071 33.2289 100.17 33.8882 100.17 34.8945C100.17 36.109 98.8519 37.0227 96.8624 37.0227C94.9424 37.0227 93.6932 36.1899 93.3346 34.5937L89.2516 34.987C89.7721 38.2488 92.5134 40.1804 96.874 40.1804C101.316 40.1804 104.45 37.8787 104.462 34.5128C104.45 31.9797 102.819 30.4298 99.4649 29.7011L96.4345 29.0534C94.6301 28.6485 93.913 28.0239 93.9245 26.9945C93.913 25.7916 95.2431 24.9588 96.9897 24.9588C98.9213 24.9588 99.9391 26.0114 100.263 27.1796L104.08 26.7632Z" fill="white"/>
<path d="M107.914 39.8334H112.101V22.0672H107.914V39.8334ZM110.019 19.5457C111.35 19.5457 112.437 18.5278 112.437 17.2786C112.437 16.0179 111.35 15 110.019 15C108.678 15 107.59 16.0179 107.59 17.2786C107.59 18.5278 108.678 19.5457 110.019 19.5457Z" fill="white"/>
<path d="M120.594 29.4235C120.594 26.8557 122.144 25.3752 124.353 25.3752C126.516 25.3752 127.812 26.7979 127.812 29.169V39.8334H131.999V28.5213C132.01 24.2648 129.581 21.8358 125.915 21.8358C123.254 21.8358 121.427 23.1082 120.617 25.086H120.409V22.0672H116.407V39.8334H120.594V29.4235Z" fill="white"/>
<path d="M144.121 40.1804C148.261 40.1804 151.107 38.1562 151.847 35.068L147.937 34.6284C147.371 36.1321 145.983 36.9186 144.178 36.9186C141.472 36.9186 139.679 35.1374 139.644 32.0954H152.02V30.8115C152.02 24.5771 148.273 21.8358 143.901 21.8358C138.811 21.8358 135.492 25.5718 135.492 31.0544C135.492 36.6295 138.765 40.1804 144.121 40.1804ZM139.656 29.2731C139.783 27.0061 141.46 25.0976 143.959 25.0976C146.364 25.0976 147.984 26.8557 148.007 29.2731H139.656Z" fill="white"/>
<path d="M169.605 26.7632C169.026 23.7559 166.62 21.8358 162.456 21.8358C158.177 21.8358 155.262 23.9409 155.274 27.2259C155.262 29.8168 156.858 31.5286 160.27 32.2342L163.301 32.8703C164.932 33.2289 165.695 33.8882 165.695 34.8945C165.695 36.109 164.376 37.0227 162.387 37.0227C160.467 37.0227 159.218 36.1899 158.859 34.5937L154.776 34.987C155.297 38.2488 158.038 40.1804 162.399 40.1804C166.84 40.1804 169.975 37.8787 169.986 34.5128C169.975 31.9797 168.344 30.4298 164.989 29.7011L161.959 29.0534C160.155 28.6485 159.438 28.0239 159.449 26.9945C159.438 25.7916 160.768 24.9588 162.514 24.9588C164.446 24.9588 165.464 26.0114 165.788 27.1796L169.605 26.7632Z" fill="white"/>
<path d="M187.481 26.7632C186.902 23.7559 184.496 21.8358 180.333 21.8358C176.053 21.8358 173.138 23.9409 173.15 27.2259C173.138 29.8168 174.734 31.5286 178.146 32.2342L181.177 32.8703C182.808 33.2289 183.571 33.8882 183.571 34.8945C183.571 36.109 182.253 37.0227 180.263 37.0227C178.343 37.0227 177.094 36.1899 176.735 34.5937L172.652 34.987C173.173 38.2488 175.914 40.1804 180.275 40.1804C184.716 40.1804 187.851 37.8787 187.862 34.5128C187.851 31.9797 186.22 30.4298 182.866 29.7011L179.835 29.0534C178.031 28.6485 177.314 28.0239 177.325 26.9945C177.314 25.7916 178.644 24.9588 180.39 24.9588C182.322 24.9588 183.34 26.0114 183.664 27.1796L187.481 26.7632Z" fill="white"/>
<path d="M25.6666 14.6665H31.1666C34.2043 14.6665 36.6666 17.1289 36.6666 20.1665V40.3332H25.6666V14.6665Z" fill="white"/>
<path d="M7.33331 13.4607C7.33331 10.937 9.05095 8.73705 11.4994 8.12493L22.4994 5.37493C25.9706 4.50711 29.3333 7.13259 29.3333 10.7107V40.3331H7.33331V13.4607Z" fill="#98AAE9"/>
<path fill-rule="evenodd" clip-rule="evenodd" d="M14.6667 31.1668C14.6667 30.1543 15.4875 29.3335 16.5 29.3335H20.1667C21.1792 29.3335 22 30.1543 22 31.1668C22 32.1794 21.1792 33.0002 20.1667 33.0002H16.5C15.4875 33.0002 14.6667 32.1794 14.6667 31.1668Z" fill="white"/>
<path fill-rule="evenodd" clip-rule="evenodd" d="M14.6667 23.8333C14.6667 22.8208 15.4875 22 16.5 22H20.1667C21.1792 22 22 22.8208 22 23.8333C22 24.8459 21.1792 25.6667 20.1667 25.6667H16.5C15.4875 25.6667 14.6667 24.8459 14.6667 23.8333Z" fill="white"/>
<path fill-rule="evenodd" clip-rule="evenodd" d="M14.6667 16.4998C14.6667 15.4873 15.4875 14.6665 16.5 14.6665H20.1667C21.1792 14.6665 22 15.4873 22 16.4998C22 17.5123 21.1792 18.3332 20.1667 18.3332H16.5C15.4875 18.3332 14.6667 17.5123 14.6667 16.4998Z" fill="white"/>
<path fill-rule="evenodd" clip-rule="evenodd" d="M3.66669 38.4998C3.66669 37.4873 4.48751 36.6665 5.50002 36.6665H38.5C39.5126 36.6665 40.3334 37.4873 40.3334 38.4998C40.3334 39.5124 39.5126 40.3332 38.5 40.3332H5.50002C4.48751 40.3332 3.66669 39.5124 3.66669 38.4998Z" fill="#98AAE9"/>
</svg>
