<svg width="47" height="47" viewBox="0 0 47 47" fill="none" xmlns="http://www.w3.org/2000/svg">
<path d="M23.5002 0.95459C13.2924 0.95459 4.92048 9.03272 4.92048 18.8733C4.92048 26.7312 16.1564 39.7296 21.0033 45.0171C21.6642 45.7515 22.5455 46.1186 23.5002 46.1186C24.4549 46.1186 25.3361 45.7515 25.997 45.0171C30.8439 39.803 42.0798 26.7312 42.0798 18.8733C42.0798 8.95928 33.708 0.95459 23.5002 0.95459ZM24.0877 43.2546C23.7205 43.6218 23.2064 43.6218 22.9127 43.2546C19.3142 39.3624 7.49079 25.9968 7.49079 18.8733C7.49079 10.3546 14.6877 3.5249 23.5002 3.5249C32.3127 3.5249 39.5095 10.428 39.5095 18.8733C39.5095 25.9968 27.6861 39.289 24.0877 43.2546Z" fill="#3056D3"/>
<path d="M23.5002 11.5295C19.1674 11.5295 15.5689 15.0545 15.5689 19.4608C15.5689 23.7936 19.0939 27.392 23.5002 27.392C27.9064 27.392 31.4314 23.867 31.4314 19.4608C31.4314 15.0545 27.833 11.5295 23.5002 11.5295ZM23.5002 24.7483C20.5627 24.7483 18.1392 22.3249 18.1392 19.3874C18.1392 16.4499 20.5627 14.0264 23.5002 14.0264C26.4377 14.0264 28.8611 16.4499 28.8611 19.3874C28.8611 22.3249 26.4377 24.7483 23.5002 24.7483Z" fill="#3056D3"/>
</svg>
