<svg width="24" height="24" viewBox="0 0 24 24" fill="none" xmlns="http://www.w3.org/2000/svg">
<path d="M13.1838 17.4938L21.5103 8.9365C21.6655 8.77693 21.7887 8.58749 21.8727 8.379C21.9567 8.17051 22 7.94704 22 7.72137C22 7.26561 21.8238 6.82852 21.5103 6.50624C21.355 6.34667 21.1706 6.22009 20.9678 6.13373C20.7649 6.04737 20.5475 6.00292 20.3279 6.00292C19.8844 6.00292 19.4591 6.18397 19.1455 6.50624L12.0014 13.8655L4.85731 6.50624C4.7025 6.34583 4.51831 6.21851 4.31538 6.13162C4.11245 6.04473 3.89479 6 3.67495 6C3.45511 6 3.23745 6.04473 3.03452 6.13162C2.83158 6.21851 2.6474 6.34583 2.49259 6.50624C2.33651 6.66535 2.21262 6.85463 2.12807 7.06319C2.04353 7.27175 2 7.49544 2 7.72137C2 7.94731 2.04353 8.171 2.12807 8.37956C2.21262 8.58811 2.33651 8.7774 2.49259 8.9365L10.8191 17.4938C10.9739 17.6542 11.1581 17.7815 11.361 17.8684C11.5639 17.9553 11.7816 18 12.0014 18C12.2213 18 12.4389 17.9553 12.6419 17.8684C12.8448 17.7815 13.029 17.6542 13.1838 17.4938Z" fill="white"/>
</svg>