<svg width="24" height="24" viewBox="0 0 24 24" fill="none" xmlns="http://www.w3.org/2000/svg">
<path fill-rule="evenodd" clip-rule="evenodd" d="M13.5 21V17H10.5V21H6.99997C6.73475 21 6.4804 20.8946 6.29286 20.7071C6.10533 20.5195 5.99997 20.2652 5.99997 20V14H3.41397C3.21622 13.9999 3.02292 13.9413 2.85851 13.8314C2.6941 13.7215 2.56596 13.5653 2.49029 13.3826C2.41462 13.1999 2.39482 12.9989 2.43339 12.8049C2.47196 12.611 2.56716 12.4328 2.70697 12.293L11.293 3.70697C11.4805 3.5195 11.7348 3.41418 12 3.41418C12.2651 3.41418 12.5194 3.5195 12.707 3.70697L21.293 12.293C21.4328 12.4328 21.528 12.611 21.5666 12.8049C21.6051 12.9989 21.5853 13.1999 21.5096 13.3826C21.434 13.5653 21.3058 13.7215 21.1414 13.8314C20.977 13.9413 20.7837 13.9999 20.586 14H18V20C18 20.2652 17.8946 20.5195 17.7071 20.7071C17.5195 20.8946 17.2652 21 17 21H13.5Z" fill="white"/>
</svg>