<svg width="24" height="24" viewBox="0 0 24 24" fill="none" xmlns="http://www.w3.org/2000/svg">
<path d="M4.76996 15.26L7.30996 14.97C7.60862 14.9349 7.91135 14.968 8.1954 15.0667C8.47945 15.1654 8.73743 15.3273 8.94996 15.54L10.79 17.38C13.6286 15.9359 15.9359 13.6286 17.38 10.79L15.53 8.94001C15.1 8.51001 14.89 7.91001 14.96 7.30001L15.25 4.78001C15.3064 4.2921 15.5405 3.84204 15.9075 3.51561C16.2745 3.18918 16.7488 3.00921 17.24 3.01001H18.97C20.1 3.01001 21.04 3.95001 20.97 5.08001C20.44 13.62 13.61 20.44 5.07996 20.97C3.94996 21.04 3.00996 20.1 3.00996 18.97V17.24C2.99996 16.23 3.75996 15.38 4.76996 15.26Z" fill="white"/>
</svg>