<svg width="5" height="10" viewBox="0 0 5 10" fill="none" xmlns="http://www.w3.org/2000/svg">
<path d="M4.6552 4.65787C4.6552 4.82602 4.59691 4.99417 4.46577 5.1343L0.793668 8.88969C0.691666 8.98778 0.531376 8.98778 0.429373 8.9037C0.32737 8.80561 0.32737 8.65147 0.414801 8.55338L4.0869 4.79799C4.15976 4.72793 4.15976 4.60182 4.0869 4.51774L0.414801 0.762351C0.312798 0.664263 0.32737 0.510123 0.429373 0.412035C0.531375 0.313946 0.691665 0.327959 0.793668 0.426047L4.45119 4.18144C4.58234 4.32156 4.6552 4.48971 4.6552 4.65787Z" fill="#212B36"/>
<path fill-rule="evenodd" clip-rule="evenodd" d="M4.7123 5.37536L1.03278 9.13834C0.799518 9.36264 0.441625 9.36063 0.210066 9.16977L0.199887 9.16138L0.190377 9.15223C-0.0496206 8.92144 -0.0492601 8.55582 0.157409 8.32396L0.162706 8.31801L3.74167 4.65787L0.171283 1.00649C-0.0932893 0.74707 -0.0231519 0.368838 0.190377 0.163502C0.449703 -0.0858727 0.822388 -0.0246919 1.03266 0.177515L1.04081 0.185347L4.70299 3.94578C4.88357 4.13873 5 4.38816 5 4.65787C5 4.90889 4.91153 5.1626 4.71751 5.36991L4.7123 5.37536ZM0.414801 0.762351L4.0869 4.51774C4.15976 4.60182 4.15976 4.72793 4.0869 4.79799L0.414801 8.55338C0.32737 8.65147 0.32737 8.80561 0.429373 8.9037C0.531376 8.98778 0.691666 8.98778 0.793668 8.88969L4.46577 5.1343C4.59691 4.99417 4.6552 4.82602 4.6552 4.65787C4.6552 4.48971 4.58234 4.32156 4.45119 4.18144L0.793668 0.426047C0.691665 0.327959 0.531375 0.313946 0.429373 0.412035C0.32737 0.510123 0.312798 0.664263 0.414801 0.762351Z" fill="#212B36"/>
</svg>
